<mxfile host="app.diagrams.net" modified="2020-12-18T08:54:39.606Z" agent="5.0 (X11; Linux x86_64) AppleWebKit/537.36 (KHTML, like Gecko) Chrome/87.0.4280.88 Safari/537.36" etag="loWvl3TOE3b-h3zDJ7qh" version="14.0.5" type="github">
  <diagram id="eigChdQNg6bgcLg3cVgB" name="Page-1">
    <mxGraphModel dx="1786" dy="1662" grid="1" gridSize="10" guides="1" tooltips="1" connect="1" arrows="1" fold="1" page="1" pageScale="1" pageWidth="827" pageHeight="1169" math="0" shadow="0">
      <root>
        <mxCell id="0" />
        <mxCell id="1" parent="0" />
        <mxCell id="Fq7706VyEmhTDiXR55tR-30" value="" style="shape=image;verticalLabelPosition=bottom;labelBackgroundColor=#ffffff;verticalAlign=top;aspect=fixed;imageAspect=0;image=data:image/png,iVBORw0KGgoAAAANSUhEUgAAAOEAAADhCAYAAAA+s9J6AAAtKXpUWHRSYXcgcHJvZmlsZSB0eXBlIGV4aWYAAHjarZxZch25km3/MYoaAvpmOGjNagZv+G9txCFFMUklZVlXN0WKTQQCcN+NwxFm/7//PeZ//ud/nLc2mphKzS1ny/9ii813Pqn2+V+7fzsb79/3f/v1kX//9nXz/g3PlwIfw/PP0l8/3/l6+vULb/dw4/evm/r6jq+vC71d+HXBoDszdrs+DpKv++frLr4u1PbzSW61fBzq8M/H+frBO5TXf6HcS79fRP82H78QC7O0Ej8VvN/BBXv/rs8IwvNf5yv+/l35ORsan8fgDR9SyK+RMCG/Pd7bR2s/TtBvk/z2mfk8+++ffZp8319fD5/mMr/miE++/IZLX0/+neIPNw7vI/K/f6Nvv/7xOK//zln1nP08XY+ZGc2viLLmbXb0O/zgYMrD/bXMn8J/ic/L/dP4U223k8VZdtrBn+ma86zKMS665bo7bt+P002GGP32hY/eTx/u12oovvnJKjnWiD/u+MKKrVBZw+m3CUGL9z4Wd+/b7v2mq9x5OX7UOy6mZf/2j/nTN//mjzlnaoqcre9zxbi8IpdhaOX0Nz/FgrjzWrd0J/jtz2v57Yf4UahGfkzTXHnAbsdziZHcr9gKd50DP5f4+GSFM2W9LsAUce/EYFxgBWx2IbnsbPG+OMc8VhaoM3Ifoh+sgEvJLwbpYwjZm+JJGe7N7xR3f9Ynn72+DDaxECRQKKwNOcVixZiInxIrMdRTSDGllFNJ1aSWeg455pRzLlkg10sosaSSSym1tNJrqLGmmmuptbbam28BDEwtt9Jqa613bzo36lyr8/Odrww/wogjjTzKqKONPgmfGWeaeZZZZ5t9+RUWMLHyKquutvp2ZoMUO+608y677rb7IdZOOPGkk0859bTT31fttar/+PMXq+Zeq+bvSunnyvuq8VVTytslnOAkac1YMR8dK160AgS015rZ6mL0WjmtmW2epEieQSatjVlOK8YSxu18Ou597X6t3I/WzaT6o3Xz/7ZyRkv3f7FyhqX757p9sWpLPDfvij1ZqDm1gezj+7t242sXqfUff+yxetfyzqVuW5Mdc0AuCcp2KwJQYk2mZZQOh5ey18g18GNnnBriWqHMyUjnaWMzlXBR3DO6OTZ0VdwykFsfxWfGzz1yz9l1JsGtszv41sfIK7tsj7g4gKuhgIze5rVnijWsPPjGOOY4u3smMpIrrQVmKxbiZYykL2RAdhM/BQSI1mW+euyGA/ri15Tox2at0zGt7cR02TP7hLRtXZsFjzyGzaXvFVIlPHxM59QyCKm6U2VeuCkAUntKa/Y9pgnZ1RJ9LwRKX6myWiuw1INgXoRF3ZOgaz3lxVOEYWMlYt3kjoPnAJ1YWj/Jtd0Y85zLJR+PnUxJmM3GWZNPlWcYnYCwdd9w+35Bzd+s/Dcfi2bVtEBchNpcW/OQN655JrCz3iRZ2825VhaLyRcGHEVSkkJ721FJxuogMkQZhGsyMRBrBrC5PM+RCZ8SiIAU1mSyUh65AQ6FG4waRkJFQdrp7HOpkzUk3kIyazOPLoddSJZaXNCaE7JjthVLm4VcqCmQKEy5Z1xWTxAWMzb2IiH9cZ6YMkqdOXu1kXUhnqB4xhtt19TueLZX3JN/jO30SMxufpfk98rxJgaZedhtQKV6bAgIW3dIn7hZz0xGAWuB9YyD/LArEzKeIaS87SKz6/Kunrl9T61NEMx4lxS3o4Q1yJZ6EtiQeUxywA1EApng516Zv7a3e5e2hi92AhWtMkUA3iypwyKAF5N11o5cTTgL0rE6np9yewK36EbhaeEWgHdcIGmsTM7wjcVcm9VN0QRypi9EL8KGVWFOQYHR0+7K1pWPgkBgDBCSnzw4y5eJhEXE5AhuzQ3wBjPJKKVAA2OVun6d3FjjfAaISIiXDVt4EjHWWYGDImRom2+vTPIcwbFfleXHREhdkIGNWQJIK/MSYZfSnVKee3AfsP1wjTw6+LB26qP5TGYnt+8vGXIWpM0wlD+JJCPvmLrKtC0L9kZQlCgG7PoGp0nv4+bhG8VvK1Zah2SGdgwDHd4POGSUhYgj6moBPFB4c8We28gMnMG72JgVkM6d0QuKEGJoV4vWzhwi2GGftF0fCzcBGqeE5NPq50TopbRrSgBNmISNdOlgNTIAnQDZCLCstNGigP8EnaE715nx5TfZI3g5CFHSCR05N5ln+S4QB9Lw/0As7suSbnGTbLmFNyi+wfVjkiX5Dx9N733uSXg7P5XWALzPXJ1pK7Evl/dJpZ0cHVNJjMIgoxLcOfIUjGpDh4v0Npu8WnBqHXbBrTOBAkwy9ASu8lCjEA+k8mbhtgN5gXI0hSDlJEK5uM4U726IDLI6R6bZL+aFlWAYxG4goInZgzohIALQYt1lvzSVkMQ9c74OvADDp21GdJv4KcCzRUoEgJL8LH4QI8COOIE/sFDcek4uWXeBNmsjbE8OqKgM6QMjxEbeYaKtpHMsDyDIK+UMh2JgJpiVVXKe6yBDEigSpBUY/5R7sGcMeCUY6CHKB25RUYdqA0/dEvJjkWPBo09QKLCvhJDQ0vZQ3e5CaKEvVgpE745Vy20JlwFq8JoZ4r47zrAOeQrTh+sqgyMcewT3mABvK0TR+QKzA/qRRcfw5K5IT53hkS4HmCJp+ABeEnQbVkAuME0L4SjWht9BpUUKEQMQbi+pcTkzIIw4HOIQ6bSKjyxvOEgIu8G0qaiZiBKLqNogRcthVORT6mSSOxn5Ro6eTRyhpcYMmmaIDb2G0/aJ1QIAJrEJWqI5J8Tb6smABmMTRFz0JC9XgR9rB0YwFyQ+MD1gc+9gPa0qQg1onIR95jqkKuEJM6YDdG4gSDISzg9DBElqRgOtAXUnMnT8H4CGWwVF+hyuT74BMm9yGSWyA+vgWQTX+E7nSXkqpmDKOzasqAI7TSu6ZmkOITbImeUKagxKgqO0Qk6KyMPliBUxTbhAt8DjRbKNYFiTViP6brYTYG4YJ+rJVhQhO2UGsTxSvYlOnECcxOIG5SYyiyGTnH5mg1ZfY60ZAzICZJ9EaH+whnTvICZJyTovEJp7wzz5JJQgfEKGT/lcO5FCxsN4RAuiA9klBW07YonROyY/ZKATse0bzKM/TQ4w4CMqyBOm48farkTYMtBXeNIqoVQchrLniRhEzKMrJMBZVhQFGA1Yi8x40m6l+9EQ1qHmER+jmNJjJKjLwtUDJsMn3NAaW6zMzRkOKr4cTzAsopCVEfyAdIOczHEyooWHGeZkFrfkPlCvLNKR32fATDL8Yhfh34APh49gCmBFOZcy9JgI0+Nh+O0sFzUoGiQlv8f8EmB7MNzaopgdRQ/lq6ygUhFCBYL4VgSar7+BRFgIuoL4Wbij5clT9EOJWjBxn8gTjp6FGbd6eBMmqZMSWUmISWLISxEZIHPCrskNwc6EDbJngDfEysYmkCa1x+NzUKqkihiFQ0a3M3UwC59nb9XlBAGBY5UB01gC4KXQJvdbQYg7iGMDn6sl4A1JGgnI3CpQCaSzoCjtBBgVMAgTAMK7zKg6X5ObC/0gSoC+MBoBifbKVvDAT9tmeNQN4ehhD/rjWo4k+S/we3QmKEf4YF4J8TaGcB97JbGYMyMfCJ+kEa14QR6OXtaX0sRgkednimcaTCysGCPSE4fC04B+xGKReC2IZGYoKOWMXcT2rMpkkENETrwmYRqXZB7gmIvUyFxVGdPlZz4Cniyu2yRoTkg+o9wBeImqNAFGj8JkrhDeOQk1cyXnwEP8X8Jin4H5WrAMv8pCcuswMXf5gJAlS63KABy4ezMtSP40D9F0emCmCeeIukISIiiBQ1CgQWb24oPABVgj1wj2fmrmZsejl0hPWyYByG2Ji3UOdMh3IGUcC+iPvj65N7xEhaKySz3A8V5+DS1Gqg08G2EAGGqZW4tZDqAlYTJmWtYFNpRZ5ftEDPI/ADYedUYEpmlYJOKAUN4oQzIY1QAVbobI7w2nVQOYlxuPKcpAFnocuctURwA5DsAJf2wsM2+RoeUuHXk9RivEM55EUC5X5UTgJDSMALBFBGvykCpmOKWyBc+nbIN1AGRhLqaQlIH+JX6jHUpMQhseIwUzsqvaSz1gPAvUoRfc+t5kMQlRq9kOAGSiMvCLvFagYpYO8xzPnCpy3ipH5Rv9xDj5JsoMK8/cyhPch7CwSGD9JovOioniglTRxlMlpDGG6SUTyT6sBvKJ+Ams7QH5HRYKQrUDHPDLMD6IFN2fVFUonRkd2B2mj6VUzieS46rnivcH+MFjOehSxEQiWaimz2A6kgrEgXnOYm3JHPykRELfswmGbSfwwV1umAViFcEIrRN/yAy+o9mEq01jPpi5xbPzsFDaQf5gVweaDowVHyPm5GWmSrxyUU1EUA56ZmXZF6B9RYPBZ2IStpDoGw6ZhkLMJAsIxp1QjhuBLBkKqCN+UaZNIx3MZYwd2HIowWMNlFiwKZ5wViW0kXBV4D2AJFzIun6qMhxWAaMlmIRbY1fJFEIYoNFWpJhr0wFa4T0UQvLmKebhAQcZJnuZbFOK17QFYbovuEV8ycun9ab8v7IE8huWkOIGuDAUJSZoOAsJkDw4bxRiwRRgpqLqNb42f0yGVCAOoh7txhWyXEpxfHcHPbNTHER0QMaMIeOxu+h6MXDCLYhhxhUyEhGePwH+xgehXlHc7lIU8Y7RZ3oh2I5lRI6eJNA7yDkesVZymWtsOEC5lvXLJd65CwuogQlhuLCZaZgNTysrPUezpDN2JKnMKV95heSS8MMTZlQtQppJHfKLzPTQVgoLg9pWEYlwtgQS7IhU405ARBEx4RWWwhUxUjoucxncJ2vctM8CkhAWA7EIalQbkd5wbL1GBlE3hz+Wha2gKRqIUMPDk68Fi4mpcTIGbSFwbYXP5aAk7CFZdCMy9ipkCbWFiXToz8DVSR5IBkDBrbVxV9p8WnpUqO8ZiAOTB9qnZGJ4gmIOPRftVC2+unB6Ik2gWmwTv7fXNNATQAaBltaD3QpaMoC5FUfgMhAGm+QSUx7dBcFHkMG2PVYezo0NDZbSTcBf3jIMKYoDAui1WK1jgHAbUB2BB/VVDB1BTQCqbgfEqjhhyZNeiS88lyY7BixrvSUadENEK6NTyAyHeEHQgg8bzQJ8eMAcLTAZNmobjTPhqZp6Q6YYLH49KwVkJSRxcMkqL6MHEl8sfAe4GwQaCQKxYGAFI4QLfpG/BgpUCVIHvl91bOcE171yO56FZyYSEZysJ4zXkfM1RrwA5AxqO8YLOrO0ZF2/Ncc0TJbegSeKAAIF5ggRTE6zcEERhiLCAaFNCDNUSR/BLLgJpIAKXXZnk4sGi+gxl40HZXbd2sGpdERYMlTCD2rcY2Hb0aceMEHl6ic7FoElUyX6iHyBEZcWOpE5exMsr4/MLizrmgqkDRWORLITJ4PTxf1XOG0KAoDpiTz1ZqtqrcchKAgnC71rU8ihaiQaOsmZVEXz2l2SPLxWttqAbOchE0qu5T6TQTYGZR8wqDpw8eTjQEuoxImyxi0w+j66HFU7jq+SopkfAPCxuugCAm/4bEgd8P6Abe0Ap9hHoKFpz41hk9klc1k8RUSOctWu4hTuEmmiDUHIAqHt66kof6AU5tl7a7cJzyUQjUuWg4QMFffsGg/FJCFSknagq8q20AsemtC8pfeAGFWWgVxwDzouT1l0tCRpMZzyhHkSUeOlBbZcOgO2afNBFapx6RA4INfIgsc1gjjS5ww2k+cYhg6to2hIVA+OzDqOYA/Q59qEERGp8pyCLKCzxRd4zPS27OhA7VbA8XxShUJpknOqFYECmAISExFZMzypOiUiComAO8LGlUh82CzhEFXuC/jpIqtVRsJMDZYItaLSYTkNUa0Q49n1+8OpooyeM/eXSJ0gFQ7fgp8aYLVFNWbV9SRqwc3DE+YZEJZrocWhEdVp10StHYSbCUeJyhpMYl4QAgdgqdN22u8PLPwIePZg8XKZLB5vhJOAeERb6goMNGSI+ARshJoFZhl+q/YLY6O8N9OOKfYs+4ILeGwWglDWbk8aB8urwL6ViFbNgO5EUgwraotnLIRvFmdobzETZHIv6kIoQyFkbzn5ariU+uBeIMIox8wjNtR1wXSI/DgXES4bfuVr4PTK5Wptn+9GwfaKP6anMz3oCL/01bAhyKktfB7wDpIQ+DRyjfuWUp6BB3TL+zDeRsEYjLv3+zCM90HcIXw1AHBQd2d0z/3v3c1XE/c+b4FJEEXj4jrpDpAN3+oEZZKvC8UiiBKR2Gr4D5FOPOJTURz7+wt/fp6PswrTqgRiEbMwuyRtL6SUzcQ9zqbXo6qqdgtBfAUAQCH1UEEWgE+brtsDbUSHgeUggQ0UHen9eSum30/3F9P8zLK54/ITaN1c0fLg2utLICnxPvkE15aHnhvJD/ZhdwnsDlGT7khobaQiUaMpqhmAmqJp8kmaJDht+SHdsLGOu0QVAKXXJO0WzPLVbJn/EoQfY9D8lyD8GIPmvwThx7ubL4Lwi9v/eyaa32ehz42JqAlVCeE4STDciIWjtJFh5Y5wGLfUM2rQmrm+goZtvpq4H8xbQWAvFR7StVE9GTyaMJ/JcASlBKlrhXghurCtDgHYn54oyDsdNXjAKETVhAxlvUS7bextJJy7GgGIPPxsVtXp+3xbFr0NDTRcNukJ7Eu2yvSgRghdZMdGdEzVRZhlFDOmE7prQXWRqZ2ywJME4Ncjy1DEMFKWI2+e2cW9daMqPTeEGU5U2XjZcuv2c0N3ZIcmEouHp4YR775V0A4qMm8xvR2bYxtSJpow4U/VsAGawyDREVlbjMNj6gN2mfU6ajRiWZGJHempbfzkxC5FE46vJLVMxxhyNxc6SkT7CxlM6CgsBobBQ8rAHEAIsXPIuoOC6emG5iJUb2QlnHM3/OAqt/oIE+Po9lKhNDMYCU5/sJAbR7byRNzmhFwCbyZGF9WsnXqcp4q71jSUKpynIsrEhw6V3feNZS+7zcd+ursf4Z9xXL/rWPlk82TlwKlH3E9wEakInXN/gOnr6UkJ236F5kGaKR7UcaJttngzkpErOBccvUzBhJ/qN/4YBT6c1orHtyrwoyp5QsLAV2kwvxBKt/AM6C1tpsuc8kt8ghVFbWFiWJygnwvaSxqsDKNW4R2vNJ/wzOGONLMS+ng0XxZD9Bqt+Txc6cN55wjoaLoiCfi2OuEp1xdywp0n/3EbNwON9S68A/udKi7xNlXPRDFNrOjdaX0bAHjxGoESSGMwD4S8hnFx4OMwhH+fB3J7V14DuaO4YzB/XK/PA9nfT4T5u5n4fiLM383E9xNh/m4mvp8I82Eg2OCNdT6o3JMJVuRhcGnKBEDs3tkEkGftkm55cel8hbOtyNdkViQ0/SRQ7Qguq8clCSOGIg/uBUAJRjtewVgZW4aCjwr0C6+6Mbaevw0Svf37mny3JIwIk9FyDaZj30JWJT4CSUAoih3X4GNuC/9+k0feGiGBn+Y2uQt0VTre6C+c6Dho/2xGPGifBzZmftYqHYzwwSV6qAMexh0dck/2AS0FUnIvYBL17uQncLQ3snt5X1gWvo0HS+Mew71hadFGNxYgOGBXteMBlMKiwIJPJajHwUR3CktztIHJgi1/CyX9DTjbr09ZVxWS0W2MLB145TDkUbZgoRmckiBY1Yb7WNELoh8UnKzRHtqDUvdAPkznOZqB0XSpJcFRYxbZd/Pa52EGIPL9BBni7UZz7Ei1q1YqmLoqscMs4YWH7EzRCgPcDICYMfVRHbqZtv3vYosycZF/aBRIqiM51SjagLYBSxMbrDMbwA04yjmClNgkHJk2DAgKeGhoj0jtOCP0iHNvKmjECTxvCAIXnie+HyYt2ed3aVXPDBgjrG12qB9u5BNOklu1pRpblAUf2MqsjZOomiYCdJmVG/FLhBVIkB8gZtyt1Kt8IRU09ds4fCH0+eZh842jn2ZTymE+cxgIWXxyihclBstcoCOVvsZrrYhnccO8SykNh0lV2L8F/aeQJ01v0GvRzbpXJfKhrOpZuljwFHftxlFuKeNe94Z73Yt7w4t77WszPpsbzFzgv8U1Nuv/Jq7f+iH/c1xXVu0Hcc3U6pADE6yKqM4xaF9a+iipzjA8jl1dGgi5Tdj57gNTvtbMcVaHTgehreTbjupBEa5Pli1p5YiIYRmnaOBOBQSpKsVBRGpBVKC9jxXCrs8e1tn3gXcoKpwsVT+wiWH0XNX8mG0aEyoAaiXNmKiIV61oTID2dgVZZBZucKjQUTuyH1GyjyprSGSVlaGQo5KPjdrBNSRXKkg39LpOePjiSIhYJUH5z6n/syvtBv92ayGf4lRps2LyYh3aL+sezWnC7azK6q4IXvuxY6aBm1bHAH4CdR+rdvmLC+p20oZwTsWqVT2UfDtPbzeLQVxvp99T0Vlb7UWq2S8UvTbO9/L8Y6vmjV1V93Ld9twWdPVKsUI7Q5upmLF9VAFooqT3GrVJ27eusnF00r2VaMjcyk7fkMlo7oMxusVX0IlA1s73UmSveS/mcwIw1H/ChAA1DMQrCC0SsSIOhnSvC6sPHRAYhAMMXptfwqUsd6RuVIiK5eWatwJ7mF2mQHt0GzcDKiSlS81KgLPhYrVtZxQ3QKmNe8VRx4O/cIVMuvQMFkvQZF2GZ+YWyU9cd1AlUtGLYR89DHX1AJR2qovbnKJthD10JGaS1En9fAyM/HGIIrVW4BRv+9cb4cD9MOpU24jySoOcyyS1yyCI87mCmKzOEsQ/RE21aTxJCdTm/RuivfBMYPdCtAfPHjR7fIRNZJtchNQALuLx/d2R15rMqPZGgVa5oGXVhUmKIPbVB/7rU+K/pbC5NMzx9ikswvpEPfPXSPaolNFeKuXx5OBZ12gu0Uin2GPOC65XeR6uhPtw6fVwin73KppijICMJF2pOUrAqpjl8ekmyDeJWq7IVD33b9BSOMtSItWMeqyRPOuoNSEjXQ/hHettVNCZgBBWqvx8LzhJyJ7oHIXfVTcfbM7EekXGUhujpqsWSO2OXzKb0CrqfvHkZXUu4LaWa62DtzBdUsnAkc/ZhtwAUpImmGaTmlOtWoT6UZs7ONSc58sYPvIZn3ubiLWJ6tRW0Jg8jC0jb9pwiWrSQUSkqXYidxq39Imv6ECQtFxxSreZ8i7IvnQw1VXtBPzcnbV0zwKoJTOoccI4pGpCauzQiXq1ZbxYm7jHwN/FJqcu64lEH7sDwGt3XDycRnxMjcJMqVpvL5gIn+XFrT6kbAGP+8tljftRB2TksYtnbrGbRfADWBifc05gkNdOg1QP8V0l4tWg2UGrkgkzLD8cEV7iGRY/s9+d4jiItr0LuaZZHkKpjPJaXn3Pmt7UtOrMR1E1A1IAesBhdPV8yN0B8mTmGfIMHsFeQmTwTLRw8tEaZzjYLCSISPGcPs/Hx+kIr2kw38zDs0WZtqwWYehr9kRgJonU89eKzmGBsZqKu7k+jfM6kEAsgYWEkNs6L6ImxKq2rlrnVCU1DIEviK+9K/5Vq4fPo2qaOgUAKBoYK/FMpEDgaZndnbp2W3AQ2iQjx+Az1TPDVn/XLJ1EzZU0OZmhTucjKRYxfow8nKDSPhCkPUrJVghXu7ZXgZL6Jc51k4xQhZdvkiEwdJ5NXq/lsA362qljHOI+N38zyAbzCvtbmJHE1R5o0ZFD8leVNdTRhZfxAZGzeQCZL/9JyF4ZC8g8QvaRsW8q9qVhzVci9ufe7ZeCNT8D/Hfx+q12NX8SrxpPDI9IfROw0taPM1PoXg17Fayxfw37Lxn7ScWa88DyOyhb+xGW+dHfZKxG8S5kf9OxRol3ZSx2N2oxCU0tNfIKTMpnqIdKSQa/YOtbbGNoj04uqmK83ULpJKQfi6cC3h2DV5UO66620BJftJPjuYdcWtbxCKu2GZL1ZSnmWlrDsfqtZ+8WtF82UCtPddqpb4dx6+CISgKor3Wb6tTzSSCq4LESDOeYiYTMSNlojiOYXVVXCO/t7H8ENBaVixG8XS36h2BuznR0YOx+6/BFB6BUY3UDu2iBDLXDEj9ejSj3+XQc7KI2Su0wreeuy8VsjxZscBnidqmrYZHQ7W6HbgSC5C05rjYHcjSTzcGpVVL11wPp4Qj6ygpY8948RdLai3vEexsvrFRjFiGE6Bg6tjF0hgbVCza6kSxL6c/dMCwFB4nUF2xbUEgHlMA0jyqH0HVADU5FBk3gYj97EOUeBAlqQG1I6Kluo0BYmOFYS20DEIDdbeQqkLrIgExcaN+6Ik7RRiBIAdZbz4/1rHDAUitWHbIlwTziTn3NQLwqMeErhfjvAtH8TCH+u0A0P1OI/y4Qzc8U4iMQIRUdcNS2PiuIM0PT7EOE48eMZ6V3UONRQmzM5sbaU6fSLLnlRsXALHXQqFEm+f2cvsDWXUOqwh8SEDyoprcWgVcLuaiRloBOLQ7t2oRrbY+O0ByJobv8R2nJMmtbSWW7sePK/PQ03gfW/JmFoqaLWwX1156KkEEHdwTky7LOkqw6HfUSN5JJsn0gohkx4mM68ODUaouVA5i2UO1L/51S37ec492QXySHcMPITVM9Hmwsteup4a/q/JaaoMvbvt5n1Wvv1sYnEFMcpa52GoTN7axAsfnd1b3H502nZGBg5hN75BvBDAAVt4AldSWOAJLB3eQYq6ZOcXUVqclIR1urukf20Ik7PGbPA/s9yQyd8gZwug57Nh0RmFubN11tzC4u7YoiVafcZmsEAM4z6yjAwuapzx+OaKpdolSiTp1lnVeJ3MxVfrFrbwiEqdOIijwZdhubsNS+NrVtrE6Q6Fib7g3fsLTxxrs2jMi78xBWR5Yya/7ZFSXjjyrW88AYD1ggAS+81p0uzOvEwYyv8u96hCpzOpLiDbnVMH6YTPw1qIJKXmq6Vg2QLzS32ko6Jpc3uaF9E53YqrgE5ctTEamw6VZgNsMY7z0nWrE/wm/eOCR7a3uV6/sjQLV9I1uMpcW87ImBPVHuGZIwqNWrvsV/DQziB+4jSPw+Fvt1xffrPVfj1nibX6MyGtaXo9o66BP4oNNIZxz1GZJnB9c0Txe2gLoBmaDn9ODR+2Nq2+Je8XU9GfffnvKrMfFw4I/HioqaK+gs4GoMgF9ZSX8qfDGVLx4RuxWvK6akMz+7Q0WvwMI2KLDQR9LA3EeRpX1Qq/MZ7p6IsTrDMzBtiOzdvc5+1bmch2gAsqyikQqnJ88KuhkdJn4oGQElV7BBNhD5qOzTN6LHok/T2mouuyk01cRN/vKcDFQHfFUiMajq7mS8cCCMLdQ4EedOx1i1EaFjvkDuG+n8zjlDjw394QiSyUVt1XrtQGplr9tC03MhDbHJKeHeYFvcU54o8KTNV6deH6fKcNDxCDymRIEJarO4Ok3lVHTaU3ttaFhGglDn1pNwx1uuOiOPe4huRAVY9x2v8YsqgjsrKYFPxXnV240Mba/VwMSEOo6q3rrbGrCO97Lw+9moOwU4CLM27YMTYgS3z6DoL7gWDf4G2NeLHlsrg1KhNa1lntAivZ9q4z3ft9TVztTq+KegEXQnqIEoVfrVkRIKmoWn50mxzKIstcQAtOqLkV/j8YI2Q2cCCuN1/6nd1jyfIbsHnR3rvkBxP3SQqBNWrsaOhdCJsnsGV81OR/1qItj3T6tGCz8QW5eT3z7led2HHWbz2xYzVFdnSGqZVUO3vC7EBUypNzPtyI8Q82LZpc7bQOTNl08wf2MU7slhuWE1Jqg/+LwaQMazeSA8QqXMa38fGDnWP00WGcqpDzRFBqouLp1e9DrMem43OwAXPFALG035VjXSoxXbz0vhvzOx+aIUHnY6T2OHxbXDW2XG+pbW+9y0FjcQAEFpfX/avP34ZjC49C5Ll5SK2QNw3hWdbelTPY2qKVWnZgiS+aq7RWzp+BMq2eh4bGlVNXcsrbopD2wVtluVdCeROknomAsVJ2Sv1f+pd/CohJPW2CqahlDUoanN/AR8eiSw3ZASDAf+qfmBjNNpgjhrgbtnq3otTMMjFn53rrpx4/BvKdGgGkL0egEBgNgz08xqYJtybTshRXhIFJBOFRCKUnn3adRe++Dbs8qkiCPqDpMXXswlPXxcET97coZJLSOuh2Oa/Om8PZF6ac1Mr3JLZSGNdsoeUhZfME1PPoen2rdYbb4ctYnw5wub+tuQngGRmM+Qpn+HkawIHZv0muLFmmp6k4yqIsFrRW0kcmt66Yca1LVL0ZbDX2FWdMaXTGniD9YiqCKqQ1hZbxXQYU7bVl8zT7PVg9o31lXbdUwmLASnd3wbsWyrjq3orHZFUGw1oZWddRYsrzbUboQBLkRev+9kkSAB7HSUBAwEhpqyafMbCV2Dr2zdxekIUZ0/2YTvaWpPQwRuRNuSOjV/YDT/ShT3Fvl3v11H34NOwHtEoA+FMFtwMI+G2UlFRwpVrAAWi0hUo9Yfwqa0NtN1zUx0V93t187jr41H83sNvewOgObuGPZm+ElnQ5fMM5oSNvTo2Ra171DU7vOhlmP+XMy5nTffQNnvSGa+hzLSwh3IDmY+OmMMoQMpGwdP3sJoqp6G4eDm7aYzOhybv9uq/GTeZEGvfftk3gTWJr72Hv+yxP9e4X/brTQ/2K7sz2g+FPh/bci+V/jNe4n/5wX+8HRFPU5HdVLV9817gf/f60i3wN+SzmWQLzBTCG7aZIMnhE1UNcOl+tQe7G06197VWjpznlFhTF2JuIya1cSsf28LOeeg/GB0BApazqyuPSaCR+edb3+hDkI7gcsKDHXr9Drj7YC1zr+NOYL6wAlpvYsrLJUpCAhD3py+5zxSfkW93ON6tVFGUKnVqa2bCEdMbB7G4ZxDVzPhucc/5KpRAzabZ2c9uqdH0V3ZrzZFuAZxlU7SGd4tywWNeEJhXo0MC+q0jkrq2gzB9zce/QAjS2CgM0itoPNShIeJu03a6X5f3i5s7ZpqvXP2r1ZPKTVtQKDkAN3x8gF9vMrgOhLw9dff72PO223s60b2160uVufbtvPPOz3XUzzd+5ivvvzTx/n4NEY30VtacI0RVYIhUP+OukGiToNb7EjVqxTcRExoS1a71DC2ClEknW/xvqIqmahsQtmitaCr10D+7nFD5leNjuOk7PTSiY09IlyReHoJRBwgDSJ0iangG9Z4qaGE59s5o2ClEjLunujCzekVGD3cV8pIccMSB4utYtQtvUMqKq/oCMOSnuc/G0F4GYF48haj5KRj3Qaa01s8wOq9mt7KUm/BUSfCZY/dIo19Q5P52ysatWmmFxclMJU57RAgOnVNE4r32DdIqsQNQah0QuRO5JQ9MqLcSXkPTv6xaG8+AP1w3xocnfRZ5REPKDFWoq/n/SUPeI1hthSOtLDAF2n0rFb0Oo5Wbs283Jr5Uxa/OPplb4v5Z3PLe2+LFPmPzYD54AYeL/AYgV+dpp/6TMUuDgr53NViPra1/KOrRaI5vRH0nwv25r3ydete5686Rqfta9SEiiX7wcmh11IiLWDVXfXeKz+D3oEAKuXl2lQUhaadq4vAVaesBj+XRtwjoAR0jsGom/rZCmpLx2uyNFuTzdPpuURkI8AOlGEHiRTylDNyG9zV6aUuCmgIDmcA65MFIWXKMQWU+9ahZxIJWkN8qmGjbOGCXt+SnM7EoL7IFSL1dl2RKNEa9V+Te7nNEDcGXK+eWrNWvcQHoYNUGjoDbLGgJd3zvMzvlrZNT4zvpyxlGC4D+8e4vIRSkkSC0WG3rjYe2ECb2FWd5fGe+dTJMuxiXcOsW3ew980PUnzt3PO9bh8go2FLsl/xusYGM54uxZNYyoJs4vry5NrorGa5r4fqukbj9IKf/IA+g00qIUkBXGWeX9Vbsoo4AmrdxxtI7Qf30mMf7/Hc4fP1369uPlz+7eKfr/0a/Pdjjzy8WeqBkTbWmzLQxwePrx67BNhuvQeDiTz3nYwt3dn3ZD2GQKf9mH0ddB7EdDF6S4+mv+k4JMC85OWUZI65IPmX7Ngd7KMwdZANjtbhs6SwxSI2mXuMH04DzNY77ZobOmNvg14cEU9UeRC9homsK9SoY2XAuc/O80ur66UH2s3SyWxnltfbUQaXwLXEoNq0NnmSNPEaOuxQwDbiQIcdc4p6xUC57QtRiXLrvuqTRx+Vinqqem+VinQ89qh6YZKbMfY+BzA9BT06Vuuqt06vetGbpXDcGAV0U1FN2ky9eQ5iJJW2KqrXGXzYyP3pPq75t43cn+7jmn/byP3pPq75w0bujtpQV3pBcrfEx0zq7VdNb+Eb7mIBmviQ1MtEiNDVgoP3k+ABtPgV4HhCq3rtWXE6NtIh8zTTBGL8BFzTPc0emvpNu3pLkDWq6QLz7e7UzfvWqoqtGrdl+B5azWoUQzqWqpdzIWb0fgBiAylV9GAhPa0MWOugxQpcQkXdXZ2s+9F5f4GU5gLWvhVkNEv4fInnCia5r7+hS+twZrvl3bkRCM+x7k6yNVw35EIu6bVWOq/ujbrNtlS3V/UrSlftMJ4Lak8tXWOz4lvJYKmy4bRP59XvjjeJ9/QjYvTgpFNCxOtlnpmECDpjNFSr1mt7tEWijaK3WIKH7cWtnqe2ah3TS3oZFeNi0ftIoMQY9CoEh9S+7wJLqknOhqbTS1riRcQZ1H2pBfZSLWOxmhgFBPtoqeZ76gYrPgtuCqGFLtPGNaJQfXSIM6+X7NmmlyYB4kkvLZiDJ91Tb5zxNYFHZAqA6eJ9ATIK5m49nqCXlBDoKMcei/Oev5CRerNl36EEpwNt6IaozjzrhwH8ml4n6sXz6oc+XoxTVSUD7prVCeI1kJIdoFRzkt5kpnNbilhkdFIBG+kXL3Z2r+OcU0WW2X1akgCe+7YSS9HBZqujeIthDlhJh0zta/LfPqIhC7GL1gO7tee2CG5HLkx8mTaGiYep93Sghq0qjk4vnziwNDGuoqzVYUCY3KyZ9CoBcCH5cltkvd6HNGQSi0yh5sBnpA7sWVuZUe9DbUwSoLZz1Qs4atVri47XK+OCNPOaWX4ryGkBOU0vUVUZjSzs9TlCwdf0LiaVbRvCRwpDW/IrGICv3jPF5ANYr7dcHr0MR+85abkhrok3rh92wAM5He532qc/CLBYkvpr7raG6VU7WXrlyi5qA8Yks4Z2sJZR3ar4Py9ZusVIKkLpRSI6xRWgDa/3sfD/HZvZ59fBd4d3rxdEYAAWKjMvVTXzWTTupgzW/oNFq5DBevG6TsgnvcnWsLiMW5XToh0cclHHqlTNCMpFbl3V1+r0JhMHzukcPAuqd51U7LpD7nRNifkOQv4WncynS/wBnUrSGyTRmo0lHCrA6CW5LGEmeKch8/LtNJuK/dtMtVoYC/ZMVm/DOMylU//haOFbfAQhV1Ea4qomF94EMOaRR0rwqt5GOPV6Od8g/rL10iEdQykw+5CpKR7xEqHl05sR1YyACm0YTJUa9C6m0W7dSOV18/8BBhu/iVjbV/MAAAGFaUNDUElDQyBwcm9maWxlAAB4nH2RPUjDQBzFX1OlRSqCdhBxyFAdxIKoiKNWoQgVQq3QqoPJpR9Ck4YkxcVRcC04+LFYdXBx1tXBVRAEP0CcHJ0UXaTE/yWFFjEeHPfj3b3H3TtAqJeZZnWMAZpum+lkQszmVsTQKyLoRRgjCMnMMmYlKQXf8XWPAF/v4jzL/9yfo1vNWwwIiMQzzDBt4nXiqU3b4LxPHGUlWSU+Jx416YLEj1xXPH7jXHRZ4JlRM5OeI44Si8U2VtqYlUyNeJI4pmo65QtZj1XOW5y1cpU178lfGMnry0tcpzmIJBawCAkiFFSxgTJsxGnVSbGQpv2Ej3/A9UvkUsi1AUaOeVSgQXb94H/wu1urMDHuJUUSQOeL43wMAaFdoFFznO9jx2mcAMFn4Epv+St1YPqT9FpLix0BPdvAxXVLU/aAyx2g/8mQTdmVgjSFQgF4P6NvygF9t0DXqtdbcx+nD0CGukrdAAeHwHCRstd83h1u7+3fM83+fgBD2nKUCU1gtAAAAAZiS0dEAP8A/wD/oL2nkwAAAAlwSFlzAAALEwAACxMBAJqcGAAAAAd0SU1FB+QMEggqOUCclLkAABi5SURBVHja7Z19bBvnfcd/tPWS1LZok1O10HZGh3It+KUZJKc2m1UOi0lJSyRj4ghQGmdcExUT1tAA/yGwwlwXyFs6A6mSqJrtplNGFHacKnXUOYcWVgM2bgsmTc5AZsejG2pmnUwxw4gJ6aTeWQ65P3ZyaJl3vHfekd8PcICth/fy/O753vN7Xn7PQwQAAAAAAAAAoFGxwQTWJZvNrpybm1vldDpz7e3teVgEAIPgOK45FAo9SURFIioRUTEUCj3JcVwLrAOAzrAsu8Vut3/Ii++aw263f8iy7BZYCQCd2Lt379+X1X6CB/87AIBWpNNp18aNG09XE1/5sXHjxtPpdHoNrAeASiYmJv5aSu0ncBT58wEAcsnlcvb+/v5fKBTfNUd/f//Pc7ncKlgVAIkwDNOnovYTrBX56wIAhOA4riUYDD4rR1iDg4OHZQi2GAwGn8VQBgAVSCQSPXJqv/LhCLFhCyEx8vcDABARRSKR78kR4PDw8L9Wus7w8PC4HCHy9wWgcUkmk7e4XK535QgnHo9/WeyafLpk99Tlcr2bTCY9eBug4RgdHd0tp/YbHBw8VCgUlkm5dqFQWMa3FSWLm38eAOqfTCbj8Hq9v5UjkMnJyYCSe/HnSRa61+v9bSaT+RO8JVC3KBDFb9SKIpPJOL1e72+MED0ApqVQKCwPBAJHZbqHIY3d35CcD0AgEDhaKBRW4O0ByzM9Pb1DTuHnO0rcejxLMpn0yO0Imp6e7sVbBJaE47iWUCj0lAwBFiORyONGPBt/H8lCDIVCT2GAH1gKlmW/yItPsgCNHjxPJBJbSd7UuCJiFYEl2Lt373fkFO5gMDhRq1pGyTQ5xCoC08LH/J0ieROq/9IMzy53wjhiFYHpGB8f/1s5hZgPLVpppjzkcrm2/v7+n0v9gBBRkc83ADUtuMtlxvwVJyYmHjJznmQGERcRqwis5MKdSqfTLqX3KxQKzblc7gaDXOs1EpfTWOh8Mo1rDRoAjuOa5XZmRKPRf1RzTz5qokhERafTmeXHHnWHf+6iVDEiVhHojtyYP9KgW7+3t/dXla6tVthSKRtuQawiqC0KYv7GOY5rVnNPfrBf8B58uiG1P18bS+60MWriAWgAajXVKxaLPSjlfuPj48NG2WJ6evoOOe4pYhWBauTG/AUCgZ8WCoXlBruAxVQqdbNRNikUCp+TMRm9SDpMRgcNgJKYv1gs9g2tXD+ZbbAS3240FL6mllwr8mFZ7ShdoCoKY/6cWt1fZkT81SMej99eg4+VnFjFIiFWEWjoZumyJATDMP2kcF3R3t7eVyzgtheJqIhYRVCpw0FJzJ9H649AtWew2+0fiaWn0+k/bbQOLFAHmCXmb2ho6KDYvT0ez9ulz2qTmveUCsHbR3KtaNQwCzAhCgehu/V4Fv66ovcuEZUWDqHfdXd3nzSDbWVMarg67Q2xig2G1H3+qGy5QT2nY3k8nrfF7l9adIj9NpfLmaKtxXFck4xOpiIhVrExULDPn+4TkycnJ+8V+yCUKhxiS97H4/G/MJPN+c4mybUiP9F9NUprHSJ3n7/+/v6fZ7NZI0J0ilLdUCm1oRnahYvJZrMr5cYqYl/FOsLMMX98LSjZDZUiQn4/Cqt/CIuEWMX6QGHM300GPqKiWrAknoe3FnVAbZ6ent6RTCbXmaRJcJOCZUCwr6LV4DiuSWbMX8noToFqbaWSwpqQP6hQKLQumnpXDIVCT1q0c6zIv09gBfjuftMv5dfd3f2G0lqwynhhMZVKrRbovClOTEwEzfKuEKtYh8iM+StqEfOnhFQqtVppW1CCCEXT+OEQM3ktS/h2rOS2olEBzUAGyWRynYIpU1+p1fPyhUhxLShBhKJ5z2QyDrO9Q34Km9xYxVtQ+k2Ago1OfsrP06wZYuN8JRmHUhHy7VHTUSgUWgOBwE/l5AXLLtaQTCazyqh9/jSutd1qOmQ0EGEpGo0+ZuZ3KzOcrIh9FWuAjIDS8pg/U7hg/FiZ6CRtvUXIdwpZ4SMrd1/Fv4I69HdXPqdgG2hTLa0wODj4nEa1oNI24cK59dbcKBJRcXBw8LAWS4yACsTj8S+TSfb5U0nRDCKsZeyhER1vfHkBWlFt6b/Fh1mX28tkMnaziJBl2c0WLAdPymkrIlZRA8wU86dRfraQyqEJqeOE1dqNZu0hrYbMBZgRq6gGfp8/yeIbHBw8bPYl2BmGuVOLWrCawKT8hu/csnLfwCFCrKI+mDHmTytisdgujUVYrFabCt2vHkKF5A5lqN2UpyGQG/Pn8/l+mc1mHRbKX1BLEaqpLeslXi+bza70+Xy/JHmxig9BbYvI5XIrFMT8Wa4QTU5O3mcWEVrZHa0EH8yMfRUVtpP6SX7MnyWXP0gkEltF8nXaSBHyAcX11pRZU229HkKs4mco2efP6o3rVCq1VuSDU9RagCJja0W+57leO/Vkxyo23L6Kcvf5s9vtH9ZRN7NhIhS7VyaTqWtXjGXZW6mOhrc0pRb7/JkJsUnnRrmiZKFpa2q9raGhoR/KEWJdxyomk0mPWAgPVY7521FvduD3bdBkwF7s8Pl8Lwvdhy+YDYOMfRVLRFS02+0f1l2sotx9/vx+/7F63TCEf7mCtvB6vb/V2xXlJw00FIVC4XN+v/8YyRjKqIt9FRXu8/dgvRcIoX3oyz9COgmwRETFenLv5aIwDM6a+ypWW1m6UmYbZTaD2FAFqRyyqGZzswf0GkE6nV5TZaEtUwaEy6r2A4HAiyQv5m93oxUEqXshygn0lWJr7AuovJnExyqa2378Pgg13efPQh+rZSQ/HKlot9s/XBCd0+nMyjm/EVx9BW309QpiFW83ZWZkxvwV+aGKRi8AnaQuLlDywa9IAATgy6Nke5oqVhELuOrfPlR7WGFNGRO9C7kLR9d25pHMmD9r+NQ1con0qhF7e3t/1XBTslT2achcx6jE68Dw3qXVcifKWqp3ySIuEVWfa/sdWFUZcnv3PR7P2+l0eo0hDyc35q+3tzeezWaxJqREMpmMgx9GUFwzhkKhJ7HRpnqy2ayj2pguGRlil8vl7HJj/rA6sjri8fhXIpHI9/i96EW/wkNDQ88wDHNnrVcXr0f4cixng9lfaB6rqCDm73QqlboZr087OI5rSqfTq1mWvTWRSNzGsuyt6XR6NcdxTbCO/qRSKXdNYhU5jmsx+z5/ABgJX74l62FoaOiHijvGFHbXYmk5UPewLPvnpPewnNyOAVVqB8CazYMWPiRMcoiUpHm7yWTSUzdTeAAwAL78q5qqaVv4x+jo6O5wOPxk+d+k+McbNmz4r4sXL7ZVOE/oOpX+XqpyK5vF31VJ52tqZR+bSfJvU/H7kgG2v3rtFStWXDx79mzXnj17/lnOeaOjo+FwOPzZ1DeZYyE4cODQaDbTQg0YgkFw4KjNMTo6utvmcrn+Z3Z2FkuDA1ADXC7XBZvOPjMAoApLENcHQO2IRCL/YisUCjesXbv2vXw+vxImAcA4nE7nB+fOnXPbiP5/kdRDhw5949y5c2JrLS64rbbW1tb/ffbZZx+emZnprPTDYDD47zfffPN5jZ7Vtuj+V5+BYZi7E4nE9konBQKBqS1btvxn2TVKGj+PFBrF1de9WXPq1KktU1NTFffP8Hq9r/n9/v/gOO4GPe1+/vz5m2Ox2N9USvN4PP/9zW9+8984jmsVsMc1/+/s7EwNDg4+39raOq/4gcQWl+WXINcdfgaC0IYn9+FbWz/w8X01XUGOj6IXjJxQ3CbUo0a4fPmyIVPYyr581/HHP/5xGYpu/SD2PsXKgZaIlev5+fmWWohQK5cNACu53ZqjRoQlk7eFMPQCLFGmlsCuANQWiBAAiBAAiBAAABECABECACBCACBCAEAdiRAzZgBATQgARAgA0FmEcDkBQE0IgGmwQYQAmFhoECEAcEcBABAhABAhAKAS2GrZQqTTaXr99dfp3XffpVwud126w+GgNWvW0G233UZutxsGgwiBVjAMQ7t375YlLI/HQ08//TT5/X4YEO4oUEo2myWv10t+v59mZmZknTszM0N+v598Pl/FWhOgJgRVSKVS1N7ervo68XicHA4HpdNpuKgQIZBTA2ohwHLcbjcVCgVqa2uDgRvEHcW8UhXcc889ulz3/vvvh3HrTIRYXFcHGIahRCKhy7WPHz9O8XgcRoY7CsSIRqNVf7N3715yua7fXHl2dpb27Nkjeu7jjz8OI0OEQIhMJkMdHR2C6f39/XTs2DFqbW0V/A3HcdTX10cnTpwQrA3RNoQIgQBvvPGGaPoLL7wgKkAiotbW1qoiY1kWxq6TNqHZsVznUCaTEUwLhUKSa6+2tjYaGhoSTP/ggw9Q8iFCUIlLly4Jpt1yyy2yrrVp0ybBtPfffx/GhggBAI0gQgyhAEvQBAGoJ5fL0dmzZ+njjz9W/iKamujo0aOC6WfPnqV4PE5XrlyRdK3nn39eMD2ZTEq+lhDLly+nDRs2kMPhgIpMKsKGEF4sFqMf/OAHhhTEAwcO0IEDBzS51tjYGI2NjWlyLY/HQ48++ig98sgjGPaAO2ockUiEHA4HhcNh2dEN9cbMzAyFw2Fqa2uTNNEAQISqSKVS5HQ6ad++fTBGBUZGRsjlclE6nYYxIELtYVmWOjs7aW5uDsYQYXZ2ltxuNyWTSRgDbULt0CO0qN7p6urC9DjUhNqxc+dOGEEBDzzwAIyAmlA9k5OTNDAwUPV3drudAoEA3Xjjjbo+z5UrV+hHP/qRYPrQ0BA1Nen7Wi9dukRTU1OUz+dFf8cwDE1PT1NfXx8KEkSonGoC3LhxI/34xz+mnp4eisViNX/e8fHxqpO8tWwnP/TQQ3TmzBnB3wwPD6MQwR1VTrXg2v7+fjpz5gz19PQY9kyFQkE0neM4w56lp6eHzpw5Q729vYK/mZmZQSeNjiKs+yUsXn75ZdH0Y8eOoQQR0UsvvaTKjnUCdmUyWoRGun1mp62tjUZHRwXTf/3rX8NIEKEyzp8/L5h25513wkBliLmkf/jDH2AgiFAZH330kWCa3W6HgcpYs2YNRKiQho+iyOVygitUb9u2TfC8YrGI0iMRjuMolUpVTHM4HA0fidGwQxSFQoEeeOABhOIYwNzcHHV2dgqm+/1+eu655xp2dk3DinD79u2i41vAOBiGoTvuuMNGDRqI3ZBtwkQiAQGajJMnT5YadRW4hhQhdikyJxcuXIAIAQAQIQAQIQAAIqwpkUjk6r+dTicMogHlm9eU2xdAhBURWwUbKKM8sqOO7VuCCAFATQgAgAiB1bFBhAAAwz8SEKFC9F7QSYhqk5xrNQlaA3vYGrUsQYQ6iQH2gBAhQmBFV89m8edXBJY8BGYpwFaoEHQJtYIIAbwyZNxcZLNZSiaTxLKsqk00wWdcuXKFWJalZDJJ2WxWrCZsyDYhasJFHDlyhI4cOQJDaEg+n5eyQPJSIjL7wj02K4nQqGUKsC99/bQHlzZqeWvS6UHr3q1IpVL0+c9/HhLief/990UXc5IgxCYLfFSXWEWEtp07dx7zeDyXJAq2vJovVfn6lMpEvuTgwYOKNg1saWlRnUm73Y6xwkVtaZWFu6mlpUVRI/zgwYN/5/F4BviysUTAdSzJdC9ti8vmzp07b9CjltTFHZ2dne0wc4FZv3696mtg3VHN7LHgjjavX78+r7DNuSKfz6+wqu0asnfU7XYjuNRkbcJoNPqJ2+3mGtEADds7um/fPpqcnKRDhw7R/Px8xd8wDAOJaITf76/49+bm5tKDDz54eWBg4JNGtU1DD1FU2wDU6XTS3NwcFKQSl8sl9kErTk1NNbRvj8F6oDtGblyKmhDIhmVZeuaZZ2qyIvjGjRvpW9/6lqE7DQODRMgwzF1f+tKXXi0Wi81UfcxQyh4E5dcoEVGxubmZ++53v/tPY2Nju61q/MnJyZoK4MSJE3TgwAFiGEawzWYFQqHQ04899tg/zM/PN5WVp0rDXjaBf1cte0uWLLn8u9/9bpvf7/+FJUTocDjm2tvb83obPxKJWHbpLo7jTLPTr5UFSER04403XnI4HLqXt0QioUsHgV5tQqNmzFh2Zs65c+dM9TxC+wdaBEuXN6t3zFh27uiqVatM9TwrVqxAOajRfdA7WiM6OjpE93k3Ep/PRx0dHXgpNcLqIrT0RPGXXnqJuru7a/oMXq+XfvaznxHKQe3uo6ZjBmFEKlmYAM6yLF2+fNnw+7e0tFBPTw8motdYoBgnNAEYp2tsIEINWdjuWa6o0uk0vffee4Y/70033URut9uQPAKIUFdSqRRt27btmoKZSCTI6/WKnsdxHN13332yhaAlfr+fjh49WnXMciE/C3l0Op302muvqQnkBRChdlQqiF6vlzKZjGiv41133UXxeLymz84wDN19991Va+rFH4q5uTkIUCMwRKGS6elpwbQXXnhBMC2TydRcgAscP36cMpmMqFCV5B9AhIYwOzsrmHbhwgXBtIsXL5oqH2LPI5YPsfwDiNAQduzYIZj21a9+VTBt7dq1psqH2POITSoQyz+ACA3B7XZTNBq97u+BQIB8Pp/gea2traaJ3GcYRrRjpq+vjwKBwHV/j0ajNe1UqhfQMaMBIyMjxDAM/eQnP6F8Pk/33nsvBYPBquf5/X5iWZb2799Pv//97w1/bjnxhFNTUxSLxejFF18ku91Ou3btor6+Prz8GovQBvNdK6jyAisVM8QTSqX8wxKLxfDS4Y7WllptEgp7oCYEPPfff7/lg2G1tgeACA3l+PHjMAKouTuKNiGQhFmW8Wi0NqHlBTo6Ooo1RzVidnaWRkdH6z2bNrOJ0NKxhsFgkMLhMNSjIeFwWNKwjcmx1PIWlq0Jo9Eout91IhaLVZzY0Ai1nRjomClDSvgRUMfIyAixLIt4RANqQkvy7W9/G0YwyDUFjVETynIdKsXMLcbr9dKtt96KUlOFN998kxKJhGD6iRMnJNkbImwwXnnlFdH0eDxOPp9PtHCBz5ienhadW/r6669L2f4A7mgj8c477wimRaNR0YgIcD19fX2iG7GePXsWRoIIr0Ussnz79u0wkALEYg0LhQIMBBFey8qVKwXTXn31VRhIAWJ2w1qn+rcJLefrr1u3TjBtZGSEkskkdXV1ocRIpNowhNlWFqhHEVoOsaUoiIi6urpocHCQ1q9fD2NV4dSpU1XHAXfs2IFOGQ1EWFcTuN1uN3V3d9PJkycFf3PkyBGUGA3wer1KhifqVrRoE5bxxBNPwAgG8P3vfx9GgAgr4/P5KBQKwRA6EolEMDUQIhRnbGwMEfM6MTg4SPv27YMhIMLqMAxDe/fuhSE0ZHR0FG1qiFAee/bsoVQqRUNDQzCGCkKhEKXT6UaYtK2446gJRhGmfMOThbmjlbDb7ddFji9dupTeeustIffL5vV6S8PDw/Tpp5/W3FBLly6lAwcOCM6LjUQitGnTpuueNRwOUz6fr3jOgr3GxsZobGwMX6MGFaGmbN68WdiITU308MMPVyyIi0R4dVjnC1/4gi0YDJqm2z0YDAqK8Gtf+1rFD5DT6VRkr0b+sMMdVUGxWJR9zpUrVyoJ0EZESziOM9U4K8dxUvOhm73QJgSKEVoQqsI+9Dbe5ktaW1tNZXuxFdEq5EM03zphgwjlVc1GuVmGuXPVVphOp9PX/a1CjKJtQYhtbW2mKlRiE6orxVqmUilV9rJqObBMTdjS0jJv0NebM7KQulwuwfSvf/3r14RDTU5OlrcHFwvOtnXrVlP5a1u3bhVM27dvH01OTl79fyaToXvuuUfw9y6XS48oiVKty4Fe5VqXjplHH310v9/vz2ngQtgqFOISEZWam5svHz582NC1Jnbt2iU42HzmzBnq6Oig3t5eevPNN2lgYECsMJV27NhhKhHefvvtoukDAwPkdDpp06ZNoluAExE98sgjNDIyYtizHz58+KFAILBlfn6+RWGZs0ks16tMVYX6fL74QoEy4xGLxR7UOs/VXDAJL3oJES31+/1LzegWabV6QCXXXC38+zRteeP1YKo2YV3S2dlJw8PDal2q0hNPPPGpGfO3f/9+1dcIhUJYwMkMbcJ65qmnniK73a5YgOPj40WzBgd3dXWpWq7e5XI18sB8yXARbtiwIWlmi7hcrlmdOoMU76objUZNv7ZpOBwWXaBJCKfTSadPn7bc+9SKzZs3nzL8pizLbjGzj653/jmOkzWv1Cz700ulvDe0GipddDkUzVreWJb9Yq1eVMBsxvB4PG+n0+nVRtkgmUwKFkKPx0OxWEx0NoqZ4TiOJiYmBIdmQqGQ2s4quR0+qz0ez9tmK3MMw/SryZdNgxe19Ny5c3/2ySefLNfqmkp9cbvd/mFnZ+c7tSq06XSa5ubmyG63k91up/b29rpp8GSzWcrn85TP58npdNa08yWVSq3N5/OrNCjLJTXnL1u27ON169adb21tnScAAAAAAAAAAEAB/wdVA0BGLfvZxQAAAABJRU5ErkJggg==;" vertex="1" parent="1">
          <mxGeometry x="-30" y="-350" width="1020" height="1020" as="geometry" />
        </mxCell>
        <mxCell id="Fq7706VyEmhTDiXR55tR-2" value="&lt;font style=&quot;font-size: 16px&quot;&gt;Emergency manager :&amp;nbsp;&lt;/font&gt;&lt;span style=&quot;font-size: 16px&quot;&gt;&lt;font style=&quot;font-size: 16px&quot;&gt;Last bulwark against the flames of evil&lt;/font&gt;&lt;br&gt;&lt;/span&gt;" style="shape=rect;html=1;verticalAlign=top;fontStyle=1;whiteSpace=wrap;align=center;" vertex="1" parent="1">
          <mxGeometry x="230" y="60" width="500" height="490" as="geometry" />
        </mxCell>
        <mxCell id="Fq7706VyEmhTDiXR55tR-1" value="Captor" style="shape=umlActor;verticalLabelPosition=bottom;verticalAlign=top;html=1;outlineConnect=0;" vertex="1" parent="1">
          <mxGeometry x="-140" y="395" width="30" height="60" as="geometry" />
        </mxCell>
        <mxCell id="Fq7706VyEmhTDiXR55tR-3" value="change intensity" style="ellipse;whiteSpace=wrap;html=1;" vertex="1" parent="1">
          <mxGeometry x="240" y="380" width="140" height="70" as="geometry" />
        </mxCell>
        <mxCell id="Fq7706VyEmhTDiXR55tR-4" value="" style="edgeStyle=none;html=1;endArrow=none;verticalAlign=bottom;exitX=1;exitY=0.3333333333333333;exitDx=0;exitDy=0;exitPerimeter=0;entryX=0;entryY=0.5;entryDx=0;entryDy=0;fillColor=#f8cecc;strokeColor=#b85450;strokeWidth=6;" edge="1" parent="1" source="Fq7706VyEmhTDiXR55tR-1" target="Fq7706VyEmhTDiXR55tR-3">
          <mxGeometry width="160" relative="1" as="geometry">
            <mxPoint x="330" y="560" as="sourcePoint" />
            <mxPoint x="490" y="560" as="targetPoint" />
          </mxGeometry>
        </mxCell>
        <mxCell id="Fq7706VyEmhTDiXR55tR-6" value="Fire Intensity Increase" style="ellipse;whiteSpace=wrap;html=1;" vertex="1" parent="1">
          <mxGeometry x="400" y="190" width="140" height="70" as="geometry" />
        </mxCell>
        <mxCell id="Fq7706VyEmhTDiXR55tR-7" value="" style="edgeStyle=none;html=1;endArrow=none;verticalAlign=bottom;exitX=1;exitY=0.5;exitDx=0;exitDy=0;entryX=0;entryY=0.5;entryDx=0;entryDy=0;" edge="1" parent="1" source="Fq7706VyEmhTDiXR55tR-3" target="Fq7706VyEmhTDiXR55tR-6">
          <mxGeometry width="160" relative="1" as="geometry">
            <mxPoint x="290" y="560" as="sourcePoint" />
            <mxPoint x="450" y="560" as="targetPoint" />
          </mxGeometry>
        </mxCell>
        <mxCell id="Fq7706VyEmhTDiXR55tR-8" value="New Fire" style="ellipse;whiteSpace=wrap;html=1;" vertex="1" parent="1">
          <mxGeometry x="400" y="380" width="140" height="70" as="geometry" />
        </mxCell>
        <mxCell id="Fq7706VyEmhTDiXR55tR-9" value="" style="edgeStyle=none;html=1;endArrow=none;verticalAlign=bottom;exitX=0;exitY=0.5;exitDx=0;exitDy=0;entryX=1;entryY=0.5;entryDx=0;entryDy=0;" edge="1" parent="1" source="Fq7706VyEmhTDiXR55tR-8" target="Fq7706VyEmhTDiXR55tR-3">
          <mxGeometry width="160" relative="1" as="geometry">
            <mxPoint x="390" y="325" as="sourcePoint" />
            <mxPoint x="380" y="310" as="targetPoint" />
          </mxGeometry>
        </mxCell>
        <mxCell id="Fq7706VyEmhTDiXR55tR-10" value="New Mission" style="ellipse;whiteSpace=wrap;html=1;" vertex="1" parent="1">
          <mxGeometry x="560" y="280" width="140" height="130" as="geometry" />
        </mxCell>
        <mxCell id="Fq7706VyEmhTDiXR55tR-11" value="" style="edgeStyle=none;html=1;endArrow=none;verticalAlign=bottom;exitX=0;exitY=0.5;exitDx=0;exitDy=0;entryX=1;entryY=0.5;entryDx=0;entryDy=0;" edge="1" parent="1" source="Fq7706VyEmhTDiXR55tR-10" target="Fq7706VyEmhTDiXR55tR-6">
          <mxGeometry width="160" relative="1" as="geometry">
            <mxPoint x="390" y="325" as="sourcePoint" />
            <mxPoint x="410" y="235" as="targetPoint" />
          </mxGeometry>
        </mxCell>
        <mxCell id="Fq7706VyEmhTDiXR55tR-12" value="" style="edgeStyle=none;html=1;endArrow=none;verticalAlign=bottom;entryX=1;entryY=0.5;entryDx=0;entryDy=0;exitX=0;exitY=0.5;exitDx=0;exitDy=0;" edge="1" parent="1" source="Fq7706VyEmhTDiXR55tR-10" target="Fq7706VyEmhTDiXR55tR-8">
          <mxGeometry width="160" relative="1" as="geometry">
            <mxPoint x="570" y="330" as="sourcePoint" />
            <mxPoint x="550" y="235" as="targetPoint" />
          </mxGeometry>
        </mxCell>
        <mxCell id="Fq7706VyEmhTDiXR55tR-13" value="Wait for the truck to arrive" style="ellipse;whiteSpace=wrap;html=1;" vertex="1" parent="1">
          <mxGeometry x="550" y="110" width="160" height="120" as="geometry" />
        </mxCell>
        <mxCell id="Fq7706VyEmhTDiXR55tR-14" value="" style="edgeStyle=none;html=1;endArrow=none;verticalAlign=bottom;entryX=0;entryY=0.5;entryDx=0;entryDy=0;exitX=1;exitY=0.5;exitDx=0;exitDy=0;" edge="1" parent="1" source="Fq7706VyEmhTDiXR55tR-6" target="Fq7706VyEmhTDiXR55tR-13">
          <mxGeometry width="160" relative="1" as="geometry">
            <mxPoint x="570" y="330" as="sourcePoint" />
            <mxPoint x="550" y="425" as="targetPoint" />
          </mxGeometry>
        </mxCell>
        <mxCell id="Fq7706VyEmhTDiXR55tR-16" value="It&#39;s heating up here" style="shape=callout;whiteSpace=wrap;html=1;perimeter=calloutPerimeter;position2=0.17;" vertex="1" parent="1">
          <mxGeometry x="-130" y="340" width="120" height="60" as="geometry" />
        </mxCell>
        <mxCell id="Fq7706VyEmhTDiXR55tR-17" value="The smoke settles here" style="shape=callout;whiteSpace=wrap;html=1;perimeter=calloutPerimeter;position2=1;base=20;size=30;position=0.5;" vertex="1" parent="1">
          <mxGeometry x="-270" y="340" width="130" height="60" as="geometry" />
        </mxCell>
        <mxCell id="Fq7706VyEmhTDiXR55tR-18" value="" style="shape=image;verticalLabelPosition=bottom;labelBackgroundColor=#ffffff;verticalAlign=top;aspect=fixed;imageAspect=0;image=https://i.pinimg.com/originals/d5/92/b0/d592b099af8623be202b7be634b11507.png;" vertex="1" parent="1">
          <mxGeometry x="-150" y="408.29" width="47" height="55.04" as="geometry" />
        </mxCell>
        <mxCell id="Fq7706VyEmhTDiXR55tR-23" value="" style="shape=image;verticalLabelPosition=bottom;labelBackgroundColor=#ffffff;verticalAlign=top;aspect=fixed;imageAspect=0;image=https://i.pinimg.com/originals/91/95/8e/91958ed5cd0e2c0e9c988c6cb38b35fb.png;" vertex="1" parent="1">
          <mxGeometry x="602.5" y="363.33" width="55" height="38.81" as="geometry" />
        </mxCell>
        <mxCell id="Fq7706VyEmhTDiXR55tR-25" value="" style="shape=image;verticalLabelPosition=bottom;labelBackgroundColor=#ffffff;verticalAlign=top;aspect=fixed;imageAspect=0;image=data:image/png,iVBORw0KGgoAAAANSUhEUgAAAiUAAAHHCAYAAABgCSj/AAEAAElEQVR4XuxdBYBbxda+8azv1t1LhUJxaanBj7tUoIK8BzygD5cCBSpIW6xAjbZAnQpuhQdUqFGgpUK37r6V9d14/nPm3snezWY3k+Qmm82ewG2yydyRb+bOfHPmiCTRixAgBAgBQoAQIAQIAUKAECAECAFCgBAgBAgBQoAQIAQIAUKAECAECAFCgBAgBAgBQoAQIAQIAUKAECAECAFCgBAgBAgBQoAQIAQIAUKAECAECAFCgBAgBAgBQoAQIAQIAUKAECAECAFCgBAgBAgBQoAQIAQIAUKAECAECAFCgBAgBAgBQoAQIAQIAUKAECAECAFCgBAgBAgBQoAQIAQIAUKAECAECAFCgBAgBAgBQoAQIAQIAUKAECAECAFCgBAgBAgBQoAQIAQIAUKAECAECAFCgBAgBAgBQoAQIAQIAUKAECAECAFCgBAgBAgBQoAQIAQIAUKAECAECAFCgBAgBAgBQoAQIAQIAUKAECAECAFCgBAgBAgBQoAQIAQIAUKAECAECAFCgBAgBAgBQoAQIAQIAUKAECAECAFCgBAgBAgBQoAQIAQIAUKAECAECAFCgBAgBAgBQoAQIAQIAUKAECAECAFCgBAgBAgBQoAQIAQIAUKAECAECAFCgBAgBAgBQiA2COhiUwyVQgjEJwL24yctvGYeeBp0XrjgC3hjL/ys+p5/Lbl1ks7glZOp0/Lv8Tuejxc+6JVElX2P+UA5Oigfk/uX7/teVVfhtCHUVafU1dcupS7lvg9QV5ZMwQrrhW2vDCs25+DvKqx0+DfeVkn5mLkOMPTlWQVWvj7kWGE5eG8V/eobnJBWUvVroLryfvWva8A2qLCqdFz5MpT7XefR6zzJ9es64/OJoVoRAtFFgEhJdPGl3OMUgbwjRzK/+/DjcduX/d7X63XjkgWLjNfDFlcvrGE6D657+Be8eT2wWOCipmN/s0Qe+FuPqwgkh89ePfxR9r1X8sAPelyfMQXLE99xXcXv5bRej/K9RymfLbrwnZynXD5+gQs2+x4/V5GW/c6JTxV1LdeGEOuqxgrrhFjxukZaPmsrx8QPKx+Gqr4SLh+7rpK6ButXf6xYX6v6VWlzuX7FuvK+AnzYuFKXL48jua9kogXNxvGE4JrTkk/37HvbO+dfd9Un6Q3rl8bpI0TVIgSiggCRkqjASpnGMwL5h49lzBv71ux9a/66UXICefBV1recK9+o5Rr+jwquM4yH4IqCS47yWf09z7iy3ysrz/8+/3T+Zar/DpS2uusaT+XHI1bYZ0BqkPPChZI5j1Evdeh28ecDX3xmYHKDevZ4fp6oboSAlggQKdESTcor7hEoOHw04+sJU6ds/t+yATqvS3LB/tR3JhD3tacKJiICTCLGzq9kQoliGCOKUAx6qeWF5y6+9bGHHmrcsf3+RGw7tYkQ8EeASAmNiVqDQP7ho1kfjXzj8+PrN/eRXG7JDYIOI2ziiZTUmiEQlw2VabEsIYF/mWKNQ29ghzkGODhseekFi+8e9cJtKfXr2eKyAVQpQkBDBIiUaAgmZRW/CJzYf7DRtxM+nLx96YpbUEOEaVVCdXEh4Eqo8Vt7qlliI4AqJjI1ZkpITI2o7F1nMEitLjz3pxsff+ihZh3a701sLKh1tR0BIiW1fQTUgvbn7T9Yf97IN78+sGHzpS7JzUgILgEelJS4JZCYMKVUhgT7TW06wvawJE2papjgsYNO1v8t9+JkD4lfVS9MpyaHssRAXpj5vf5pKssP6yEfg5S91HmwhV+gP3k+/vmJ3FtVWzkUgbSJUP8ZlK6hgrJuCSMm0BY9+1svdbzg3F9ue2f01VlpqUxxll6EQCIiYEzERlGbCAGOQO6Bg/U+f3/y9D2bNl+KRhA4vcsqhWD6CRITML8EE1A9CM3lV6AFtMLxDl+Z/Feoqv5W/xZoZavsd63Sal5XJUNGIBiFKNveKwdiAcmICju+MMumKYA97zSFFDLclfQsL0yj/FZucVcykt/k3mL2v8rtPFt+r/rpUOdT7nssh2UFo4WRBYFDPm4UrJSvCD989VHnoOZpOB71SOyYQbBMjvm9jBSx/DzSjs2bLv/7y+/+DX9OVdeVPhMCiYRAkD1MIjWV2lLbEDi172DDj0e98fmJTVu661xAQGC0I/3AXSdfENluHNYBEJaw92BLD1ss1AujSsyu/p4lU37zLTL8vgDfY8G+hZTnKa+J5b7ni3TQtMq91VZXueo+qQSbaNRYBVi4YzE+q+uoruqJVibKfPyB7XhAEoQExWM22G565MFHew7uPy0WeFEZhECsESBSEmvEqbyYIHBi955mX70/ZfquVX9c7XW7ZZcdARgHewDwJ1AsbHPu2ctS69c5IHm8BlgA0HOE1+1ymTEJLhTyqso+IMHBAx+2mrDP5b9nu37lO9RbRJUB9o5V4GnV3/PfFQLD8mTCAXkhl4UGSh5VpGVlKE3yryv7W1VXcJLC2qCuK5YFvlN8dfW1q3xdsXJMQ1h24oI3YP1gVfUCuwOdHb3X4wEfZLzpsmyKeRszSG63w2WVJSuYB5ewYAJwDuOFTNweA7qRY77SMBMmQYADNvjscrrMrH4yu0RHbXKblT5wuF1GkGrI32Od2CdZ2CC5vUY3/F7JpOfFOrugbC7MQZ4gtxFrCj+73UZeJhvEMgwGxMzlAbVpl8cMZy1w/sL6CvyTyMIf/Ox0OiwwroxwFMP5qiL7kWmj02ZPLy0szACXLxWGqTxGZRkf/p9UNzPvynsHPd1jYL+PYvIwUSGEQAwRIFISQ7CpqNggcGLvwUafjhj93YEtO843uDzsiAYn9Ao7UIWn4KoiNaq3+9n3376sbvtWx2JTSyolkRAoPXUaKBX6kJMZGpO8KbMrSmccDodFr9d7GGFiDEkmt4zLwU2O06cbTHpx5OKCA4c7+kiRP0CqH7wWo/3WRx96pPtdfYmYJNJAorb4HgyCghBICARO7j3Q8PPxEz/Zt2LttW7QIZH38FxEUnG6N8Aa0rjrWav7P/v4nY06nXEgIUCgRtRIBHavXXfep2+8M6fg4OFOILWpvA2KcMmSlVl09b8HP34ZEZMa2d9U6cAIkKSERkbCIJCze2+zaa+89kX+1p0XwpaUeWSXCQn3vIpHFbI1A+5k3eCcKrV+3aP/eW/MxY06tD+YMEBQQ2osAkV7D2W+9/Tzy/P27D8bJ2c2jgNYNvEGgsTEefPQB4f2GNSflF9rbK9TxdUIlM3WhAshUIMRyNl9oPGX702Zlr91x4Uwk8u+R3yTeZkyCSMkjKfopGZdO6968O03uhEhqcEdn2BVT23dLK//04/dl9W65T8ShFPC8Vq2c1Qd+ijt1tldpp8/mfv2yjkLH0gwKKg5tRQBkpTU0o5PpGbDkU2jj1969buTW3eerwOlVm5Nw/2N8EMbpmephGHRNay7/79vv9G7aeeO+xIJC2pLYiBQsPtA3feffH554f6DZ/IWqU2sud8W/I1JVCxG162PPfxg9zvv+DgxEKBW1FYESFJSW3s+Qdp9as+BBovemTDj1LYd5+vhHB5dx3OnW2qTVGbsAW12g21Fo65dVj/x7rjuREgSZBAkYDPS27Y4ddfzTw5ObdV8kweOGeVQxvIekpEQ1XaS/WZ3GX+cPvP9lXMXoR8TehECNRYBkpTU2K6jih/du7/ph8+/8l3Jzn3ncFtWoxt8tuqMoEWC73omGUFbUnSbhkHOrA3rH/nPO2MvadS5HemQ0BCKewRK9xxK/+DJF1bmHNh3ltoZG6+42uOs4sfEdcPQhx7uPagv+TGJ+96lCgZCgEgJjYsaiUAO+iEZP/nj3av/vBI8SHBfG8wfiezhAnRH4F88reF+Hpqcc+aqvs8+NrBpxw77RRpdeDrX6PG40d+G7CxDPgdiEeaZ5wzFT4niw4NlKe9oFcdhVThP86WVxTmycwqWYZnTNVZvLu6RvXxA6W4wPTWANw/0MlK2azboDW5WMVZRry49s46nMDeP+3qT0rIyA3hpEUGB0lQ3AjvX/HX+ojffm5a7/8C54MkFOh1HttKdyhjg7l6ww031sgpuHDJw2MVD+k2u7rpT+YRAqAgQKQkVMUpf7Qic3Hewwccvjfzh5NZd53vdKtNJHxsA1/Gg7OpET60wSTNlwYb19j329uu9GnfuIGT2m79tT7MpI19dUHL6dBOPXu+ENQCdaqnjpJW5/VIQ8TM45v4o2K9QD6QRjCMp6Xx0gzvpUshJ2TOp+MRHbpNktZaCjwtwyAW+ykCeD07KeMN1bo9Hn2RNKtHroNXokIzxG/Bf5nVD04HMwGWF38tcY8gVxu/d4BDMaLWUmIxGlwfyQT8bvgqgwzK4TGazjTtP487X8B3rYzYYnXqT0aG0EZ2z+V7ol8NssZSAm3ZwFSPbQnGooCyDTq93W63WYswLmB/TP1Y7ojNZLcXoMI3VE62mfN7YdOChzKNLsSYVoXEKOG8Db3cIL/P8xuplMBrtcDnYkR2kBsBY97HfPR6jWW9yGa3GYi84VINF3g1WLr6jbKg3MD8FyACjHU8IeXBpvInbeKn6Fe29EEjgjjAUwR0c85MDPQHM0c2c5xn0rtYXnfNdeqNGdpEHKn/PgawPnnx+Wd6Bg2CVo2K7ys3q+ENMp8po9Nzy+MP3k46JCLqUJp4QIFIST71BdQmKwMm9+xt+9s6EWbvX/HmVAaZ6XKzKljp5hcCFAiZ/cLUpSy6adD1zzV3PPXVHg47tjgQroDQvX7ds3mfPrf7qu0cdp/Ia6z24/MkrTDRfakJT1WfZ8wqP8FImlVF7HJLZjioXboUUKH4Lui5X2Ba2z8e0QmwuTx7QI4z6R7982ZGDLIliL16+7zN+V0bfFArgY598Sa5wM5OY+X5V3O2qRFJl6JTLXKiLRfuKtUVxWosZ430e5uiVNdh5Zo9Lvrjj8Uf+nd60SZFIwX9+89NNX73+9hcuh83A6S2OB/8XloMjxFwns/jq+4Y8cdlAOsoRwZfSxAcCIU498VFpqkXtRAD8kDSd8sIrPxTt2n82+hlxcV/iDA7uML0MGx2Iuc2N6h8Y+u7raPZ7WAS17yZOe2HFrAWjJbtDz5VmOR+RyUBsTkH4ztc/Aq9Pr0C1MgbiS+zBFqxqpPdXhis/yhKph5+UKUhXKSZUuPiWiwpc9r3aOkX9mZMDtRI0W8QFscL7K4torCZUPNKxuhw2ShWizDzYGwxSRqczVj3yxqhrM5s1LhQZnz9NmPbs0s++fM6dX1THF8nYv6vVY8NidN809MFHeg7q/6FI/pSGEKhuBMj6prp7gMoXQuDUrv2NwA/JdDCVPBsXEJSQyIyaryZlxzgoGMAjmybndFn1yJuv9RQlJBu/+98tv81b9KLX6dAzETguIMpCwva3ymf8hL/xd3ZEpPo70O/qtP6f5Z1t+Yv7p+DvFdKoBURK2ShS4OlEQOVOuXjdffXm5xGVZFKVMy/1LWyh91vsK7vXnxNgusrLKZu2ykfvVTnJU223KkQrViRHvEzl2IiRDZGLExNO5lgz4V6ejz/JC8R3PKgXAkeMudt2df/mgylTj23d2Vykz64eev+4+159+bqsNi02qqVB5e9VGo8iGbvL8MuMeW+BH5MHRfKnNIRAdSNAkpLq7gEqPygC6Dp++suvfnN6646L0DEaX4gqiOCV0PHs+8b19z711hu9GnU+Q8jKZvMP/7vpywlTpxYfyWnIo7WGsnsO2ogqEvB28Ai2fCeu9rPCzZwjKSeW93LpA29DLMuuKWVxyQr4SJMMjerveuztN/o07HjGIZH65+/aX2/iU8+vzDt4uAM70gNlb+652F8yhH+7rWb3rY/95wHSMRFBl9JUJwIkKalO9KnsoAic2nuw/qJ3Pphxeuv2izCCqvrFZSUsgipKR5CwwHuTrp3XPvbeuB4ihKSoIE/344TpL8589a1Pi4+dYIQECQBzsoa7X38RRdAah57AJ+tRduq+nbiSFd+B+3JWbyX450DiFtGqVJKfb8evzlswT5/UQDB9Yiar+kzIR3pRKfvYiXafjn133vFtO5qKYJHRruXJS2+74V3JDAq7rKMgsLJyIz864vmwv+0Ow2LwY7JqHvkxEcGX0lQfAiQpqT7sqeQgCOTs3t9kygsjvi/eteccVBgEkwhgCYEDlbGjFjCwMDeqt3/ou2MugyMboR3nV5OnPb92xsLXXQ4n1KbycwuuCxCC6gH1LyHgQ0Ctb+IPC5pxG5jZERxZNaqz8/G3xvyfqJXYjxOnPbdiwVcvOQoLU8okhzJFcTNbsbLS2O9mo/fGoQ8+1HMw6ZjQ8IxPBEhSEp/9UutrlbN7X5Mv35v4UfEudIwmW9PIFrXwCqA4gRN6U/DU+sibcGQjQEhKwMrmh4nThq+esWCUy2lneZfZtCjwq6QQHqaHEAcc3l8y4o9HHFQxqoO3BrWvnACK6/0EAAci3DBPxIwSHz/VfsFb780+nL2tlQiO1zxy/9gho1+4NqNV020Yz0l+KVZpSpnlIHO4dD/PnPvmCoqVIwIvpakGBGrQI14N6FCR1YLA6T0HGk59RdYh0bnAMRoeqbCzlPK2Lz7zVZiM9Q2y9j3+1tjeTc4M7hjNlperWzpn0fClcxcN15XazTLhUZnX8lZjkZyKkIikWsaCulB/XYlqr1CQCqglF4GS8vb4rLrgBrQq8xjAAVqj+iAxeePyBp3EdExy/tna5q0HH9usK7YlI8HB48cKCr5IV3CsowAFrHJue/ThB7vddcdH8Y4j1a92IUCSktrV33Hf2iNbd7RdNP6DmadAhwSVWsH9lyyfULy0yuRB/g4vvd4gNT37zFVPjn/rMhFCghKSpXM/e2HpnIXDJZvdzKxsMH+1JKRswymXw3acMitRy0uq+hxOWhUX8vVTud22wCIYKI+47/QqKqhuf5lpthYtqgaW6WuMPHK4yTQe37CxDFXiOk3Ooyfazx337txj23c1Fmltgy6d9vS5645R3iQT+AxkLN4n1/MJ1xghkcUnBrvbsPijme+tnPv5v0TypzSEQKwQIElJrJCmcoIikLN9Z6txjz61SjqV3wR3jGzZUCZR/IzO0NgBDt9RWs2unrff/M5lt97wdla71jnBCkBCsmzuoueXzF74ss5uswRLT78TAtWCgCJiwSNJff26ux5/+40rgXDvE6nLpu9/uvHryR9NLDh8rHlFPRaf3M/nL8VpNTtvffjBoT0H950qkj+lIQSijQBJSqKNMOUvhMCuP9df8M3EaVN0J4GQuJGLoJmjspuFN24u69sBWsxSn8H9R15x/5BhQoQkHwnJwheWzZo/QudwWOR85N0qvQiBuEJAGfZoTSblnGq38K33Zh3Zsr2VSB3Pvv7qb/s+/d/BlvqZORAzoPwtin8W/BaPdnDsG+wO0y8zZ7+9cu5Cii4sAjCliToCNCVHHWIqIBgCu1b9eemHL434QSoozkSzX7UfErV/DjaJoqgECAlYD7zSZ1C/0cmZGUHl8CAh0f82e+ELS+YueMlrd5iDnfUHqy/9TghoiUDQ8QhkwtKowe6h76ISdzshz8Tfz5j7yKrJH09w2zFsE7xA6lLe0Rx+KZeMR5Mei8l162MPox+TT7RsG+VFCISKAElKQkWM0muKwI4/118IVjazvHmFmSghgcBovsNwZo2gOhtnZrlWs7c3EJLLBQkJVnb5nIUvLAVCorM7zeU2j6r4KJo2ijIjBCJBwKcEwhVTvZLt2PG28994+9ND23c2E8n6+nsGTux194BhloZ1jniNYFvGvP0qGfvyL3vW9HaX8aePZ7+7asHnQ0TypzSEQLQQIElJtJClfIMisPf3dRdNfOHlHw15hVnAR+C4pmL8GpaJspXUmU1wZDPglV6DQUKSEVxCgrdu+PbHW+a/9s4Cr80mK7UqAdKCileC1p4SEAJaIVCm6xEox7IYNyBFbNxgx5Nvvn5VYwErM8zr9LadzT948sXfSo8ca8XNjrllDlOuZcbwIClhSrBwgcTk5sceIomJVl1L+YSMAElKQoaMbtACgT1r11+48N0PZhtyi7JwSpbjrwBjUJu0KHyE6X6Am+w+Qwa83GdQXyFCUpKfq1s57/P7Phs/+ROPw25mkevhVUGHJFa+5LUAjfJIUASq3hv6jl1Asqc/euKMBW+/P/Polh0tRMCo07H9wcvv7Puq12JG3i/ze1VxSEg4JWK/2Z0gMZnz9qpPP7tbJH9KQwhojQBJSrRGlPILigASkqnDR/zoOZlXR60zwhXw2OTJlf3wXdYhGdFncL9RIhKSovwC/e8z5g//cf7nz+tspVafpAUn3Qq1K4sZErTilIAQiCICwXVL5AGMQRqNDevv/u/4saBj0lZMx2Ti1GErZi18DXSqfNGvK4syzEyTk0z2fk8/dveFt9+0IIpNpqwJgQoIkKSEBkVMEdgDVjZfvDthludUXh0kCLJjNHkLx3ZsZcfcstmixSShDglTahU4sinNy9Mtn7Pg+SVzFryit9usctaylQ36g2CvctIYegRiOgCosEoRCLZDZGSBPSgQK+d4TttPx7w171i2oI7JIw+M6TW4/4socfRZsilRpf1VTZgel81p+XbKxxN+X/TVXaWnToM7N3oRArFBINhzEJtaUCm1AoG1n309+LPJ097Xny7IRAaChATPt/Gsm3myVOnhsc8gcv6/u/q92mPIgFEpGemBg96okLMBIfkFzH5XzFwwwuN2GdGSB3kIemxlJsBcTFJuS1qJHkut6BFqZDwhwIYpPhdqRVflO+79FX31uJSgkSgx0TWst+vRt14DPyYd9wVrSzGYxf82e8EwcBw42m23GwzwEOohSo5/jJxy+VhNrnYXX/jF4OHPDEquVxcDRNGLEIgqArRNjCq8lDlHYOnMTx/5Yvykj6XcwkwmIVFIggvYCM7BSEx8EhP4YDRZpCsG9h/VY0h/IUIC0X4Nv85d9CISEq/LwQiJFyZtVg5X4lOsbcrUSIiT0wiNBwQUfSd8LsrNyLKnV9+xJnzAGEw8OCRTUD1+ot1C0DE5vDV4rJwUkDTCMeiYPoMGDDebrV6vTi+5mDdZuXw8zuEF4mf8Vl/qNO5atbbfN5OmvVNyKs8YD2hRHRIbARpkid2/cdG6tfM+f+DrCR++L5WW6HEi5FQAxcRGRVKC704QEhvRcZrFKl1yT9+XLhvY7/WU9IygEhJs5O8zPnthFRzZON1O2AEqJaicr2Gain4amNFxXGBElajNCKjGoHo4Khqpvq/wOBP/g5DZKDGB2MJAUrzSkQ2be3745ItLjm/b1bNhx3ZVRsdGYlJUkD/WbvB6V8+Y/7re7tSjpEQWHrJM2Yt9Vo5U9S6n9Pc3Pw61F5Vm2E7l3Wutm8mUZulFCEQDAZKURANVytOHwIq5Cx/8fNKHH7hsdpCJACEpm/fYBOjWy98xQoLmuqDU2ntI31dueej+V9MECQl4o7z/p08XDnO5nAbMg+QfNAATGQE0ncdnCYkDIxNAXkpyTraeN/Zt0DHZ0TxY21PTM7zwfI3tPWTAi94kC8TKkV94hIovLiXhTxIe8njdHmnD8t8GfTN52tv2U7mkYxIMZPo9bARo/g4bOroxGAJ/fvHtwEXvfPCRrrDUghISrmjKxdFIRngQMqZTYjF5LwfX8b0G9UdPrUISkr++/K7fZ29/8JG3qDQVj2pk0Tb6qCQJSLD+od8TBwE27jFWTsM6ux59842rmnTpuDdY6zAWFCqFg47JSJ3NYSx7fvzlhyjdlMM+eMwGqVPvHnPuHPbEPUl1mHshehECmiJAxzeawkmZcQRWzFn4n8/fnfierthudhtgssQdmCIlYVY2bEumWNzgR4xlM6T/CLAQGJ2cni7EKJZ+Mve/i958f4zXZk/2wqzMyA7XaBXKgfqLEKhZCHCFV1+tFaVt2YoNSEPO6Xbgx2TG0S3b7wYHa/uqah2GaLDl5b4BohHPr3MWjNRBCAb22KBuCQ+EyU5xUHsFSQ98drml7GUrBn2Xnnaq5HTuU8lETGrWAKoBtSVSUgM6qaZVcfVX39757dsT3nMXlUKcGaQjyEZkSxif4ybf2TVIN0xmqceQfiP6DOw3OkmQkGz8ZvFtc8e8M0ZXAoREYTjEQ2raSKH6hoqAzzKH38gHvfJs6d1e6fCm7J4fPvXCsqM7dvZofEb7g1WVYc3M8oLEZCw+nctmL3jda7fDAwsHNpAfK0shPZgHKwr+MTjc0tpvfnjMbrOnlJw6/Z/kunVIYhJqR1L6ShEgUkKDQ1MEVs//4r6v3p4wSVdcapbnMFDHU1y7M8sCWX9O3nnBB5PRLF02BPyQICERCK6HeS6fNf+heWPfHee1OZKZ63jMk0+imraGMiMEahACyjOg83gk2/GTLee/8e6c49t23tWwY/sqHayhxASIyTikIEtnL3hVD+bCHuYBWd5I8CeWHRHBX0hWDE63tPmnX/+dlJxcUHo691k6yqlB4yTOq0o6JXHeQTWpen9/99Ntn457d46+oCSJ+QbxTWdlrUAiwkmEK8niunZA3zcuvrffyLR0MY3+VfM/v+eb96ZM9tjsVubkKaB4RLW9q0kAUl0JgaAIiPnVQR0uVIUFHZOdj731BsTKCe7HBItePGEa6JgsGA2eXw3y88XLkw9duRdYTMukKaBj0vWqK6bf/uQj/yFiErTzKIEAAmR9IwASJQmOwIoFn9+36K335uoKgZBwnyNsr1X2wkmMe5MEz5LSFYP6jbrknv4jRAnJ8pkLHvrq/akTPXa7FSfcysPW0EFO8B6jFDUTAVl3KthLz8zhQU55/FR78GMy40h2cD8mmOe1Q+9/48p/DXramJpcwo5ewfy4TPMLP5Y9W0wxVpGYLP7wk7EgMSGrnGAdQ78HRUBkfAfNhBLUbgRQQrJg3LtzvYVFVjRVLPfyE1owETAQErCwkV3HCx7Z/LHgqyGfj5/0occmu45nKq068EmpTL5lvuOJkNTu0Zj4rWeqHlUcV/r/jn+bG9ff+eg7Yy5v0LF9lX5MOHobv/vppoXj3p/rKiiUrdqUUA1ISvyfMC4xOfeaKz+89fGHHgaJiZDlXOL3FLUwHARIUhIOanSPD4FVC76479M3x8/xFpVYPUASUHMfpRhlHtLKwEJvlHBk44FYNi9DcD1hQvLz9FlPLHpv4iQvxLIp86EApfBdG/dESWbANDJrAQJcH0u9o2TK3qoveEwp+V0nOY6dbD937Dtzc7btbCICUdcbrv6m96B+w91JZodsYo9CksCEn5UBEpMNP/784A9TPxkLVjm0roiATGkCIkCKrjQwwkbgz8U/3fLZmPEf6POLkzAeB/MxicHCYOtkQk+t3CW2Ml9ak5K9ffrdOvqSQf1eEwmuhzn+OHv+Q79M+niMvhRMi1nMDyQ8aCCg2ozBjIw+UJCbyLyEdErC7lS6sUYg4D/MdfA8KNsBn5UMPiEmsItxobk83HBsY3bPN598dsn+bduvbdmxw95gDe3e/5b3JZs96bfPvnzeXlicHkiHi3EhJW6VHqxy1nzx7dMOL7PbeTpY/vQ7IRAIATq+oXERFgIr53/+rx8mfTTJXVRkxsmP63fIExdOmbKpDXfIlNWy+b4bn3jwvi69ei4VLXDJR3Me/3narHFuu83EJ0Q6nBFFL7J05fidqn8D5aperHyLpcxR2YtPMtR3kfVJqHezPkSyzki7fDcetTQ956xldzzz6L1NOlftx4SXt3/zljO+GDt+xtHs7ZfKkXJwUwBsByUoSqRhFoUbbmBhI8AJYo/bbxnT+8G7h6cLBNIMtV2UPrERIFKS2P0bldahDgkoz81y5RWmcKEEDiQW/E5ZjPAdpSdmjGWTlmIfMvqFa87s3WOZaIV+mzn/4e+mfPKO11ZqIbmHKGpRTKcsOv59UeFvzjwEOq1y66kotqOWZs09J8vbBZ2U1KLx309/MumStKw6DhFI9v+9sfOHz778k/tkfjM3EBKML8V1TVDPRO0/hVnYmYzSubffMO6Wf987DHRMiI+KgExpZOJMOBACoSAAOiT3zn9z/GxPXlGKTEB4jNGyXLjjJTPYBae3ar7/7hAJyc9TZz797YcfvSkBIeEDlNhzKL2kbVq2y1YspzAcALeiYpZUcKEfGry4ZRUrXUVOuL6Dfx9Wbj2lbf1rc24cc04a8G89RNAuPXz83JXzPn9CFJuW53bNHjru1SsyWjXbqleib8teiJCQlO9Z7FedwyWt++K7p/73yZzRpbm59PiKAk3piJTQGBBHYNO3P90OIcw/0OUXJ8uTkbz64DuuQWyRUawCIBwwSEiSbbc8/tDdnUOQkPz60azHf/549mtSqT0Z8/VwF9fKDk+8tpQyIgSUZQTfWL9iX8DlAl1mpZt9vAN1ffDiC58/OeHjIiAJoeUqom4KdrPSdXIyJJZKVG4vuItfOnv+K99PnPpcsDz4703OPWvHLY8++B9vRuopndKpst8h1Ocq60h0So9jwWhzGVYt/PKF76fOGFNCxEQU5lqfjqaEWj8ExABYtfCLexZ/8OGH9hKbWQczjhzaHK5AglkYVXVatNh30+P/uffM3pctEymhqKBAt2bBl0/+8vGc1yCWjYVPpiT3FUEvCmn48Qseyak7Q/lefUrjX7pP/yfQEY7yne8ngWOeKLSuFmUZAGAkEtzLstVciv6Crn3kgTGioGxbsbrb9xOnTzi+ffe5nO2Ue05ZkShBlb/1mo2ennfePvqKewaOTM7MpEdaFOhamo5ISS3t+FCaDZF474Tgeh95CguTPBjtl++eA2UCI8qclOK587UXr+giTEjydX8s+PrJHz+e9Sq4jmd+SPhuu0Ksj1AqTmkjRoARDNgF4/GMx+mS3GDl4QDplcPjBh1HL1iL6vRWvVGygNBVbwC/MQY9WF2hFRYsSeDuHCPXlnv5k5KIa0gZRIoABMO0g8+gkdcOfeAN0bz2/rnh7KnPvvw/T25eQ+4skUX6rmRF8VpMnu533Dzm1qcffVG0DEpXOxEgUlI7+1241ahD8s2EDydLxTYLimXVVjZcz4DFtFGISkarFnv7Dn3wgTOu6PGLSCEoIVk5Z9HzS2YteFlnt1nQPb3P66uygFWIjCqSMaURR6AKiQYqNDpdLsmTYi5o3Kbl383OaPtHnYb1dzVu3ixbbzI4SoqK6xzave+8/OMn2uzYtKVX6cm8thY3+rUzyAuU4ttC7Z5cXTESlIh3UyQpq8KZLQJITAb3H3HtI/cLS0wOrNvYecHYd+ed3LGnK7O+8UnV5LjC8nOMCrGKF1qT0dPrrjtG3vDYw6MiaQvdm9gIEClJ7P6NqHXbl6z4v09Gj/nCm5efhp5aqyIHTKs/LaX03pEvXN+pT4+logV/O3XGM2s+mjPG4XToecCv8vcyg2PlEs2V0kWKACozGkAqlltaJLU/96zf/m/g7c/Xa9vir0KX3eJyuw0gMTFwSw5MazEYXSlgELrp15X3/jBn4QhvkS3LarUyk1EkNm5ybBdpl4RxfxkVqZLYK8c5QEwcPSA45g0hEJOty1f2mPnS69+4C4syZQpSMbQEjzaM0ja3xejuMeD20Tc98cjIMBpEt9QCBIiU1IJODqeJa7/8bsDXEz/80H26IJ17cuRWGGxHhJkqugYoPanTsvmBmx576J7OfS4TIiTF+fn63+Yuen75zPkjPE6Hke2lmGM0v1mNFxJOI+ie0BFQjmu84KHTZpIKrrxnwItnXHreVyaLOc/pwCBtulLoJTT0Zv/r9OCVBnzlwWGNCf4ymM1mqfT4qbY/z1z4zt51//RKslgkTyWeQEOvHN0RMQKBVUxkPyaoCGs2O3sBMbnukfuFj3J2r/nzgi/enfhxzq49Z2H9uL6Kv/IIL9prNdmvuKvfqF6D+o1NzsqCsUQvQqAMASIlNBoqIABxL25bMH7CJ85T+elBxevoQCk1teS+kc9fD4RkmSiciydMHb5k9oKX9TabyQOifmWNY6SETEVFUdQuHfYz9zvBTEYt+ty7nh16Z4MOrVcVuxwmncdrB8dYpR0u6FapomL2utUWOMqzgITF7Dxd2HzSi68uthbYG1rNQEwY5yQdR+16TDynYM+w73dFYuK1Wuy9Bvcdef0j4jomu37/84IPXxjxvTe/qAGMlbIdi1LNCtGFLUapdbeLFtwz7KnByQ3rO8VbQykTHQEiJYnewyG2b/nsBQ99P+Wj93SldhPOLcz0T5GI+AQZKklJVqvm+2559D/3hXJks3jitBeXzVr4itcBZYA+CttZYT3Vs6fymQ9QWs5C7MgQkvsmASSYoJxq87pLb3703w+0vuScrxx2ux4WmdKOF3QTWji2rVsDJwXeZIPJZHTnFzX58r3ps07v3H++AYgnqMaW80FQoc9VYyBgvyuElRsDYXK+ww+hubUoqYxUOSxVz5XPgkr13Ml6IfCPxQTKr/1B+VVcYrJn7bpzFr31wcxTu/ac7W+BpV5o5GM/6DuTQeo54I6RV949aJSlbgYF8atFI7OqphIpoYHgQwAlJLPGvjNbX1SaXAEWGCloUYGWFUxsjwnSUkBC8sINHQV1SEpyTpqWLfrqmSWzFzKlVoI+PhBAfQO0oEAX4Ta3S7rhv/fe1677+fNLbGD+rdMVdDoPvIuH8AKJCYawT5H0OmuyQ0qZ9sJrq0qOn2pstJghToqsLO1z5qW4Kvc/tuNu0RlPUUov586eJGoh9Ih4UrXuCUTzLukzsP+rEK/q7eQG9YQ8v+79fd25k59/+SddXkF9jH3FpguVHxMukWPzB/zmshidXXtcNr/vM4//O6WBmHdZ8dZQypqIAJGSmthrUajz7198c9d3E6d96MgtSA0oZue7VOUdY9nc/PhD93YWNPs9sm1ny6/fmzx57/rNV0lO0E1ASx70ZEAi/Sj0ZmhZskkAFhA3mPy2PL/L/2556sE7Ct0Ot97lKe1UxXFNVaVsXbfaCCQixWw0G0oP5Zw587V3vjcUO9J8VhpolcEWKyUXhXjwTTsPrlhOEoLmxXiPiiL5PgY7owgNklqdWt0HOpPZ3frcs3+68YmHHm7aof1+EWC2r1570VfvTp4OEhOmY1ImEZOfeaa67isEpCZ6vXT2NVdMB4nr0JQG9e0iZVCaxEWA3Mwnbt8KtwwlJF+/P+VD5+lcFSEpvznGhcCpHLXo0lOLb37s4XtECQlISCzfjJ/84e61f10LRzbgzMKtHNmEtAEXbg8lDA0BjFGkd3ulIpfdfc7VvSYVO+0mndvjCJeQYOmdzu/mguixDrvLYUht1Ti7w4XnLHaDaTFfpJjegUJI1KPAJyHBn7lqAuctLPib7JKLuTIvd2NobabUlSPAYWX7BbvDAPoi13377uRJ8BwzH0LBXh26XfzHTU88fL8lLaXI54IeMsP85B7kTAWi8GAZIJ37+6df/z1j9Lh5BTk5JEENBnCC/06kJME7OFjzls769JF5496d4ykoTmUn/j7ZmTw0fBtZPGYGPfnM1i333Dtq+LWd+3RfHixv/P3oth2tZr7y+td7//r7ambyi5tddMAmb89FsqA0UUaArf2gS9Ky8xnr6rdr+Rfo+dg6A6mItFggNaVgDuwEkmPt0u2iefkum+/YxmfBpRAMXpbaaR4eKXGSgvbHeLzELbTccECEv9MrcgQCPYWsH+AHxBhNvuH5ve6TEa9/dmT7juYiJXbqdtHae94Y8X/12rbcLOcFLgX0aBxeRkYxiAT2L3M34PJI+9b+ddvKTz9/FlzS4/EfvWopAvRY19KOx2ZjLJv/TZ/5llRQkoQbV7ZDKicPV/2J32emFd36+EP3dOzVbYUIbMUnTpq+fG/K5L2r/7za43azBQl9Ffi809PRjQiMUU9jhKWiRHJJ3a66fFpSakoOHKsIKbWKVAzycoM1j6t+y2abm3Zqn+1yOtkY8I01P2EZswBSCIgJXZXDZ3TEZYfddKkTfMnijhsGqwEIMiMpjOSK1ITSVIZAIHml7Piu7FnF53fv739d/9X4KZNsx0+C+XfwV9vuF6+94/FH7pcy0vNk3RLsSfUcI3/GI1z8Xu9wS8vmLRrx+VsTJhfmnBAqI3gtKEVNQ4BISU3rMY3qe2hTdsfPPpw+3l1UoohkYWJAfRFf/rIyPDPlw4UCzDq733X7aGFCgn5IFnw5bO/fm65krsYVpTdyG69RB2qYDXhCkwypyXnpjetvA9JgPOtcMUsbwSqUApNwmFKsp7IaN9jlhkBwuPNmi5CyaS5HKriSiRvOfhwOqdBWIoHDNrshKzVfn5Wal+8sdeB3qP8C+crHODi2BCtDyQIgUIkNPmKqDq6Iyfb9vemaXz/74mlRHNsBMekz4LbX9GYwtOOSUtVmhI0Bpc+Z2bjTpd+05Le7N/+6/E7RMihdYiFAz3Ji9adQaw5t2tJx0dsfzDqyeeuFSmi9MumFSgENM8Novx6r2fV/gweMuHRQ3zfS09ODmu4VFuTrV85a9MLSOQuHS2BlwyQkmI8ihsE5CPQNKo2TIdQISqQZAmYXENKmdbY99s7os0+XFps7nX9psWaZQ0Zb/1qdojcbLQf++uf2nybMmIoSDicI6I3ogo3ZhsJYAOKKRzQYvRa0jlyNzmj9Z9sunZa1P/vM/xmSLEUms6mUnd44XRZXqT0t+++N1237a8O1BYeOn2WCAaaDmDs+pWnfmaOWrUjgvLhURO6KCi8+Jfh8CFnMtt6D+48EB2vCLul/nPzRM0tmfvqazu4wYSgJrlfCNj2KzwFww+cjq5Z6mScHvvzsrR16XrYygZGnplUy3giYWoQAEpIPnn1xiZRzujGqwbNgWspMxM0BmWREEd16ki3O6x+456ne9wz8QBSmryZPe2HtjAWjXOAB1DehKTfLZTAtBqQ8ZfEyRDOndJojgLpC1s4tVwx56ckri+02L5gAC5l/ilYESInJazGmuHLyOsx5Ycwavd2lcwApMSEpwd0xZISLE0pGTJmpudfdPeDJdt3O/6zAbbcCkfXCcEEtSTZowKMssg9wg2JyphnMzvXf/PLY/+Z+9nKSzmjhYw193/BFT7SOlC44AuzZVZTdQ3VJX5Sfr1s97/Onfpn16esQBdx3NFMWL0f2V8SP71g8rcyUEw+OevnmdpdduiZ47ShFoiBAxzeJ0pMC7cAjm4VvvT9byjnVGHedTIkNJhp2wd8+3xGKmFVntXivvnfgi6KEBF3H/zBx2vDVM+aPcIPZL5epg469r3byERH+LX9HojqBjotyEgy416hFs612tuSgC3ltX6Dw6kRSwcaZETVKQHLGex53yiAlARf2UqNObdfe9dKT17Todu5nRQ6bUXJ5nAaX1wZKkCVgHVQIdxYY3J5i0FEplexOT15pseXM63tPuv2x+++36b3o/h61MskjcKjdxx/Hcse3FTPhmxUcJV6Hw7xy1oKRiydMe16kuNSMDO9VD933Vp/BA4brzBDbUynTdzzENivy3ODTZ8ktrj9n1NivV85deK9IGZQmMRAwJkYzqBXBEDi4ftPZk58b/pPj+KlGetmfOHt5mQZ8RW7qsVjd19w/5Okr7hs0Plje+LstN1+3dPaC4cvmLHxRb3eamGWEQm7KRRf2ZabQkUDyYpECKY1mCGCwPGtq8mkIsoedEvR4LqyCQf8jJTP9RFbduoWni49kqv3TuB1OKbNDq7V3j3jm/3JdpaYSh02PLu3PPL9bIJ8V+J19+1+rwbuFlAxpza26n/dZ79zchl9O+GhMg8w6BgwkiFY6NLTEe4pJq+RHttKX7zeuG2J3mJfOWfAyhIzQXTv0gddFSoMowW96PB790rkLRuhsDgvPk5ddrtdgzNhyTtf/esKHk1bP+8zb7a47ZoiUQWlqNgIkKanZ/SdU+33rN3Vd+M77s5zHTzbCc1su3sbPaKrHNi2MI+A+RSfprWbPNfcNHCZKSErygJDMW/TistkLXwK/Bmb0e+HTnVOOgcpVtExQQpISoR6smMgHoWqXy1Jx0ZPf90r3VhRNqfoCpBeeUL23ilYfdtns+AU8AjPSg8WiwqsHpDQ6ENPf8ci//n3abTPpXB6H2S0VgZ+TKp1oQQweD0hgikB6YisqLk7q8n+XzXjm/TF9kupkHGcKsOXkcaK1rL3pKkosZboQSJLJhoxylAMSK+uy2YteAYnJCyLoJWdmePtAIL4rBg14BYL/uRgL5pMFl9TAOzvWg8NftrmxOaw/fDTz3ZVzPyeJiQjINTwNkZIa3oHBqr9v3YZzJjz30i/Hsnd0ReVSNtXgToftdhQ30PJXIFKHl9XsvumRBx+68v673wqWN/6OhGTZ3EUv/gqExOPAaL8qk9/KMuAqJUq5IuVQmjIEUP8CpU/MIyoeiUC/sktFAFFBGb/zuWhX+r3CVrisL2JxkobURM+lJKz+RoN09YOD/ptUN+OA5AK7UxhSSDhE+xvISwkQk1IH2Kymt2u+7sJr+owvLC32mZmStEQAST4GyoElDwd//NRJ5ZhVMA4ddvOvcxcM/17wKIcRk7v6jus9uN/LqJuCQbb4kQ0vtLzjPB1KYjMXTZw88bfZC/8t0CJKUoMRIFJSgzsvWNX3r9tw7ufvTpipP5VXj3nCVO1EfJr0yk6ZBeGymjxX//vup7sP6js1WN6MkIDy2rK5CyG43oIRepiYWJ4+v+EiOVCacBDARR2lDHgh5uyMH3QpmGmtcuHuk7t0FywjFqQE6wT2x+jJExRbPW6p5XldFne46Nxv7B63DkiVHUhGyDyCOWnzeG3FpSWW9t0vWFS3dfNsdAbHXxTKQHAEhJhM1gGRX3q7I+m32QtGiOqYWLMyvD0H9x8DVjwve0HHhC1EioSEm3izvJXRgOPFZHMk/TJzzlsr5xAxCbGralRyIiU1qrvEK7tv7d8XTH1x5E85W3ecjS69uYMin6REyQrMGeRdNhCSax7+9yNX/EtMh6Q4D/yQzFr48rLZC14m1/Hi/aJZSkUqggcVaGLpAtkJ8/OgbGXxDXVFmOQqDogiVpe1HYU7TEwHbu3B30jnXpfMKi0qTpc8Hm+wI5uqsIN7S+F3mzUz7XCP666cVOp2+todD+3XrN/jLCPOIBWX9Oals+e/8uMHYkc5KaD8CmbFYy+9d8DzBpNZ9l7ChoY8bsuzU1kqWHoqN+OrCVMmrpr3GR3lxNlY0Ko6REq0QjKO8tnx5/oLP3vngzlOUBLDlYptQ1QLEzvP5zsQ3FEnWxxX33/fE70HD5gi0oySvDz9ClBoBWW1F9HvALmOF0FNmzS875h7bvTtAYTT5ATJCfgaQW+pdvB66oB3r9MtgeUKM7tlonAuSVFXIyayEV+BTIbDi8SjmwZNG59u0LblRpDioVgjYrf2sIrZXXan4cxLL/g8pWHdfahbQi9tEQg0ZNQu6XUOp2UJU36d9nxhQZ7QCLvlofvH9RzS/3nQMXFyB2uo6VbhZvYFbKIcbvNipmOy8F/ato5yiwcEyPomHnpBwzpA6PCLJj730o/6vKIsvuPALQeuBr5djbo8q9nZ/8lH7zv/jhvnilQDj2xA4/7F32YteBlWPyMqojG34Tx/ch0vAmP4aRR9EnRGh688kDYkZ6UX1W3ccGfXSy78Mikl5RQcXRh2ZG/tvnfrjkvzT5xukWyygEt2vWzri7cpYosAXSW0iIRTeZWkn91u97ikCy46/ztzSlKe2+324GlOOPmq7wFrHc/WdWt07iRLcdO2rTYdOLGxFZggkxVOpMCq7g9E83wmvJCOHZo5HJblsxeMwtCb8JeQg7Veg/qNA2qqXzJn4SiD3W5Ep3pMD18erj4HAkyHBdnn6fwMCCI6BeYhAxAaoeNmDWGgrKKIAJGSKIIb66z3rAUJybsTZphOF2W51Q4AUJ+ELWLln3Kvxeq64cH7HhclJOiHZPnsRS8sB0+tXpfTiGbFuKNB/QWuzkB70yj3utKFpS6HVK9F022X/N+t01uc1XFZckbaMZPVUgiKo06QEBiaX3buQo/DmXxsx74L/vltzV37N2Rfr7O7TahYKs/0ck/xSV/5GBVSAs7TmChEeTF/JbiwNGnVYr3RZCp1QVybzudFHgBQaZDb5fFY6jdtvH2P9LdkktW36aUVAqoBo85SPXDY0aHTYVwzY9Eo8FskiXh+TYajHNjwjAHle++S2Z+OlpyuCmsTO/ZDdsvPAh0u48+z5o5ZMXehu8fAfh9p1UTKp3oRoOOb6sVfs9J3rfqz24fPv/zziR27O+GEL9MEedmRFVzlZYFJ8vGhtlg8twy9/+Fedw+YJFIJ8MhoWD1zwcu/wrGNrhSUWlnOXIlBlpRUEkJDJHtKI4gA6okWFhVJHfpcMu++N1+68Oyrek6y1s3Y7TLp80pcDlexrVRX7LBJLp23xGs25jbu0n7JHc8N7Xf5Pf0ecxp1JejGnY8D9TvrTri2rl8TFWLi0ylhBhteyZhk8ZgzUo8BITEAYxG2tgkGEyxcYIfjNpqTrPlwiBXYpjVYJvR75QjwY1+/FFwHpNymxG4zgRK8sIM1JCbXDv33mN5D+g+XTEYX9zAtT2PKsPTTObGdysv6+oOpE8GPyb3UbYmBAJGSBOjHnat+v+yLdyfM9uYWZDB3aOhWisvmFbLAJwsjKramp9ivffCeJy4b2HeaSPPR7Pe3OQufB8doL+kcNivqMrCzX1WsCub/RNkPU9RWEVRDS8MsEuCCJdx53YODX7zmX3f997SzFAwS7JLO7S3ucs6lxRBIr0S5ikDHBL2g2uEox3myMC+9Y+9L5l5xT7/npPSkE0hMmEfV8vSDaR4hZw2tZkKp2ZLCTxFx7CSnp51o1K7VH8Ag0HpZOwGbTget8+oat2y+2QFHRMzvjn/uUaFdQjgkTKJgHYbK8xjfSAeeX1H5FSQmQp5fEaA+g/qPu3zwncNRkovxkGTyXCbZ8w/AaAAnbIunz3xv5bxF9yUMwLW4IdGYgGoxnLFv+o5Va7tPGz76u1O797TBxxZ1+/Qqc0hfjVCoAZcnyeK+4cF7H+tzz8D3RWoLhES/BHwQLJ85/2W7ywZxR5RJQqU4y6w+VOsZSUxEkBVPw61HSkpKpHOu6T31nFuuHFvqcbktDk9J53MvLWVu3P1e8J27I5jKgji8EJyR2W02m6nTFd1m3/bff9+bayu2c0KpWp/5CVw0lmw09+UvdnwjGQ2l5rSUk143P1cUx6OqlCxMDvyXmp520g2NJHNgbXD1n0fwca9A9lRF4ZyAStbMkaLdaQHdj5HfT5wqRExQYtJrcN9xlw/q+7IX/JiUBfJUzN79moRlgR+TtK/fm/zh8lkLHtC4xZRdjBEgUhJjwLUsbicQki/GT/pEyivMQEdofPOLsz5bWdRHKrAQGJOSXdfdf/dT3Qf2+1CkHnBkowc/JC+smLngFdAhMelZSFeFlPhvbvmSJhdLL40RQELSvHnzw2df3WtyYWFhGhC/4jMurNrrKVah83mXemFhKIGes9vBuV39Tm3XXH/vnaPtXjfTB2LjRn5xSYn23afKESiIG0XxfLgoUrVgG29hNGHoM51rsO5RngiKRi0MXogJeawsrkKvHjj4Ga3+UAkeleFBx8T026xFI36YOH2YSDFITHoO6TcGpCavmMGPCfMgy+zJ5VL4gPGZe+PXoGPy66x5Y1bOWURWOSIgx2kaIiVx2jHBqrVr6arLZwwb+XPu7j3tZUmF/KSyGZkdq8j+R3jQPYPZKt34xMP39L534HvB8sbfUal1DeiQrJq5YKTbxQSx5WmI/zLCD5VVE4ZIOZQGEFCkWBWwUHajcMQh6eql5Vz54MB/pWZl7AVxWCmQDWET2jPP6wauySQb+KtxuVxO6YKbr3ovvW2zNRDoruyYDwVsMGTk2mj8kl1MsBMcHJry+Cz7UsvSVMOQjVe8KuzoNaNAWta8huSFHakGmVW7PFHgpIF5fIWfkJjgPW6n3bxy5vzRv7w3dbhIa5GYXDak/9iL7+n/vGQ2uSAeEvjkUTpPeTbYSGIjSy6r9NQp0DGZPOnPOZ/RUY4IyHGYhkhJHHZKsCptXb6qz4IJU6bZi4qS5CgfZUxAfmbZHhj0D0A6giqEVrMEu46Xu99xk7DZ729zFr3w07zPhjlcTj0dxwTrkQh/5xM9zwYlXOrjMejL3jdc+37DM9v/4nA4PJ2DxIUJVBsgJqD7ysxuPcUuh+WCHt0W2cCniYqCxGIuUBMeogYRDpt4v52bCqujjztdDuOP8xcOE/X8mpae7kU/Jr2HDBjusZodTMdEkQDzqMJMcd9HjeCE2ek2f/XJrLeWzF90T7xjRPWriEAsJiLCXUMEkJB8/MprX+fv2d+GiUjZNrt8AXjMgrsGI5zpei0Wb28QgfYe2Pc1kWqgDslSiGMDymkvGW02C1eYpbN5EfS0SwORVH2ZWUE/4qxuFy487Sq1QsA8WwSl2OBYw+uCaMBtz+78a4HkLFWNHT6vay8pUa8Z5SsfjbJU1C4CpOhWTRHwSazwGLnUkQKeoEd8N+FDoSB+WJFeA/uNg0B+IzBWDo5ZTnT8PVUzm0CQxDlO52b9MGH6B7tXrr1Y04ZQZlFHgEhJ1CHWroAdy1b3+fK9KR/p8orSfDMv9zCkmoo9IDdl8hOzCTXZX+k1aMBoCIIV1OwSXceDDxJwjDYfHKNBsFbYgqBmK9u1R3P50A6ixMmJ6V3ILuTrNm+8JbN+3d0gqBY+sgkEBCi/omDNCVY5nuSsjKPtLuy6zOmo4LMsGj0dawlJNNqQOGMrRi3x7wQeKwePlL0wv6zE6MKCOiYpcnThMX0wVo7VbPflregnlTWJH++At+NiW+q30z5+b933P90YoyZTMRogQKREAxBjkcXmX5dd/clLo78/vW9/a/ZAqsT7ikRTroZy3qszwZHNPQNe6j2o76vJmWlBReXguEi/YvaCl5bNWTAcPLXKlnggbkF6I8cqiUUrqQxfpF9ZAwN8SDml5LqZBx2wNwTT38gBwiMcL2i5GvX21DqZx7llg5JxdSzmZZL3yFtHOcQRApUd+7IpCnvd7jAvmT3/5Z/fn/qiSLWtmZneayFWzuWDBryiN5mZH5NKdZNQmgK/Ht68/eJ5r761YPW8RfeKlEFpqh8BIiXV3wdBa7D51+VXgYOgaZ7C4iSmha4sWPKNKK5UyceBrBjNZqkXhAXvc1e/15JghxGsAPRDAj5IXlgCljZemChwJ4N5VmXyFyxP+j1yBJAZoh+SZh3ari5x2lPg76DSrmClgj4KSlvAh6pHatvpjNVmGCsKEeJmu9EgJmriEWg8almmlnkFg5N+rwIBT4AJhB/jMMVX7CmHI2npnIWv/Dj5o2dFwYSj6HEQXfgl9GPCHKwpqxjveDaefc7WPHBcZE8CPyYYK4eUX0VBrsZ0REqqEXyRokFCctXMUa9/XrT/SPMyEzzYA7DQ9GoTXZlImDPTCwY889jg64bej0c2IoQEzH4XvbgMIv4iIcEyWCwbqBx+JmIi0ksapfFfTnHiBt2SJHA0Bu8GTSQlSGNBBxp3kc3attoAbt5LlNrHYjH3LyMWZWrUOZRNqAiUeZUuf6f/pORwOUzLZnw6evGUGU+JlIHz2rVD74ejnL4vgRI/0zHxxd5S5i3Z2Zo8P+ImywaOJb9+f+qU5bPmkx8TEZCrMQ2RkmoEP1jRm35eeu3XH3w4XVdYmip74vbtBdhTqPPid2WPOET7dd340L+Gdr3jxjnB8sbfbXl5uuUgHVkCxzawYzHJ21null4uDskPe9HyIQJpeGkCYcv9zoA3PFDcwzO0ClbZ4RUmz9PKwAGlIZ3sdz66PRyohXzg0vFNBB0Zz7f6YtQEqKSv8xWJrMfpNC+bMee1HyeJS0x6Du43FpT4X9aZzWBZBsNIGWXM4ysWoIwsn3WO02n6ddanb6ycs+Df8Yxbba8bkZI4HQEbFv980+xRYz8v2H+4Od8JIAFRSy74Z/ZuMXt7Dew76pK+t8wWaRL6IVk6Z9FwiE3xis5uNyP5YJOI4joe82B+BkiZRATOiNJw3lduBwn9wI/qWLxD+U+tXpzNYnfHYg5Qk5JoH99ohRHlowECImMWBzZLB+7il8z6dOSSj+YMFSk6BfyY9B7Yf1wvOMpBYoLzFdtI8TkMN21M5CvPYvi9/WRuHdjoYayce0TKoDSxRyAWE1LsW1XDS9z4w883fzfpow91RSVJrCm4CWAbZUVBTGkfO86BXQGEaneBlc2IPgP7C5n94u1gZfP80jkLXgIteDkaJz+bVc5i+fGNLxSKyOxSw3Gvzupzgunz6SB3CXvBd/JGUKs+UIJGw44StGd9xXCJRbRkYtHKtzq7jcquAgF2pMKlF5Wk4/MMsmP0qwTKr9afps8c9/O0GY+LgJucmY5WOWN7D+73kjvJXGYur8xjbM6EWF34zvVP9HaXGXRMxq/96vvbRcqgNLFFgEhJbPEOWtpfP/5y48w33ppXcOhYI8bu2VPFPVN62PkovjhBMRlN0jUD+r7eY3C/10TMfvHeryZPewFi2YzQQzyUcpqTWA4P5KfUNNikErRBlCAoAmqMOTlhfa+6UyEkmizsKG9johKvl28ug9YxwgTB6h3s91CK1zKvUMqltFURFN9v8qhWdxIjC/ANxspx4vwGiqkgLRm7eObsR0RARR0TUOwfe/Wd/UabjGY87FTyL5vdOPmR3z2SIy8/4+tpM8Yd2bqjlUgZlCZ2CBApiR3WQUv6+5sf+y6eMHW6sag0GR9T9lKdvHtAsZV5aMVovPDgGcDs97K7+7988b39R6VmZHDdgErLyT950vrjhGkv/j5j4QiPy2l06w2SIUhI34BHC0FbQglCQgAn5QBLabkzDw2XWtBF0oMlD8sR+re6dZmjoVMSjTxD6lJKrEh3K0j35IGs/pr5L4GBiH6RcH5Daxo3KN0vnzz7nV+mzXxMBEt0SX/J3QPGdL+7/wsGk8mFOlgsaoKPoMi5yPGe5Lii7iM5bRaNe2/28S3bW4uUQWligwCRktjgHLSU9d8s7jt3zDtzCo4cb+CLZcNWDeVWeIpw9cCom3p4atEPSY8h/V/uPbDfq2npwQnJkW07W37w8NMrlsyc96rLaTfhU6mHs1YW6YpeNQUBragJz0er/ILhpyYJfMDRwAuGWm363ScWlhkL7pVcDpv5x0/mvLZmzkKhAHtpGeme6x+5f0wPcEmvM5nc3M09O/rmx9KKrhYKhNECbf/m7MumPDVs5dEdO1vUJrjjua1ESuKgd9Z9++Pt306ZPklfWmJmmofq6Vr5LBMSDzPX9VhMXrDTf+UKICQiZr/Ht+1qvmDMO7MLd+29QOeC4G5KnoF253EAB1WhehGIFVGp3lZS6fGFgP+oQyIBl6HUnvLFpGnvLfl4jtBRDjbqBnCwBo4jX7AYzR4kN2q/Tmo3CpjWCMEuS3NONpn/xrvzjsPGLb5AqZ21IVJSzf2OhGTemHfmFh89WU/WI1DMLFRKYlhF2X8IdBc4u7p88IARQEpGizhGO5q9vdW7Tzyz/Nim7B4Q90R2WESv2o5AIClFNEdGsLyD/V7b+yvx26+MSH8RHvOVVGJP+XHazLeWzfxU2MdIr0F93+ozsN/LXou5VAcOjJmeiWIqzIiJSqHfBeLoYxu3dH/3iWeXH83eRkc51TzaiJRUYwegDsn3k6ZP1ZfaLNzZD+qJc7GjWmLCniGLWYLYDxDLpt+rSRnpQcXfh7O3t1n45vuzvMdPt2b5q85X6dC9Gjs+PoqWOTC9CIE4QiDQ2R4bqHa79fsPPx6/5KPZQubCqemZnm739H/jikH9R0rWJAfOd6jEj7orElPzhpcyCcomyfDf8VMtF771/mycN+MIklpXFSIl1dTlKCFBHZKiYyfqqJeGACc3jOVDrAfp0nv6DwdPhqNErGyObd3RcvLTL/x6eOM/TELC8lUtQ/wjbVGraQCEV6xW3VWdZKQ6yw4Pdbqr+hBQ9EtYBcAq56fps8f9/eV3Qqa8oPzqgQ3cuF4QlFRnlA0NcS5UAnux6bBMkR/PeSQJ5svuE58Z/vPxbbubVV+ja3fJREqqof/Xo4Rk8vQpICExVyheJb/kpm16s5npkFw+qN8bItU9sH1nq0/HvTPHfuxEK9RR4X5OGC/RalkTqQilIQQIAUJACwQUKuu12ZM+BYuZHydOf04kW7TK6QPmwr3AKkdnNTpwweOxcpgkmvszgXmSfQ/fOY/mtJk39u35qIsnUgal0RYBIiXa4hk0NyAkd8wHCUnJ0RM+HZJyN6nkl0ysCEqtlw/sNxL8kLyanpYRNCDbUTBve/+J538+tjH7Mq6jgl4pfL4w/Pap5LE1aJfFUwItKWVlEgsty4gn7KguCYAAWgvqQGKydNb8V7+bOG2YSJOQmIC0ZFyfgQNeAZ08UDCRyQebXxW/TEwarTiARXPiI5v+AR2TZ1aATh7pmIiArGEaIiUaghksKzT7/Xby9Mm6EhsEvsOAehXv8H2F+h+o1DpowIieQwaMApfKQQnJEXiAFrz9/iemYyfagbWv4mANdVQCdbO/Slmw2tPv1YwAqQFVcwdQ8dFEIDAXxm99unVIHIBNoETD63QaV8xaMHLxxGlCEhN0Sd9zcP+xvYf0fxHmVTBBVIwHlFhf3KM1j5mDrqC4jgnMq6RjEs2u98ubSEmMwP7768X95r7xzpziYzn1mB8Shan7F+8TlFjMbojpwJRakwWUWo9n72g56enhvxzeuLmXB7TNWQwIZCZceaTCvpiO9mPU9VoUEwvpRSzKoEGnxWhIyDwCDw381ue6gM1lOLHJiqngkt68dPbCkYsniElMkJhcB+bCve/u/zxY5diQ7KDYRI75JUtPWC24HgvqmGz4pzvMq0tytu2ko5wYjTsiJTEAGpRa7/hmykeT9DYH6JDIcRjKSUT434p1DOiQSFcM7D8adEjQD0lQCcmx7buaz3tz/CznsRNtZIdocpRMHcR88BXkv+SoKxADDGpDEbxffe+q+Bscbh4PxBcXhO3+fBGGKkjPlLyUnGITqzl73epoEhQiJrXhYQi7jVUPPS/ObThfIqHAB8dutyybu+iVFbMX3SdaZO+7+r0FVjmveI16Jnnx6sEZJZ8qleLxzYMxc2D36DyW03Iu6phs30EO1kRBjiAdkZIIwBO5Fa1s5ox9ZyZISOoqhmdqIxj5XFPZALCIJBDtF4JLQXC9fuiHJCghObxte6vxjz+37MjGLT09cD/GkMCVjTN+n2WP/1Lg+5vWCJF+FEmjFkox/wpAENluDJ4y5kobMkE32mgHgO944Tk28x2j3OzvYFc+92ZzJz6rWpIFLfMSgcc/DQ28cFBL+HuCDAvFkhBTyXMnzHk2m/VbMBde98V3d4jAgw4n+wy4421rsyZ/w84Nona45OdTkZiwDQN7HhW/TvAcH9m4tdvbj6Mfk+2tRMqgNOEjQKQkfOyC3rnuq+8HfDt52mRTsT25Mm/ubGXgLN1slcDKZgScfY62ZgUnJMW5eYYlsxe+7D12sg0yenyOcBEkC5ugXRP1BDwiKfYFxhfCmBsu8B5Z4rBLNqdTssOFn91AJOV4HBWrxEXXLJKvzDW1IhJa5RN1HCMooDa0MQJ4avqtvHuVJaykNG3RW+/PWvbJ3IdEWmatm+X+z2uv3N64a5clesnA5NdMV0UhJzwPJjFhkzcYCxzPbbXwrffmHNuyjXRMREAOMw2RkjCBC3bbepCQgOnajJKjx+sD3w4YcA3zYDtqWJiUWDav9B44YLSIUuvJXfsawVnq+E0/LxskB59ij1WFhypYPen36CAgRz5Fwgn9Aq79C4uLJGPjOjvaXnHJp11uunxSp+t7TWvX66LPHJlJ+0uLS0BcgkEWFcd5SpVwQmRKfrKkhPl9oldQBIiMBIUoERL4PQzotbXElvTD1BnviuqYNDmzw94BTz16n6dxva1cYu2PDCq8ygp6suTz8IYt3Sc889KvcGROfkyiNIyMUcq3Vmf753c/3vbdJLCysTksTF8czdjYwEb5IFtkfC8m2bBYPSAhGdUb9EiSM9OCLj3Htm5vNee1sTMPb97WU4Ldt6wIxgSayv+wtVZM3Wp1R8Sq8XwZVLoXi8XAiSbYdjmhfzLbNd94/S3XvdGofas/LakpJ11eNz53XqNO7ykpKGqwf0P2FSu++uHxkpzcDhaI3CyHApCHgVr3RDM5SXlcgo43DWAkoqABiJRFGQK+aVT5gLomLBSHzW5ZMmfBCCAmOnA0GdSvU6MuHfYf2bnryoWvvT378KbsPrixQ508Ni/j84ce6Zn0WceeSz3Mq47jOa3mj0E/Jjvvatix/QHqF20RIEmJtnhK4Ifk9gWvvzO36GhOfXRnLJ998kNKFSHh0zQotfYZ1G80WNkAIQnuOv4IxGYY/+QLS45uzGaEpLzYH8kIcp9YrDMaA1fDs+OI8x0XHsmU2GySvn763v7PDb217jlnLHElmfKLHTYTHt3YXE6pyGnXu1PMp9v0vujToeNGdDfVTdvhgt/0XK1VNVwUlZMajhJVnxDQBgHfDMc/KPogKNjwOhyW5bMXjPp6kphVTpP27Q4PeP7JwZZG9Xawg1Y2aSsTtEJOfH5NcN/n9kpHlVg5R8AvlDYtolw4AkRKNBwLoNR6G0T7nWgscVgD7WpZ+GxlrDOCbzW7QEIy8vKB/UeKHNlgsKgFb73/ief4idacd8heCcs3gralGnZqsKxYlyrWTspuDfvZbXNILS7o8tvgl568xWM15YPIBLZgHjtkVwRXAUx8hXAVG9xeu8tuNxQaPN47nvzPAynNG25z2O0seBhXjlV6GFXyosk2ozlsMO+q8te6XdFsS7ARQb9HEYGqO1YWVWIat9NhXD1zwagfBB2sNerQ/vBDb71+VZNzzlwibwrkIelfHtc9wd/cx0+3Wvj2B7OOZu9sFcUm17qsiZRo1OUbUELyBkb7zWnINMID5IsSDBzqSCRQh6TPwP6v9hrcb6QlKyPopHx4285WHz750m+HN2b3YmZsqGig2iWoiwuamUZtpmzkucvnFZIzReAfpVZ9wZWD+z6py0o96na5sK9KOp/Xrajz+d3scLmUy9Hp/G5F8JvN63BKaa2a/NP3if/cbUlPzYMgHYqUjZUB8ySoMntRmKzZqzqGSSzIQizK0KwTKCMtEUCJtI9PoB8T07JZC0YtnjD1eZFSmnbusL/v04/ep2tYZzsfRD4fKZgBmAizZx3+Z/M7fD68YfNlHzzzwi+kYyKCsFgaLSc5sRITMNVf3yy+/esp0yeAp1YrG6sweDlhwMHNSAi842VAT4FWM+qQjIBjm1HoAjkYJEVHjycvGPvuDNvxnGY6OBLCUNvy2Wc59RRWgmygETTLYEXS7xEg4PZ4pAv7Xf9uWqN62/VurxO6pLjTBd1KK8sSzqrxNxeQF11G80ZbzrjkvK/tcLxjhLM5RVqCs6G+BltVEVGIYDzRrWUI8Jkt2MLF/ZjoHHbT0tkLRohKTJp07rj/8fHjrmjcVZaY4AaQT9467iYbZ1pFQo2Gcc5jx9uCjsmnFCtHm5EarG+1KSWBc1n7xbf9PwVPraBD0oiRBLg8sCjxl/rsE5UfPckWN8SyGdVzMOqQBCcktlO5xvnvT5qSs2lLLwdzioYeCNHKpqzryhYrWYJCpCR2A44TTnWJ1sy0wnN6Xvqpw+NGQTBKSPDYptLXmed188LYcMJRjqe4pCS17YVdvyl02jx6GEcY1RRfYAWgtZ+SQPWpDjZLAzZ2wzVhSgrmwAnnYvQDhHOu12E3LweJiWisHDzKGTDsqcEm0DGRDd/kl+zHRP5LHStHDw60QcfksnefeG4ZHrEnDMjV1BAiJWECf2zX3ibfvvfhiG/fn/qRweawlq0YQBzQsYRqb8hEgAadVK9Fs939hz3R/5r/PiCkQ4KxbOa8Ou7T7b8uH4xEx8jICB6aqroN/1TIvPzk4P/UrWF2q9BtTBYVQEsCvR2gr4N6zRpn161fbw/0lrvTeZc6RDKF7GyQzgn3e+o0a7SjXuOGOUhI0CuvaixpJXGoDvIhAgOlIQQEEcCJTlEgYU+FzG35A8KdFhrZ5AvEwukwQawc0DERO8pp1KHdkYfffv3K5qBjYmSehORnm0mjGTmRow1j7jy6sOf4yTYL3vpgxqGt5MdEsBMDJqPVKwz0Tu/c22DOiyO+XTln/iv2/PwUlE6gJ1Vk1cik2e4ZLp/OB5SR1rzZzn+/+0a3C2667nORInO27Wgx9ckXlu5avvION+go6ICIsJWE7yv99EnUEhlacUQQDj0Nn/AQXzyGY2fLCinE3NDWCh2kmdPTjoGIA8UcsIcSe4E0BS3HHSgaMZiMdmtSUhHmx7pb1iXRipDwClU2TLyg76L1EApWdy3LC1aWWIdQqjhHAIaMot8hT4zyLkE9LaK3ZNkPlPysgvKraeXMhaN/eW/qcJHGNenU4cDNw564t3GvixZ4DbI/KS4NLx9VWNYxQX2To+s395z+xIsrdi1d2UOkDEpTEQEiJSGOCnBa1mDB+EkfHdu9/zwPLEBlSwWOfNkEWPYAqASSgp1uRstmOwcOe/LOBq1a5ogUd2z7zuZzx747q+jEyZYYzhLFkGTmK4Jc7NKoJWH8M3a7E0x6m7RqscFms6VCbYRJCdYcbwdlOqfRYi5u36XzWhdIxxi5LXObVlMX3ECkQ/2dlqQkdoOASoprBJiQRNk4MNqCD5jLYfhx/sLnwY+JkPJryzPaH/jPi8PuvODG695zQ4wcgzJSmaQkgPoezv2FJ082+XDEa9/98aWY2/u4BrEaKkekJATQT+za13D6y69+tff3v24wuJApyIO+4quMsWe1arH18XfHXdzmkvPXiRR1ZMvWNuMxxgJY2YCOAcs/qoagIpWiNBUQ4N3OnSxhAnyY3EBUjWnJOXDchn8GO/ouly8ow3owaqneYHCmZKYfw/NwZTfIXN1E4RUPZCAadYgOWlHoAMoyNgjgIOMSE2OpI3nZ7AUjvxc8yrHUq+Pt3u+2t02NGm7j/ksCbUrklnhBiuqRDIVF6V+OnzR9+9LfesWmhYlTCpESwb4szD1t/m7ihxNP7tx1qQRLB4+HUBFAZT4EHZKsVs139nv6sbtTWzfLFSnmcPa2NovgTNJ7/HRrJnGBzJm7csgyGjO3SJ0oTRkCFfqAL33YP+yz/IUSoqZSyloVptDfsjCaKzXLTpzgz6hRU/9mRWOoBcsz2O80DAmBkBHwZ6bc7w8GyAQHa6bfZi0cKSoxadax/cFHx756beNzzlyK1pVKOKqy6ML8mcVfcM6Gv92FxRkzRo/7EiQmfUOufC2+gUiJQOcXHT9hmTf2vWnbVq65XQc+J+QZVFZolQ9s1C9ZpySjWbPtj7z9xqXtLr3gT4EiJLBzbz756Rd/Obzxnx6yxYUsJSlnJy+SEaWJKQL+OiVsZMj6djpQcg1nsWVRCeAyqGgIOinR8lkNoKZbLWZbHJ9wcIppP1NhNQ+Bymg8m11RFwz8mIBL+pd/fn/qiyKta9ylw77+Tz92j6F+1i6ZlsibRdRdwScej9hlkSauC7KCuud0QdbX702evn3F6u4iZVAaWeJMryAIlJzKbbxjzV83ePHIxmeZiYxY0QD33Q8Krwa9VKdFs713DntyYEabFqdEwD2ybUerT8e8Pddx7GRrRkRQq5tP0ySIFoEwJmkqdIVqKVWv8mxU6ORQXmG82LCqRK1Vq9FQGSkJo7pCtwSSGhEhEYKOEoWLgEdtaaBkwo9xmB8TfAocDuuSOQuF/Zg07tzhwBPvvdUbogsvQz8mmIUHJSfKeQ77jKsEG/Eg9oS/XfmF6Z+89No3W5at7BluW2rTfURKBHobFQ29bo/RN6DZPcr6gAIN3xQPRzYtm//z6Phx57cV1CEpOHIsddLzL38HOiQ9mMdXGOhGUI/0BWKjPaRAD1VvEtZFqn6S5yOvfuv6NWGRiEAruMYtVNcrFiNMTUACladlHcLCXGN8Kbs4QKDMQLh8ZfwHGyi/GtGPyfeCyq9gLgx+TJ4cBH5MdiMFwejByqmrrAMGfyPpgcgRTJKOAf6MeQV1DmVv7xYHsMR9FYiUiHaRyqJGPk9UNsIwBTITYNDMrtOm1ZYBTz92b1IbMR0ScLiW9OUHUybZDh07s2xVQ2IiVypqWgSibaZ05RAItHL6VEk0XAr9xRgwHrRctDmj9q+x1mWosQvGs6JRtoY9Qg9CTUSgnP8mvwb4BNHwgentoR8TCOL3w4Tpw0TaisQEYuX8H+iYLJdAOs5Uv9iELUtH2LE7Humg2BTzx3ejwSWSd21PQ6REYASwoQbCEi6WY0eIyqiWpSceyWy1Fjz06itXgw7JXwJZSgXHjqXMAdfEW35ePhiCtTGCzV7KAK64DEVj3hapKaWpFAGcdJSxUEnvhLcwIudFpzfKC8Ya81Oi6Kpo0SGB6hXNAaYmJWqpiTLitWgS5UEIVERAZFBz0uB12IxLZ3+Kyq9CxARi5ezr+8wTdze+oOtPkhG1Z9ls4KuER9lN4MOs9gxL/VQ1AkRKxEdI2WhTPpUdWTKlJpcuxYoRYIO+io/kJH/53pQpu1f/cbOOOUYri5WDYzpQ5F/tfWcFrSYlqC4EKpOMhEdxArVCLYwRmbcjRcKfiPjnF4s6RNoGur+GIeA7Ai9HFco3AgceSjHQGaILpN16h9MMsXJGQqyc50Sa27RT+/0PvfrSjW27nr2UedLmUm62i5BzQEtN2ammdg+wSN1qahoiJQI9x45rFMVq2WFO+cGF3laZNY7TbQyW3akjxzLeffHlH7N/Xj5ID0HX3Io+pM/Khh1Jwj++aZo9NsRJggEbg98rTCkqaZnfUVv5LVNodatU6oyZZq9brcXMxvNQ5+WTaIdW3ZBTqwlIMLIScuZVrD/h5EX3JAgCZYNO/qQe+Nztggl0+eRYOQ4WK+eryWLExFK/ntOcVeeobInHZOc+QSffuKJJXdnBfIKAGqVmECkRAJaJ3vCYkC9C/isQMwWDYRdkuTh9+FCdb959f1rxxm09vOBkywNkJhB7RslJ2YsdGpGjEoF+inaSyrbzAXgqr0pYBAKHF443//ZofHzD6+bfrLDqLIB9dUhD2JkrJ/xMPMTpolpWpPrMPirPHwMCFxqlceUeS+U7n7RUJT2NFoACGFMS9cwJfV1RL0/uHfVglP2XgKgb/UKhT0z4G2LlmH+fsWD0T5M+eVoEVB4ZR1auxUdXfnzLuXTQXjdMpGo1Lg2RErEuU5+Ji90RINXedZv7/LNi7a0uDKynPBnVMVOH3QC6URSBSNalqu5VL6WidRFN5xuKGkljKis3pjolaqtQJnNUjv5x8VHrhaF5KDrVwkXEBT9w/0M68KqsTlcpmEqryNGh6HCLs3RsYynXiW0K4HKh8usXXz99evOOVgK1pbVUACSRJASkCEoapQG38UaQqEBoJzqN0QjSeM8mEnLi37ZY5KWI5aLmv6gyDq45N1ezNzUxYWQECQh4XGaWEYAyRpK1gF0EXmiOj+8mxQeR28j3wMpi5dcL5Nww3h9Bsfr5utUnFpPHhut0XsOJo15bkH86N9jzF+x3ZRsqVp/anCqoDkRtBsev7SITZ5VpmFhQISRM4xt1VQLJhAl0QqByBEQmPxH8KsuHE5OQggkGKVCrOou0q0IaNXHAZxCPTHXoWwI+O0FqWVhaApEjIPQlemjGHTPkYDYYpeSkZMmoBA1ASQo37wyrEnRTXCOgFt8xQovzM35AkYnDlQYDAzeTZNIbg14kUiIGssikKkJafEISfo4pVjylIgQYAtE8vuEQc1KiJeSxqHe5+nL1LwUzWTcEdQyAeDghVATzK9Ss8bb0pg2zO5539g96s6mUO8CC37zFuflN9m3aesWpfYcuLDhxqp4B9L8MBgMz7hR60NmCpiWElFd0EZA7jA1+PL5RzhBwvFiSrEUwXIKRdOptjTqISIk4kDToxLGilOETCBECHCm+VUlJokEgZPO02L2YzjlIPXyeI/DhBRdXktNml6zNG+y8fODtL3c45ywgI8aSwpLiLP5wY+BD9MZr1BvcF15z+fsl+QVN1v605IFlC7/5b5rHlAbpJS967FTaUk56oiIiXCIauyZTSZoiwDtQHhhKjE1NS6DMKkGASEkshwZpX8cS7ZpcVjDSEM22RYuUVFVnzQk/CkUMenCtyZYU5kFCKrGVSs3PO/OXmx+652FdRvKJfK/DINnsyaBeUopEA7fK8MIDVZ0LIoGfLi1KkqyGgotvvuatsy88/+uvps6alL/jwPkGk7FMEVZdc9Vn8sYczSEahbyZdmv5fNlxu0JKBKZuzcdwFFpZI7IkUhLLbkIVEqW8cueWsawDlRVLBLSSDqjz0SrPQDjwvX6lZYBljglutOAC3vn8bsWCYHKiE826q6vCoiqDpIQ9bxibpNBWIl1y41VTuw+8Zbhd53Eb7E7QF5HscIxq73R+t4Ci+W1/rQY1V8liM3iM+oaZe2994oEh8559fWVxUVGW2WRmUWGZqB8XLz8guO8LQXwoWbUjIItG5MM5hcuyviWuEeuuIeubGCOuHuKkuR9j8GNXXLQWX62kGFXVr9IygJCgsl8duLrCdQH83TQYpFvXreZHN5WVGY1ZH8KP6Dxg/gvaq8A8bDapcad2f15w2zXjgJC49C6PE3xSFHe8oFsJEKtKdQXgd1eHC7oVA8OxwVrlMNdJOzRw5NNXGrPSjqOiLObNInoHAIGe7WAjI35/9zmkQkLrG53ReqTjF4fqqhmREnHktZo8ZTmxeLmUsmYioBWB4K3XUtoQbPhVNgNboTLt4DofrovguhCISVaQ7tEaB6HRwHRIPJIBontLdquhpE/fm143Z6TmSC4PGr3Zzjyvm1MoI0jU+bxudhCLuJ02h8nQssEOUIz9yevCUN78OZbNi+lVcxFAz5cyAVEPVxgqPkkJdXCsepdIiQDSKJ3VYkgqw12RDQoUTEkIgYoIaDEUA+HK862KRCApaQtXG7haw3UGXC0ESYl/vaPVDlYdfGCNcFzqdDqlMy485+d2Z3X+BZRcLajrChIQYUKiapsdtB1dTrfLWL9Zk2w7CmHgcEjxvlveLCqqLaNHIloIcL81rPuUf3wqzcFofGwVuaMFQVzkS6REoBvQo0FFNagKNwYdtpgALtn/cNDUAhWjJPGOQDjLU1hHKxoB4SMm/l5dlb8zoZzGcNWDqy5cTeBqCb+hjkllr3AwiLg5XByJfkf0JqMNznPkYxp01hrGC455nDAPuOBlaN6m1TqbG0Ul8ovZ+KgnCHq2w0C4em9R5mbWj0w44pOaQLA+s8meWsdnoFW9Fa0FpRMpEehk3A/Bf9UyuQpUj5LEHwLRGCta5hlo2fSXlPiXhwqu9RUykgbvKXBlwNVIea+qF4LVPVbLOJYTFilRGocSFrQ0Dtae+BuRVKOwETAajeFI1sIur7bfSKREdAQQKRFFitLJCERDl0KrPH17QVVniZASlJAgEcFjHJSOIDFpoJCVyvq9sgU8VkREXa9Iy0SPntzpK1r40FgnBAgBjREgUiIAKHh4dHv0XnIxLIAVJYkYgWDEQ+tdOl9Zebn4jvOC/9xghu+QlKCUhJOSJPiMxzhNgxzhaEkMhADWGiQsFI5wUMqC25Ny0hYKFSHUJZSIEBBCgEiJAEynT+a0MDndqQJJKQkhgAhovSb6E4dIUQ52fIOmvyxwJL6AcKA/o3SFlCTDO0pJkJjglQkX6pnge6CX1lgItT1aMgwgIFxS4qsHSUyEuqTGJkIvvzW28jWw4kRKBDpt15at3awldpyM6UUIhIJASAsy+PQIJiXBskPKU6CyasLD88d5waBSdkUpSUMVKeGEBJ8JJCuoV4L6JpWRksraFevJXgTfKiEjfRKBEZVgSdARX4I1Ka6bQ2ALdA/wZAjRFev5U6BilCSeEQiHPKjvUQ84rSUlatwCkRKUkqB0BIkJ9+CK0hB0nIZ6JHhsgxeSEpQg4m/NK/FZIoKDSBrRvtYyr8pIlmhdKF0CICA480d73CUAkmJNIFIighOYEwp4aBQZuzRwRfCuvWlEdvJaPrNqhVe151X8jKSEE5JMhXhkKUQEJSVISpCQ4IXKrq3xXfH6qu5B/2B8Is9JNEcAPYPRRDeB8ma6QmR0GfMepdg3ApBDdFFvmbthgRsoCSEQHgJqUuIvKVErooaXe9ldgSQyausblJSg3ggqdCIxQUkIEg9UckUygr/h3IH34HcoQWmlXPnwfgyLUo5/uNKsPxmoLnJCpCTS0VNL7me6QkBKLBaLrZY0OS6aSaREoBvYdlKHc6sm8yhNigKY1/Ak4faxmhgEgoARE1zswRIk0sHoX0cugWH6JArpQF0SJB3otRV1RvC4BqUk+D2SFUyLkhI0E24OV3skJFC/Esi8ECrIFWb9pSX+bQsXL9FhosnxF+LuKNPpiRR/0bpTulgigCNR3bNMWEKKrrHsAiIlAmgHcurAb5PdEKPPV8kjcMQjUBolqcUIqBfvQDolCA0OOExXaSA5Afwqk5TwvJF0oDQEL5SQIClBc2DUJ8Hf1KQEv0PigqQFXdAfgKsALpSyoBk9EpNokw51k6NZlo804lolgDMlqSEIMLYPT1wFz3pEPWPeg0RKIoWcAjZFimAi3x/qwhUsPScNWpISjj8nRPiOZCRLISJodYPRgPFvTkpQSsKJCc7jSEpK4WoJV0e4TiqEpEQhJVwKU9kRTrB2azlGIi0r0vu1bAvlRQgkHAJESiLsUhLsRQgg3R7qLp8Tk7CQY3oevihj5bJgm0WFRKDeCOqRoKkvxrfBz3hEw32UICHBF6bH71AiYlcuDNJ3RPmcD+94Ho+khG9CAy3qNWWhryn1DGts0E2EQDwgQKREo15Ap0p4aZQdZVM7EeDEoLLFTy0pCRehyqQWvEw8bkG9EZSQoOQDSQke3aA/Eq7kqi4b80NJCR4n4fhvBVcXuIrhQoVXlJrgb/6CcHUbtVzsA+WllRBey3qG2390X5QQoIhGUQI2xGyJlIQIWGXJdTqyz9EISsqmcgQ4aYnELNhf6dSnJwHFckkJkgyuS4Ju5FFKgt+hVASPbvxfSGTweAfzRqkJKrzmKkQEg5mhjgnXgfFf2HmbtOz3qshDpMQi0vu1bCflpSECVTBXrUithrVN3KyIlIj1rW9Q4oxU+QglQYkYnAmfKtxJTGQx5Sa24YKovj8QIcDfUXcEzXxRQoJkA6UkSExQUlLZC+/DtPgQoC7JabjyFEKCf+PxDr7UJIj/reU8FE3S4F/3cPuA7oszBAI9sLyz9SYjGF3RK1YIRLLjilUd46qcSnVIKIpwXPVTHFQmGoujFpISlGqopSX+Cy3+jhIRJBhITPDixESkTZgedVDawYVmwvg3SlcCkRHsJqyLUfEcq0W38bYFqqtI/auqQ6T3a9E+yiPKCPisKIGpIFkxGo0o7aNXjBAgUhIm0GGa/4a7gw6zlnRbDUQgmLQEfw/ruVWcmSFB4Ga6gY5S8DcuKUFCkQkXHt2IvjBPNA9uBldruJDQoGKsb+OpZKTWbUFJCVr8aPHyP57SIk91HkRMtEY0nvILTGVp3o5hH4U1ucWwfvFSVPCJSEfBceKls+KoHsHHTeWVVd/LJST4jqTBBAQjnGdX7fzM/+iGL+ZIELhDNK5HEiqkSDBQUZaTEjz24fnz6MNqE2Qs06pEIw61LF96lQdZ/7ZpRSoi6c+w20U3Vi8CxEhii384E1tsa1izSqNJq2b1V7zWNpAEA+uKzyt3AY9HHsLjDdIiIclUCAeShkAKr/gdSlL40Q2Sk3BfSGhQJwUvJCX+R09qUsLblBYgdk4o5XMpULSkJWpyGEq9KG0NQyAMIiL8LNYwKGJeXS0VzGJe+XgpEGMk6CBoH9QnjLEcL62gesQxAvzIhpMSfEeS4VYWcbR4wQvHIB+HPC0u1NzEF/2OoNJpXgBSwl3CI2HB4xe0von0lQkZYJmBJCX8CAnricc7OBfhsZEF2oSO2PAcH9vkDMGlPubDdWYC1b0qCYpIWyO9X6QMSkMI1GoEiJSE0f1shSgXH0En6fUGj8FgIoWoMPBMwFv46NCKpKqPPvjijeQDJRlIOPCFVi9oJYALOb5wccZFGgkBWs/gcQq+H4QLF31/hVDMF9MjMUBF1VD0SCrrQiwPCQ4nJZiOS2c5KeFSEi6d4fonaK2DBKoQSEoBvsOFvk9sQFKw/uVeiqKsOlBgZTvXSHa0/F4iJ5X1eE39HntUFU8E/2R6g3CBcYPAmAlTy7Cm4hXFehMpiSK4lHWtRkArQoIgckkJd2yG5rn4Gf2BoCQCiQT+jaQYPagiYcHFHxdplKggOUB/I5hmLVyHlc/q41tOYJCQoFt5LV5YPne6hmUjJlynhJMSnIOQtGA7OsGFeiicEGFbiuDKhwuJCfo+wYB/++B9v/IbkjDMg+vLcD8qlenkRNIuIiORoFdD7wVJuAApESEuNRSAGFebSEmMAYfiRAZ47GtFJcYDAuXkb6oKqSUlKBlBqQIuwl3hQq+rmcrCjKQEJQw8EB6mxQUf0/L4NOhhdQNc/hY43Az4TPitjYZgIGHCOmB5SJb4+FdLSjANBv27AC4kJki6sM0o+UEJCZeSIEFBYrIXrn/g2gxXjlJXLAPbi/dVFawwkucvkns1hJSyihUC2OEmk4n72IlVsbW6HCIltbr7qfE1BAG+Q1cfdSAxwQUcj2WQUPBFH4kJHuWgxEBtbYMLNi7qKAXBYx9/fyVIWlDy0l25TytoMF+8sD5IuvjCriZaWB8kJRg3B32b8CMpXgeUmODRDV5ISvBICBVokbxshwslKdhuTkii5cWQ9wORE61GR7zno9NJBoOBH4nGe20Ton5EShKiG6kRCYKA6lS7XIv48Q0/ksmEX8+GCwkJkhMuIcDFmEsj8OgEpQfcIgWfdbwfj1Mwvb+kBL8/Cy4kBVq+kDggicD64OTur5eB9UDSgqQEj478CQnWBb/DC4+gsL1IYnhQQGwfHkehB1kkXZz4+B/faNkmyqu2IECeHmLe00RKYg45FUgIBEXAX3dBbT6LizMu4rjY4+LMLFaUxR4XZCQmnLxgWvXijAs4v/x3/ZgXBtLLDFq70BIg2UF9EawLKqiq68Mtb+rA9+hsDdsU7IVtR0KCbeU6J9hmlJSoFX3989FCukE6JcF6p5b+zgYGSFUkIjERjwAiJRFD6MtAi0lPu9pQTjURgcqUY9XHN7i4czKCn3GB5m7c+f242PsTEsRDnY+/9Q3mg2bAgQLuRYIl5oekQy2d4XXBOqA0B4+UUFIi+kIShnXNgwulRSglOQ4XV6KtKh96TkVRpnTCCOjg0WKuIYTvoISVIaDWvieUIkBAb9C7gClH6yw7gprRrQmAAD++4TolXKmTH81wHyO4yeCmvYHmR3/piHrnj3mg1CUaL5SAoMREHQMHy8EysS1tFXIRStk8SCAe56DuDLZbROdDS6uoUOpLaWsYAkzygYNKYF73eDwV1lIaaOF1OJGS8HCrcJder3fjpVF2lE3NRiDc+aiy+/A55RdKNFBSgAs8/06tc8IJSjAEAxEUreLP+JedCV8gefAPzIdEAglLh2CVreR3PMrh+iVqEhYu/mFWg25LRARQ8oEveA+6TgYiJYmISSzaRMc3sUCZyqitCIS6OIoc3yAp4R5Q/aUh/EimKrzVyrSczGB6/Kz10Q2vBxISJCb+pASlJKhYixGFw3lxfRruAwUllaFiHk65dE8tQkBEUlKL4Ih6U4MywKjXIHEKgJB8Qk52EqfF1JJoIBBoUVUf33AdEn8CwiUfoTzT6uMbNUHRul3cLJgfsWD+3OoGlWvDjbGDpAbxwDYjIVEfn1ZGToi0aN27CZ5fcnIyOu4Te5FSiRhOVaQKZQKLuLCangFSDnQmXOl2VgcOielFCISPQFWSEnxWcSH3l5TwaVDEMoTnry5HPY1Ga0pF8qB2Nc9JCR7dhCslwTyQ5HDpCyclgcyq1e2lZzT88Zmwd+LMXS50CLSUz+Yw74uPGUjp00VJWLSi2zAiJdrh64XBKD54tSuXckp8BLgUAxdgrlOCC7La14goKfEnJLHQxcB5hvtJ4b2F36H/EvQ9EsmLH0H7S0rUearJWCTPaCT3RtJGurcGIcB1UWpQleOqqkRKNOoOOszWCMjEyibURSyYTgmSElRG5Tol3CsrV3gNhp6/Pgmmj5Z0xL8ufK7h5akduQWrd1W/Y37caZy6fdE6vgm1TyNpG90bIwSiNVhiVP2EKoZIiVh3Bp24vSDhI50SMTApVVgI4BhEEsKPLLg5cCS6IP7SlWiatAea9/G7oM+WAFqYD98XVHV8E+g3gex9SegYKBS0alhadZzfUJknuaLXrrOJlISJpX+gagja5DAajehVkl6EAEcg1LlNrR/ify8nENwXiVpKIrqw+y/K/kc30TRp54RHXSa6hY80rggnJFURqlD7IdgI1jq/YOXR73GOgNPp5GEP4rym8V89IiUa9ZFOp/daGtSlyUojPGtpNmrJRaBduZqYhENK1LCqCRB+j+Whm/ZovTjh4eUiiTgFV0mEBQaTkkSYfbnbI5W0aFkXyitGCHhErCpVafwVZmNUzYQphkhJhF3p2/aFoqEdYZl0e8IjUNkRBD/u8HeaFiognNyoSRCSBHTXHq0XkhJ/ooVRfw9FWKD62CZYViLKwMHyoN9rEwIwYkSOZiCZqLSyNqEXVluJlIjBRhIQMZwoVWQIqCe2QD43+DgMRCpES/ZfmHmZeIxyTDSTMNL5H9/g3xig70AYealvIR3zCAGk26tCQCeZzWYcp/SKEQJESrQDmpiydljW1pz4GOJHEmocuPQE39Vu50PBiivFcsdr6jGLRzdIEDDyrtYvJA6BdEdQB+tEhIWpNwz+OjKBsqbnNELAE/L2qkZFGK4eaJCFP0qIlIhhV/kYIxmKGIKUSgQB/jz6H9/wUca/56Qi1OeXS0kCkRIutSgUqWiIaZB84KWWamBb8EgHvWVqocuixqiy6nFSFmL1KXltRsATgu80jhN5rAp/xIQ6qYVfUgLdGehgmrhJAnWwdk0JccOEAdDlF3iR9PiCFpTpK3FSopZ4BK6tqmTVeNVDCYpnWPYtU89j5eikQng/AZfsUls5JA+xAZUhh+TDCa4uXZiv0i7M2g3/oGQmEvE4e/TAcaFbubhhnA9M5pFT2e1q1B7tRgjlFF8IqAeI8ll5FKqup2oBoGAjkXUpBeQLBT/VXszHhHHgEiMJBUVKWykCEI0Ulk+2yMI7avEzTX4vO65hXEV1CePItGNlFVlOCRQDAZ3XwP2geiQ3JCmEEuy+jLlarXBJZQn9HgnmeRZ3nFCwyQhlejySGfz6cGlJRGbBShRX7obfAM306DxePbbZABdiCWXLECj4htEkjj+/lZ76MEGMy9uU3lQPef5ZROqhttBhDyk8abTjD6+niZSEh1uFu0BDO5o+HjSqJWUTzwjAYur14AyI1MHjMdgdDsnhcsEZhwfnNw98j2MML1zEhRZFxpnLdn9cwmKCDwbIzwD+FSQvXB6vxwLfoZQBiZGceYRiBSxXmdDRCy0G3TO53G7JDuVJbpcBwzIgb4Dv8Qr3hRISPBrihI3VHPmcA8oxwCeXx83yV7CIsFXhVpPuq2kI+KSWXtgsBHl54cmlgRUMJbHfiZSI4VRpKrbXwwkvDGWoCIum2xMMAdjN69k4gjHlsZqKMzq03GZ02pOMyUloqutmxx9eLxISPPLgC3HguZDv/JDgqPgFfE6GrxpAPhkeg96S0rqx3Wt3WkzpKR5gJg3g9zRORoRYTxV9oN5hQpltoG3rkhrXs0kmg1XKTMl1uF1ZIOVoBFlgFOFwXyjZweMffOd6K5LHqHdntmu+z2o0laQ3brAHiAnOdWriEm55WuQRbtl0XywRYA+AF6R6nqCkGdeBCASLsWxV3JdFpCTCLmL0WB6Nkc7hEdaEbk8ABGAG9OpcXpf+rMsunt+120ULcVB5THAiATFvYAFHQpIL13G4MJidFS6Mvlv5Sxa8qF/1QILR1eP2nLKmphwa+Ox/+0K+Jq9B38zlcPYG4tCQDWcY2FoEFuMSFzhOOQf2kv/c+O+BD+sl3QkQ9+hL7LazdHpdFygn6KRfSQNRaoSKuSfhQkdsRUqEVmNqvaw9D7zy3LV6vd7pMeicJXZ7EgCB+EVyVETPeAI8ZKJNYM8ACA6TkpKElL9FjnlEy67N6YiURNj7XFLCdQEizI5uTywEQl3E2KIJ59MGyWwoURx74MxoxKMVhZDsRoICF7egaayQk2DchP/eAD6cA0TAAov0JpfFcJCd2Xiks4GFXALfszlBC0KirhDk187pdV+rsxiXApNIgSKNXiAq8H5hBF2OztfQt8pOuA4jdlCOHEVZDyo5SSYvshZZ9gR0TyZ1ZTozoRdMUpLQMauxd/BnAMhJNGNC1Vh8olVxIiURIst2ZshMSFISIZJ0e+fzu9my16+W9Uc8XrOikoGCDlRCtcOHUnjn1ir4jr+hlAGJCQboq/DigjxZocL3czP4VAeuNjB2c0H5FOeBFsp32nRE+fIUhQ7pYiAiSIpOgrQG690SJv66ERSIx1pI0rIBO9lqCNzWZ69bbYR2WYCMmFBnRZGsIyEphXQUnyoCwBP91kDSDpDwBSUlTKhCL00QIFISMYz88D5StcCIK0IZxBcCYU1Snc/rhosq+u3ABVWtYOdRFlc8qkAnZ6hHgcc3yXCh5KRhoOb7KlGxNnhf26hNpf7llf3dGsptrVG56HgNpSR4pOV7AfGI9JimspHEJSWkPhBfz1rUaiP+EJOaq1adQKREIyRJ0VUjIBMrG/E5LbRFFYnLnwopQYlHFlwpcKGFS2gvf4lGaHdHltpn3hB2NkjQDsZQ+hFWf4bdOroxhghE9iCAhCWohU4MG1OjiyJSUqO7jyofpwjEYvFC5btsuPA4BI9j6oVFSuAmFFlXh8MnDcQN+VB9JCaxepFOSayQrmHluFxOeS2NjNvUsFZHp7rE7jTC1Wg0RqLVr1EtKJs4QyBq5ASkA5g3Knduh2sXXGh9EjBujU+wjB/8pcx+NWQ/q9Mp6aMhnGYuWSJDCI+wimLY55HVNoYVpaJih4AtNw8cDHFfJtF4UmLXlngoiUhJCL2Aw01xhVnhLlDYExqNQolCqBMljVsEor6rBmKCuifb4NoC1364UHJQcWzybyqpkXrkslVXnc6nMhUdnCNc5bH9WsTNiU7jKNcahIA8EivM4gIKrNasTHCvpijDgtEDXyMiHNs1CDttq0qkRFs8KTdCIKYIADFBC5SNCjlB89ja4lkYLSKQkMSyvVEnmjEdPFRYBQQCSO48liRrUD8lQERov6nReCJSEiKQPNqX/20s6FeQV4RxN4JlT7/HHwJBx4RGVd4K+ayAazNcRzXKM96zQX8juFjE8tiU92es+jXe+6BW1A+c/VXZ33Y4vqkVQMSokURKYgQ0FiN6xBPDKlFR0UMgZrtq5RgHSclKuFDHJJZ6FtFDsOqc8agKJUOROEMLte4x69NQK0bpNULAj17An4E0sTQqjLIJhACRkhDGRUC6HMKeSSSGQgjVoaTxi0AIo0KbRgAxwUV6KVx/wbUPObA2OcdtLqjkuyOG5sCSolwct4BQxTRAwO+pgTNC1BYM6jxNg5IpCwUBIiVhDgUxtdbKM1didIRZOt1WQxCIKTGARXMH4LIELtQxQSlCor7QKyu28e9qaGBM+7Qa2le7iwwgKQHLmqCxmfyl4KjsSmc64Q0l8lMSHm4VIkIaTcaQ3FdrHVskzGbQbYmHwBpoUlu40HdJOlzoVC3RXqg78zNcsfRR4o8hrTmJNqqgPcg4K1jNC0QJdrldvrVUq2CWCQivUJNIUiIEU+BEaqVX2j5FAGRi3lotQwKkJaj8+QtcSE7QBXssrVNi0ZN7oJDP4PoB2lodYvVq6ddYAFury+D+ePx7lwUK1lX5DKEaLCjD+uCjDWdkI4lISWT4sRDv9CIEKkGgWhYwWKyRjHwLFyq/omO1RHnthYbMhesjVQC+6mhbtfRrdTS01pRZWY8i4dDrgxJ70Bf0raVESiIbNXR8Exl+LMQ70ZIIQaTbo4HAH5CpGS4M2odXy2gUEsM8kWghIfkQCElODMv1L4oISTWCH/WiK7qJ91pM5oCektV1Ucc+o41qZL1EkpJw8PNjIZX5Lgkna7qHENACASVS7u+Q15dwrYILI+rW1NcmqPh0uCZCu6pbgZdISU0dRSL1DtC7Ij6oRLKGNDR2BIAiUiIAklZJHE477FhpXGqFZ7zkU84Si4XAiA/ZGSzguMPDI5yv4MKowiXxgplgPdBj629IRuCaCu2pTsVWX5X9ezc+elsQUUoWEIGqnJGIOL1U/JkQuhogQKREAxApi9qLQGWxkBCRTuddWu0MFBZydKSGlipITNCHSU2JFYOSHZTyvAnXHGhHXpyMMjiwLf+q9k6OE2BqejUi6UdyjKld75NOSYRY8vNDna6q5SnCQuj2+ELA79xZ/ae844pketO+qbigZ69b/TXknAQXPvMXwIX6JvH6Qrf5qKiLOiRboP5BFQ1j1RDoX+xcJCYVrEcrqiPEqlZUThQR0Ikc3/hICQ2CiLuCSEk4EKrWHK5pbTQaQo7BgTSG9FHC6YDquUc93/C+w/5Dk0AuwvfKwULZCNm6fo0uHqQlWBdUDgVisgg+onQUfeqcD1dq9SBZaalozrwWrs/xgjrHnx4MspFKWGd8UdE469k4r06EfacLJCmJMM84Ryx61SNSEj1sKecERqAqj77xSjRhkT8KxORT6BY80imACyUmjeOgm/BIaTdcy+BiirlQ17jUf+GERGT3HAe4UhUiRUBQ7OlPSiL1+B1ptWvy/URKNOo9j4dpOAq/SDlOGKq4Saje+VTYBemhR91eyQOCfQ9IS9iiJVuLx9WGCRb740BMUBJxHK5DcF0IF3qAzYox0CitwXg9B+HaoBASdPp2NM5jzOgMBiYVjat+jXHf1abivGazuVS0wXxQVDjbE82A0rHzZXppgYAAoyYiogXQcZCHajnCYxzcFbFjPHCkp4dL5/YY0W8BUJM4qGzFKsCinwvEBJVfUTrRHS48yukAVwO4MuFKg4vrn4i0Ac+s/C/UA8HvcAHHSL5oCVQMFx7RnIbrKFz74UKX8evgyollcD2RRgVKg6d19pLSdPDgGdImJNzy6L7qR0DEbTA89dVf0QSpAZGSGHakx+U2xek6FUMUErcoFI1YTWbp1IEjZ3WymG2OkqA+l6oNDMVcOBvICUoqMIhfO7iawlUfLpSaIDFJhssClwkunCu45AeJBko68NiFEw58x7/5xX/Hv3GniReSEpSOnIILiQkeI5XGuWSkXB/pQaE978Sp1mbw8xl3YrBqG01UMD++kQ0f4nMzUlN6iUhJKD1VhdWFSDYulyueLR5EmkBp/BAof3ask4xGo1R8KreFyWRyOHXxS0p4M5RYOYVATjCmDHp+xTGK8wISEYyOihIB/hlv49IPJCYoDeHv+D2XjuBnnJnLvdck8lHZQAeX457C/IJGRi4ooTWI5gRAALgIYyLkYj7y4UCkJAIM0eoiFIUmFkNBkfIxu0KS+EWAfnzcyvdEbCwoOySvx2Ns2baLZ8vfa/D5EpH+VntjFMLAJRrVXp+4rYAejuXcbpPP2kphbbQ3jtsei0nFwCVEjXjOYwJGhIXQuWgEAKpJhUFvCOpLAVi0nkv2KD5CBMDH2a0+XzUK0YTgXIb9u/9h4n16JRwCelBm9nWt7zmWHdTIL+r4hOh01RwdlHM6nU5GVNVzAQ2D8IYBkZJQcPMbmuo/UawbLCt27qj4gyQxXzC0at7vqOyGIcyLcvOblBYU1VeHM695raEaB0LA6tW7T+XktNbp5akTn2Mm9WR/EGa1EQGc1/FCaSmf39lneoWFAJGSsGCL4CamCEWvREAAe5JZ3yhEE61tcDIqOpnbEvQOGoIlDnV2InS00gZwhmdM0htdJw4dbWNUSAkXkNAilEAdrTSFP9ciG87Ea331tYhISQyx93ewQ47pYwh+FIpimpwq2sE3R3h8A7bBTPuNXomDADy/Zr3BIHlcLiuXizJ/FD7FIr6aJU6bqSXsSCaoFBxlJISVNggQKdEGR6FzZPRdwYuj5Uor4OMsH+hYl9NpOLht10UGL/myiLPeiag6aFl1cveB821FJfUZ6URCgquRWus1ohLo5pqOADGTyHuQSEnkGArn4LDZUzAxWd0IQ1bzEsKs5Cy1Szs2/XMFeFCrefWnGleKgMFk9Jzcvu/SkvyCuh4gJcxhFrO6kp9p6m0aPGoEiKCENx6IlISCW4SzDlrf+IK3RZhXKNWmtFFGQNWX+NEIIn5nUWmWx+lO2fr3GvT1Qa8EQACO5aygxNwSHKiBQxYIJ6CS2JO7kgToYGpCXCBApESjbggpQJeyu9KoaMqmGhGQXcyXVQA/6s0m6cC6f3oUnDrd0q1jzsjolQAIlBaX1Pl7zdq+Jn0Anknb4gTo4UiaUCb/JsvKSHCUvTXSSwMElCBdIeUUr9FkQ2pELU8s+ybwAwFE+0abK9lRVFIX9IjIQWGCjBGvzZHiKixpBLpCCdIiaoZWCLjdbh9TJaO7yFAlUhIZfr67BTW0NSqNsokbBHxOKlQ18nilJLNF2r1j56Wwqw7qVC9u2kIVqRSBbevWmE4eONLhxPEcEwZdpBchoEYApKVsUBAhiXxcECmJHEM5B2VQapUd5VNzEcDZyQRz1OljOWcYQP8A9EpoFau53clqbjYaPfk5J9ugvhDXaMUFiAlNlN6lTq7hnRy4+kIHcxT7Rru+J1ISCpbK8PSX3jK9ghB075mmvr9vg1DqQWnjGgHsWiPoHezbvuuCFJPFIbm9pFcS1z0WvHJtul7oPrhx6+WWlGSfeivqDshePPm+JHg+lCLxEGD+pjwVxWdEUsPrayIl4eEW1l1w7kj6BWEhV/Nucpn0kjOvqMmRrbu6Gc0mEedLNa+RtajGu/5c3TAPJCW1qMnU1FAQUKIEh3ILpQ2MAJES7UZGUDGfw+FIYjKVoCm1qxTlVD0IuODJ8hSWpB/dtvsygz6QuUb11ItKDR2B7Zv+MOUeO9G++ERuq9DvpjsSHQHZ1QMEW6WXJggQkGHAGEgsp/bWWlmWEEMBlB5JqBcG5DXuFhTtWwxG6c9Va+6wFZfUq3ENoAr7EDDrDMbflyy/z1FqMxEshIA/AvK8ThO7ViODSEk4SAaQdIQq/Ag1fTjVpHuqFwE0HT124NAZp4/mtNuyfjUtaNXbHWGXbsstaLrzjw3XGMx0+ho2iAl8Ix7Luz1uWks16mMCUiMgw/FTIhdNkhONuiCusmHRgw06SQ9eXQ9n7+hx5nndnHFVQaqMEAJbN601HNt74Bzn6YLGBjqFE8KstiUCf1M6jxuCcNJLEwSIlGgCo3gm/jra5P1PHLualNIAqq1uICVp5iRp3/ot1xzdspG22TWpA5W6WgwmadfGLdemGi2gDUbyzRrYhVGvMvqo4ibB6sJotIQHPZGS8HAL6y7YPYM+VPlbyQ9TWFDG/U0o//IoHpVOHTxyzsFdey6J+0pTBSsgYCh1Zu75Z2t3UFaWA/DRixAIgACNDO2GBZES7bAUysk3eGkUC+FVUxMh9+RdXFpQlLz252UPHNjyN/V6DerQPVvW63eu/fvWwsM5HTwGICW09a1BvRfrqlLsAa0QJ1KiEZIiAflsNlsKHtfw4cuc7tArIRHAPsb+xfhGVotF2rrqz1tzDx07KyEbm6CNshcWN/t98a9Dk/VGyQWMxEusJEF7Wstm0b4jUjSJlISCYITjDe3ZKxRHxCSUHqgxaZGM4BrGgi5CgD6zzZ267a8NN23d/AdZ4dSAXty6fo3l6J795+3bsaurUafoMNKzWgN6rrqrGOEiUd3Vj4PyiZSE0gkRTkrgYseNMn1crHwLFo3hUHqgxqTl3cpCCsB/VpNZ2rJ23S3JXnBeQq+4RyDVmuTcuuz3wWnWZMlphKjP5JM37vusuiqo84AMzSspa2nZQKGpPbweIVISHm4V7lIc6GiUG2VT4xFQpCQ6N4j9YcbyGPXS6X2Hz9mzdsPNNb5tCd4AkGbpio6fOuPglh19LGAGjFY3dHKT4J0eQfOcTqfF7XJViG8V4R42ghrV7FuJlGjUf6CdTyHqNcIyUbLBKLJGxWYDJSYgJTEsXfTNS1tWLWuRKG1MxHZY3VLKT/M/H2HLL8zC9uGOl9QYE7GntWkTbkhh40GCEW3g5CInjXJL3GyqHHC4+ID5Z1CChybBaohI0TVxBwy2jCk1K03Ez3qw4Di8Z1/nXX9tum7nhj/I2VIcdv+mTb8bcnYfuHjzktV3mC1myc0YiaIbRPb7cdhj1V8lIiTa9kHQhVTb4hIzt5AcoPnL9EjGl5iDQqGf6HzaZ4kDztTqpmZI2UtW32v26qyJ2fCa3Spwkqb/65ff7q9rTYFzG1T+UklK/J0M1eymUu01QkCJe0YzuUZ4EinRCEiYwIKK7zijDp5Sq0pRPtWFgNpPCTsCwN02Sktgt31s9/6L/lqy4v7qqhuVGxiBXf/8pSvac/j87X/+fY3eCPrI2InKUqMH/UVadWjkBEKAJCXajgsiJWJ4Bp2PRKIEl5aWpuFRD70SHwHey9zSilnhYDwcaLoZDHCWz//q5c0/Lia/JXEyFDb/vdrgLCpt8dXUmRNMDk+GS5kZWQwjJJWMWcZJZakahEACI0CkRKPOFWHLuC5xP/NBWY5G9aJsqgkBZTHjekPY3/jZDcxEB35LLCWurNXf/e/paqodFeuHQIrZKm1f/VffA1t3nm9Cq23FySHzMwMXe17poaVxQwhEHQEiJRpBLGISrCYutOnSCPgakg1KSrhDNbbpNhmlrX/9feO6+QuvqCFNSNhqbtu0Vuc6VdDq7x+XPVInNV3ywKzoMwFWFF0TtvHUMG0QUAwdSBIeOZxESiLHkOWgEzAJDujRVaPyKZv4RkDt54KpKsBip7e5sr6ePOPjzSuWtInv2id27SxOKePLj2a/m3fkeCsMu4e6P74XSUcSu/M1aJ3b7Ta6nC7mqTkkowcNyk7ELIiUxLBXQcmR/ELGEO94KIqJ/yt5GXV6Kff4iRYbflz2n/3/rCfhWTV02O6Nf1q2/b6+3+4/N95oMVskDzpK4/UgQlINPVIzi/TpFNJTHHEHEimJGEI5A5H5i0KfawR2Dcum0rEBSs9JycnSusVLHwDfGN13b/6LprQY9u32jX8Yk126lF8XfDk8w5Jc9hyLPMwxrCcVVRMQ8MomDDR2Iu4sIiURQyiegYgyrHhulLImIsDPnPGdi3r1bk/GwrcmzSs8knP2lo2/0zMZg47N/nuN2VViazFjzPjPpbzi5ur+iEHxVAQhQAhUggBNgDEcGnj2GMPiqKg4RIATEfXZswHiq+hyi5uv/vZ/T2Ylp9FeKwb9lmpN9mxf9vvAg5u39Ub8SRcgBqBTEYSAAAJESgRA0ioJBm7iOnS08miFas3PB3fpOrNR2rHijyE/z5j/+o6/15K31yh2665Nfyb/89vvg1d9+cOz6UkpEkTvjmJplDUhQAiEggCRklDQijCt2sEaTYMRgpkgt7MdOlxOMM+x6ozS6s9/eOLghuzrEqR5cdeMfzasSSk6lHPm95NmvAPWT6lujAFM7uPjrp9qUoUUVzY1qcpxXVciJRp1D5EMjYCspdkYwC7LA7FxIPaKBRRfHz2ydVNSLYUias3OXr/GUicl3f7Xz8sfNjs8mXojHNsosW2iVihlnAgICAm2Ax3NJkLjY90GIiViiBPnEMOJUoWJAHNnDpfRbJKOZu/sNX34G4u3rFjaMszs6DY/BLb8vcZq9EqZ30+ZOXHzryvvsVjhhAzwZrhT6AcaLxEgoPgpMauV2CPIrtbfSqSk1g8BAiAeEMBowgaPlznuMprNUt7Wvb1+/ujT9w5u28ScMtErfATA0iapTlqGfc2Xi4et/+aXB1L0JskBbITHIyI7zvCxpTuZwzTRdVRI4lLbMRUFs7bjpFX7aVBqhWQC5YP+a1gUYVC4xHd8KA1Wi7T/7y03/zRxxtSNy39pl0DNjWlTdmz60+IpKGnx7ZQZH25avOzx9NQ0yQkAG9GNIRBAdClPviVi2iUJVxhISDxo4Z9wDaumBpGJqnbABx2U5Rg1ioxJwU479GtwTuhFFF/MmyiLtSLv4jEw3Maffrvn5PETTY5nb7qxYeezHTW4mTGvOkhI0l2nCxpPG/76YmdOXuuMlFSmUMwUE9mxDRGSmHdKghZIU7l2HUuSEu2wDJqTx+U2VVBOIW2VoLglfAJFp8EXURjGhAEWTVw4U1JSpGPZu6766NW3v9743XfnJDwWGjQwe/1qw/ZNfyQbShz1vp7wyTRjXmnrNMDRhfGGFD0SJiFBcqJBeZRF7UYA4iUF3ZDWboRCaz2RktDwiii12+Uy+zIgah0Rlgl1szIWfDMbfHBjVGHFXNUEOiaHN2+/ZvKwUUtXfb6o585Nf9JzW8kA+Ofv1SYQN6V7couaf/DsiF+PbdvVw2QyMTx1KIFiEilZQoKfaTVJqCepehrjZTI3OMUJSnGDJqieBsRXqTS5xVd/UG0IgXI7eAzohzNZCgSLSzKaM3/44JMZh7fsuAocgNHRq99Y2bJ+tdViNFncJwtafjF+6ixDfmkrDLKHvkjYcY06vcq5BK0U9NBFioAcNYIobqQ44v1ESrRAkfIgBDRGQB28ESc7ndsrWXQGyZ5b0PrTUe9+seH7JY8d2r5Zv2XDGiIngP0/G3+3JqWmeA6s3XTz9GGvLj25++BFSSZL5Y7RSEyi8YhN6Oyq5K2oKwhmwYaERiCGjSNSEkOwqShCQBgBICLqhxMlJnicYzAYpCxzctLy+V+/vnjyrMm6vJJW27fU7ujC2ZvWJpls7vobP/vpue8/nD3F7PRmmo1GOLKhnavweKOEESJA8rYIAfTdTrssrZAUy4dmSTGcan0qHChsTVXmOp+lCJAV3JMle03mrT+vfGD3P9ndBz//eP+92X9vLS4t0Xc5v7urtoAH1jVGi8FkNHt1SbPenfDx8fVb/y8pOVlyG/VMQoJKrUjmgr3ooQyGEP1eFQIU/V3b8UGkRFs8KTdCQDME1AtquU0/04/wSiaLWXLk5J05a/jYZV2v7T3h3Gt6T4XCj2pWgTjNaNv6NQaD0WAEa7aMrb+tvW3tVz8+U3zidBtraoripVUxsRYgJHHaRKpWDUJAiWlWgdvKiq/lvib+K9CvREoEQKIkhEC8IIDkhLm4UY5z0JeJzuast2b+tyO2rPzjtvXffP1QnQ6tfi+ylRq6dL3EGS/11qoeWzb8nqQ3m/TS6eLG3344c/zudZuuz7SmMJ8uTKEVzX7BvIZJluhFCESOQNhEgim+MkV1HzmhUSnQH6RTIgCSFkmKc/N0paWlECc97DGuRTUoj5qOgMpqhAXxA5bigqc41WKVHEdOnj1v7Adf/vLR/Pfdx/M6792yPmGU71Chd2f2OrOhoLTZhm9+eeLjEWP/d3h99vWZ5mTwPwKeWVHfBvBAeND8l78qIye0OtT0ByH+689NhGVDdBSaEFUW6TWSlIigpFEadEesUVaUTS1FgPvYYHsv5pYedCcgZg66TvdYjJKp2NFg2w/LH9m0dNXA3nfeOmLv+j9mS0Z9kc3p1HU6/1J7TYNt6/o1ZoNOb0o2mqUNa9fdsWL2F6/Yj5xsnQQkzGg1S05ov8Et645g/CAmScJGKh6TK9N1pa1BTRsJNa++XFLiq7mONK9FepFIiQhKGqRJycr0vvev/9JcqAGWtToLRRzMJjxFPIx4oMiT+eLAhdkM5MThyVzx8cLxW5f/Pqhjr0vmtj6/y8+7tqzbA6aLTrfL7e583qVxPRa3b1hrNEHE5OL8wmb7t+669J+fV9x7ZPOOKyQgYpbkJOYATQdkDBkIJ2cyF2EOI3ymwP4SkbhudK0e2InfeK+H+xFO/LZG0kIiJWLoaT+XUewbMeQpVXkEFCVX35fcKRiXECs/oOkwXnkHjl6wZNLsCzLq1z198dV9Jp1zTe8p9nRLweZNv+thUbd1OSd+pCdgTWNwGXVJYFEjpTokU/aPq+7+Y/Gv/z28Z3+bZFBiBUMb1jqMpFy+/WWN94nKlQTaP7g0IAkBQQRgjtezsaqTnCaTM7VBvQOCd9bqZERKYtj95UzHSLckhsjXvqK4d0mUHKSmpUm20tI6P33+9fBVy1cMbntmx1Udzj3724btW63bs/mvQ3bJ43F5PN6zul4S04B/mzesQdfcRj28zDqDzl1QUr/g4JEzN6zbdOOOjf9cfvrIsY5WJChQf5SQsICFxDJq32CuoS3mQ5VFATcZ7W3btfurhjYlptUmUhIjuItA0XX6U8NjVBoVQwjg6Y5iGot6Fzq9lGqySrrc4pa7lv/RcsOvK+4y18881OHCc3+45IpeM7Lq19sHmB3dufHPdKfHhToaLrjbBZm4zjq3W8S6UP8AAYH8MCClEfyHGA2SXp+enJLvKralFZ3Ma75qxaqB2//ccPXJPQe6pOnNerPRJKUbrcyihrUCvdpSpxICNQoBJbwBKqPj5fEkjOJ5NLuBSEk00VXlnQo6JePvG0r7vBjhTcXI+hX4wnema4HLO+qkACVIM0HU3Hxbs20/rnhg929/DqlTv97et++5fxfooPyUVDfjSMPmzbbpLaYSi8WSvyf772K316P3Ol0GODphL6QJqkuGW+YNeOmxSL3B4NUbwSZGD4ouTpfFXmrL9HjcluMHj57hyi1ssH39pusKj59sm3f4+Fnwm1EH0hA078UX6K4q2Zf1pAGyRpJCL0KgpiEAdjfEqgU7jUiJIFCRJis6naub8vjzpkjzofsJgXAQQELClnNY+FksHXS+BtITswkCVzs91oIjOZ1yjxzvtG31XzeilKR+wwYn9BZzwdkXnPtjg6ZNsnUWU2mjVs23ZDSqvxvIhh3S6NBjKuQFxi8w5YJlgQE5j2xhxlRwC3NOtT22/2AXe3FpVuGp3BbrVv1+m8NuT80/caqBx+YwpqemMbKE+UAgPdYsdjMXiYAiqzryKhGScHqe7tEAgTCZsOyfRNZJJ3Ng0X4gUiKKVMTpdJLDabNEnA1lQAiEgAC3RlGEJLIoQ5limcdYtF6R3yQ4UpHqJoP+BhyvePOKGzul4sZrv/ulg8vjxjNxyZKWXGBKTjrBSAdyG/gATss84F3VBQY9RjdIQxQ+gT8ZnKX2Oo7C4lT4XgIXb5JZL0uvMw1WcKxiZWa8XiAlLmAl7D5kMsrFEgYPBR8CEpSUEIg1AvKDxhz64b8kKxHqACIlQjBpk0jeRYZJurWpAuVSyxDwD6fu/zd6P2V8QPEQiybF8kv+gETFAJQCpRm6Qnu6t8Ce7jPFhXucSCq48Qua4uKdCssxoPkuSGMgTA/LHwkIls8VVGQCAgxI+UIkTk0t6z5qLiFQ6xAgUiLW5RozCZ/bYbHSKRUhECUEkAiw0aiIONSSFHWRTIEEeAoTjwDZ4C/2YPj+lD9wj6pcIuPLU6WsqhZmy4QFC6iikVyio/GTGCVYKVtCgBAIEwEiJWECF+ZtqqmfZtcwMaTbNEaAjUTVcAxodqtIOtAsV/SFRAPzYpKTAC9GdJTvObmp1OSXnzGJFk7pCAHtEChj4drlSTlVggCRkmobGsG2htVWMSo4ARAQGV1cgsEkFbzN8FkdO8an64EH46B4isqsQi92HCS//HVXfPcjYVERomB2x+SjRAh5SqQtAkRItMUzaG4UkC8oRCyB6FRcaW6pdTLVG0OxUikVIRABApVJKHiWOCDR8bX6CAYXfhbYTlE49emcKI8ApscYM/wdP5e7kNTgd/xIRlUYk5ow85qyJwr/RNLiT0hwJcD68ysCGOhWQoAQqEEIECkR7KwyusyijPjdJQenrupVCM7TdKDph+k8stVk8JLZVjZ4MkpBCPgjwAiHyNgpd34ij0r1fb7PqnRMYqGQFk5efO84ZFW/+ddLqE7K08HIinJRDxMC0UVAGeCqZ0aWNuKsXfVk7ZWjQMI/MrWmaTuyniJSIoAfjDklvmNlRCI4wfC63SZnaXGGzhtMSK1UiMvffVkL3ifQHkpCCBAChAAhEAAB1VTOyDeQjWAzL9icKea+Zctp8BWB0K8MASIlImPDx5RVeqp+9wXbAer0eo8pNfWEF3w18HP5Kt3p+I9qMK2kFyFACBAChID2CKCsm5uyc2kHHkOC+bvZ4PaCh8GqXszRDszYTGIiIgPXvgEJlCOtdAKdWV6kXf7ohUv7uP+nyrJLq5PlemTUiOvTWrXYzM/pGZERpdSi6QTaQ0kIAUKAECAEyhDA6ZWREGWexQ0j6lZBlKYit8VYJIaVf4xqkfNTsZxrUyoiJeH0th9BkIde8AGY1qZ5Xv+nH7sno03LfzAeCHj5EytdMJlYZpSKECAECAFCQI2Avx4IaJJA7ANz6eUD+71x7g1Xf1cVWhC/mukLMr+t5dYG2kmGM8qIlAiixi0Z2JGLiiT4DAmMertIVu0uvWD9I2+91jO9eZNtelCMCqJDJWdJY1sEWkpDCBAChEDYCKAEG6XXzHux2VTSc3D/V6975P4xwTLUeQPLyWnaDoZc4N+JlAjghoquXBjCyQk3WWRRV+HHE/sPnpWzbWdTgeykjDYtcu8a9uTAlJbNs1Fiwk5xSBoiAh2lIQQIAUJAcwRYmAVYDVHfz2s1F/ce3P/164fe/7pIQXqT0cnCQcFCUYVuoW//KpJnbU5DpESs98GWV9ZgYuyXvyufkWEf27bzvLeffHbp4a3bW4pk2eaSC9Y/8e6Y7lktm29hSt5Eq0VgozSEACFACGiPgEIZvGZTaZ9B/d+4duj9r4kWsv2PdVd7HK509Has9g1E+0xRBMunI1IigBuyaJc6kIdyDzJrfOE7BhbzHDvVftGbH8w8nr2jhUC2UmqrFnn9nnl8SHrrlpslJYKqqJqJSP6UhhAgBAgBQiA4Arjp1JtNtt5DBrwWCiFZOuPTBz97+4OpbofD5AELSZR743rA1gbaaAYHPkAKIiUCsDk8Lr2TW6urBxr/DO+g6sS8VR7auLnX5CefX3F8285mAllLbUHH5NG3Xuud2rzJFkxPEhMR1CgNIUAIEALaIeCxmIt6DmE6JMISkvWff9f/x2mfjJNKbOlces6icAc+qEHfybTeCnQZgSQA0gU9LvusdY9Lv9YbDUz3w+fTVVF6ZYpRMBKRHeshPojt+MkW88a+M/f4tl2iOianBz3/5KDMls2y9cC2y4n9RGWALB1Rc4HujF4SrgTN+0z9jsd/fkrSsn/fIC88NVTfp77Fvzx1VlVkzcpV3+v/mefjV99Kaxrs/irqKYBAuWJZVoHq7ldnjm2F/OVT2KrbHwybQO2p6p7KGql8HyoGwYYM/a4g4Acs+9N/TMNgMppMjssH9Rtz/SMPCBOSxZOmD5v/1nsfSSX2dDQlxkGpOFtTPVqwUYW/UIquN+jdEF07mB826jqliwgIAQRKTuSa57465tPtK9bcxrS0FZt2HOOBqIAXwrsbGtTb8/jbr13euHPH/QJFSMV7DqW/9/SwVbl7D3TBfD0Y6l1k4RLJnNJEjEBlfe1bD6GvPB60qJIlXlzpDf/mVBPHBdtNKS/87OtjZcHk0jK8xwv54YTHo/PyvH33K6s05qHOt3ICgYVAmUCeef2QVKsV9DAv//yqarsBRdZ4fMmccsvzPrdiwHrgZx202/9B8S9XtIOwboiz+n415gHrrwQUxLbzAIT+sYHU/VUZvfcvk+mDKf3N8/XHKlB9RNtK6SJDgEeqVo9JTkrRD4kblFqvvKvfm1c9+sBI0ZK+nTB1+PK5C1/S2RxBnKrJljxus9F79rVXTB8y8sUHRMuozemIpIfQ+we3bGv/05RP3tzx+583S243WwQYZ1BmMD7Yfeon8GPTc85cccfTjw5p0rnjPpGidv3+13kLx42fmbf/UBeYeeVdcjABSIU0fKoUKZHSiCLgTzZ8ZAS7CMZCcr3ME/WbN93k9nhwCUZXBx4cC7jm6/V6d97hY2cWHj/VDLz7+kgGs97iitN858wWdiC1yVZ70zPa/OHyurEoeaMHmy4YdE5lcYVNmk536vCxroWncusgOfARE2VM+IaG8gGJQ2r9OsfrNW38DxAevB2+YmJlLyzKLsntMeTsOXCZs8Rm8cclEInAejrdLqlF5zPW6KymIkiDeenR8bbPag2+OLBtZw+Dw2NE91I+s0s/MiTUD4Cs2+WSWnY640/JairEsvCC5jGfhAbA2V5Q1PTYnoPtWKPwGYV3Fxy/1mnS8HBWw/o73NheMJYIUB7rYr/vy/5GeP2eRvxbGRccQ2web7tHZ9C7Tu0/0rXkVF4DrCVzr6U8z/59I9R+ShQaAvyZUqZRhrlCnHVmsw2sbFCH5FXRTH/9eO7QxR/NGKcrdSShA3oc/+oNCHtGlQ0CWuN4jUbPpbfd9ME1D9z7ZHKdTJKUCABNpEQAJHWS4pOnLHNGvvHZnpW/3wB7NTaF4WyoDv/OjniUuQcBNjeuv3fou2Mua9Sh/RGR4vL3HMj64InnVhfuP9yRHU8qvcRZf7A8RNMFy4d+D7A8KXwP3/gizfra5ZaaXnDmkn+Nfv7qkpISE/QB4xrwGy72XqPF7Nrw7a8Pfjvxk4lWi4UtzGynhkd+yuKs/htWeqnFpef8b/ArT11XUlpqNgJ1gLSy3ARWWr1O53ZBGclGs2f1ou9e+GnWwtFWE2zcUBLAZkZ57WNHi3C5DOCcErgNLs6X39f/qUtuvnq8y+FkAhz4Wm/ySB74S/IU29InP/XKBseJvOZeIyjuKeOYe7jk0gT+t8vjlnR10w48+c5r50qp1jwstnH7M73Hdm6R40VBRRu26+x5vf+gtQVb91/kMSBTk9vOJCjKYhHKWCsoLXY9M+nN86wtG25HXJTmsg8ms9l1+O/sKz8Z/fY38JsF88c2FNhKpGv+dddLPfre+IbN6TBCtbwg3dHDO7zJZ/2YFrEAqBBE5j+Lfa98xrbx39lzKZ8kMbmXAjdLj98z3KDfk1JSbF+9/eEnW376bYjXJB//soGhzBH+C1ooOFBaMQQY5jgOFAk3dpAeCAn4IXkNzH6FCcnvn35xzxcTpnzgLbGlysFuYJggvw2wirJn2qx3n3vNVbNuffyh+5PqZLGdBb2CI2AMnoRSqBFIqVfXfmTbjkc/t9mtBzdtvdzrcOk9uD1URPJ8spFnM3m77Dh2svWnY96ZD35MBjToGJyYoB+T3b//OfDTN96eW3jwaEe++xVSglUmPeq1GCKAiyxIP44ePNwu50ROE5tBljgwMuKFjT387rHppNSGdffaPS7JqrOyc2b52EbZNvtVF6QtUr2WTTceKjhV3+t06w1w3OKUPe2xG8CfggcJTZHR5GzUrtVaQ7KlRO/wJrvZBCmfY6snS36sYrCanfVaN19/vDg/E8YuEz/DPTpgUW4XUJS8g0c65p463ThdZ8TyWGmBjkkgLXvh1u+8Xt0WFJskt624oB5+t3nDGulEcYEO6uhFmdHWreuc2V//+uNvm3ZeZDVC21kd5fopH0PtLEO+ozi9sKSwnsnNWBML042fzC6zDUhLFuSNxLDMRNOgl0pcDtNpW1Fqsd2eirpfPtIhV4flIR+WyS+FdHBihr+jurschQpPwOT6syCx7CVLUtgnzANu8Bjcdofd7WTzLO9tJtJnN4babEofCgIMb9UY4Efuktlcin5IQpKQfDT7v1+8P3mMZLMnyyRUeQBkcZzct2w8yA+py2J0dr/txgnX/+vupy11skhCEkLHkaJrCGDxpE06nrH3vldfvqHHnbeP0llMJTjB+SLiKDtTHKayh0Bk017p6MbsHuMfH7b66JZtLUWKbHvJhesff2/cJRmtW2ziE5rIfUGPeoQyoUSBEPAtPr4+llMxpgDLkLOguHHuzgPnWHQGlxHOCIwur07v9upMcNJngs+ZdescsaSnFpfTh8DFESc5vpop78Vep9SsVct1IDHRQz4oWQCW4/XAIuyGvDww5rwWJ5xB2F3G+q2bbzCnpeQCEVLqw739lW8FZp2cmX68Tr26+yWXWw/5SBBsTMJ3yE9n9erdBYeOn+EoLpEXUTVfUj6zuqr0nCxpKXnn9Lx0lhsoEtRHwrai9ALJAuStNzrZumxpd/aZi+0GrxN1T0ABRZaSIIsIzMmCDUAdSH30Jjdgo5RjcHkNrDwXXF4dki09PxbjTA6eRxPUj7UX64f9wy+4F3rNi5hgnjrMi32GfKEPWd5YBnxngHcj/C1/xt888JvyO6bHS0mDeSBVAUFU4Iayb4mcBOvvsH5n2DLOqjB5/Gwxl/QZ3C8kQrJ81vwHf5o+a4yu1J5cJt2Tdahwbpd1k5BlAquHsS0lWQsuuunaKdfcf/czlrpESELtPCIloSKmpE9pWN9+4+MPjexx563jJIvBKW+Z5PmFibiRjHCphTLpuHJOtlzw9vuzj2SLERPwY5Lf75nH7slq3WIz6iHQ3BVmZ2l4m7oP1Dt97HNXqd10aOeeS7A4MBHHA2cPSiGUceA1pybn1W3ZdIsLdCJYGpjU4PjAVzueH/AZyZSeUpDZqP5OmPTg+AfVXb24uXai4A3ytaP+B3yG/GGcWU0l9Zs12cEmRD7+5I0/e7HdIlYG3lOzMo8kZ6QdZdQA9VNZrAMdHt3okiyW4pMHDp+TlJTkU+TGHPmRDZ+QgXfI0hOoZ6P2rf6s07D+Thfop8BOFPLEaRr+heKhwqhbosOjmtSG9fa1ubDrUqfT6YvGKluthffi9UJ8lWcPVWqwrTrAzxQoV8QBfmP9wRQ/ULMEDTWVZ5dJLuQKybnKxhPM+QSuN76/+feoOyALQ2VjT6V8rAP/D7V24BdDOWsgpdHhtj08xGrfXb7nU5FggA5JaR+mQ/KA8JHNrx/N+u/iydPfQQkJO2pVYORDRZ7v5Z6E4SSlNmt8aPCLTw/q/8LTjyZn0ZFNOKOOSEk4qKnuueLuO0df1O/WN/Umi4Ofk8srgR9DV1j1kQ1bekx6+sVlOdt2NRYput0lF/z9yFuv90oDPyZ8Eiexrwhy2qfx7bhUExPfAGOf4Kq4J3t7b4fDkcIWKFnhE2mDAZZqg95qLmnYstkWrnzJVj/VwsylBy5YuOFIZnNSVvox1EnBcmHxRZEKuLOWbPC3A/J1oSoTHifY3E5rw+ZNsx2o8cAlGopKZtkuEc6RQDk7o2G9XW4wTQRCgcNVLh6WZrQKgj8Mx/cevBB1U1h8sQAv/JaRHLg531YstT63yw82t8sMx5c6F7YTTzdQsAOCCJjE4QgFzoE8IDgx653nX97jE4MFZAfMUkd5hScpQVLBocN3xBkfD/QS7rPYD1B9pt7KLvlkh6vc8HtYniwPaAO8m+CyQF2t8G6FMtk7XGa4UGkXNGRYL/LnXSYo8p9MP8W/Pqy5vM1KBUi6qf2zyp8tplSNAx0coyEhAT8kQq7j8f5ln8x7+H/TZ4/1ljrYkQ1K+NjzxI/qlWeBH8x5Ui2nbhr6wINnX3flt9FpUe3IlUhJhP2cnJnlufZf9wzvcddtr3ktRpBQl+3+2ITFd0U4mtmM7pUcR0+0+nTsuwuOb9vdRKR41DEZMOypwZktmm0HMw7ZzIC2WSLQRTcN72vcicEibgIVyeMHD3dwFhZnKpMi0zfgq58L5A+tOrZfZbKYfd3Hu5GJgNEUF95QP6V15w4rJZhI8fgHWQ18jU6FSzuf180O73YYA+xkEEmLy+02Nm3VYp0dlU4hoZyXsuIqEyd+V2y3SXDUs87mtCczBVGQkLD6IYMAxVlbfmHD4pO5LVHi4gvCrlSQTxRsUmbbQ7A2ykgvbtax3SrQmbBiPZlAAcgO5AktYOWjUq4RqwLOBw1tzuywJKtJo93YTi73C9fkHduNermKQBJx5ljLvAAqygkC29VCfU1wmJZkNJcmm8wlySZLcQpeRgt+Zhf8LX82W0osBpNDqaMeyjLi0Q/kY0TihuTTajTZU8zWYkhvgzxtSSYL5Mvux3flgu8hHxgX5Z5WvqngEht6lqPzmPJnwQNH7KBD8moonlp/njbrsR+mfvKm12ZPQr0oNoYUTSEu3cRnQd4oeqT0Fk32DX7xuSFdr7nih+i0pvbkSoquGvQ1nNN7i/PzR6MwfMX8z4d5nE6m9Y/cgVsvYDF62NcyUR/MRkc2bunx3lPDfjucvf3ypp07HAhWjXaXnP936Z4DF739zPDfwDqnKxP+42LId13BMqDfo4KADL9siovKpfn5+an5J3Ob1MtIzeHCBkV5UgcLs75xqxabQdm00FviSKtQIWUHZgBLnXZndvrV6XUjx2VCN1SalU8LfIutMueCxAOOTuo2bbQNLGzwZIWtgJwD+8rAL8CaJrNJwx1AYkAUws7E0foEz5Dg2EUnHT98tENJfkFdLJSb7cr2rcpgVj4b4Aunxyl1OO/cn9Ib1N1vB27DhiL8I3tpUTT/+NEGVgIUfw0Wa0HLszr++see/R2SzLIFklCU7AA9xzDBZ0p24YKrBqq8elh9sQIcBOVelP5sX7fxpqMnc1oASEwSwjpOXmuQxDAzbpRuAJ6W5u3brDuz24WfYs3BTMcAd8ieVvR4KqXzrv556aOnDx09E0y98SjNwSArexZlEgJ1gmNXT+7OvT0MQGXYXgIrp9RJ/Tkqg7OWZ8rcvkMsG3CMhjokwo7Rfv14ztCfp84c57XbzTiOjKgDpZhzo0GDr/+Ux0JKTT518yMPPnTWVX1+rOWQa9J8IiWawChJKRkZ3pLcgpGwR3SvnLtwhBsUCRWvBKwEeZJk7rAUEaAHrHJOtP3snQ9m5uzYdVeDM9odDVaVpDYtCnav+fO+RW++PzN334Eu7PSe3+Q3CQfLi36PAAHVqi8vRLhdgt0/yAe8pU5z/tGcto3OaPWX1+M24ALIt8mYNAN0OtLr1jlUUHKsk7oGsj4DW6Wl9Hp1jtYDklEK0gVcOdHwnEkfvJJ567rVqJACz60O9CbQaFfeZ1tAgbVeq2a7SvYf62A2GJmpse8IEVdTGCsp6WlF6XUy2DhjbAdUQZWm6FCKsGfHzm5gJmzQ67BU+aWWOPC/2cRsMTnP7d19hs5ocOidHius7JAX09AAnsO0W9AslulW4GoNkgZdscOe2vrcM39Y9e1PDyR74HgHWsFZV2i9IRvKMA7EuBB7EBgRYdITeT/gI+xIuBCTUzv2dT2Wvasr6mf5v/jmAW92O5xS0uWeBvruF82FIykdnNMgE1E6GtYn+HvfX5tvOrZuS2uLySKhJZICN0uktlZCbSAzECLw6KmwEU5jiZyE1uehpzaZjPaeg/u9eq3gkU1hQYFuzYKvHv1p6swxkkN2jIb9yrwOIfNVE0r8BmhxVvMmh28a+uD9XYiQhN5BldxBxzeaQQmWDVnp3hse+8/oDgNuG6M3wcYYJ0ZlkuIzmtpnE5zsS0f+3tR72rBXfj21c08Dkaq0vfTC9f9+B2LltGi6pZzqq6jEhO986SBbBO5yaTi5UOsEcE7Cz5utSVbp1N5D5xmtllJu9sm7BiUa1tSUUyl1Mg6jSANfzLRWEYHgUu6E9TS1cb3tSWmpJ1DvA1JxXQk0bEnR6fQp8F0KzIhWuBN1Hoyg2ak3JlkKG7RpsQH1RvDFlVNxAOJkCoY7Umq9rEPWjLSTqI+h6JPgcs70SUwOj+nI1l09PeBvhb8UqUO5yZgt/CCTSGvaYGvTszv8AoqrFtRJAYVOcMIBZEn26SHTb4/HhLo0bG6HYxxU+sxq0WRrkzYtt2F9FClQyP3AJDFsmVD+VS0WSrvKPQ1YEuKtA4pnBh8xJpOp/GVW/sZ3vOB4TW82lsItSG5QAoOgYDbsb4TPCDpkRsjLqNwDrsp9eRp4fvAdlsfEOTJvKmtr4I9hYFHLbvE9hGxm9Z184eEhfzHphtnkOOdfd74sSkiKCvJ1f81aNGzJ9FlvgoTEynguU9mWpaBsrCobB35k481IOXHto//5d5err1hcy3ohqs0lUhIFeO99cuiL3e7q96rOZLYzGS5uZ3HriGWxf2TLHCbuhu9zDxzqNO/N8Z/m7BIjJvVatTh117CnBqWCJQcTKof4knf3JFoJETah5KhXcvLw0S5AMJjEQOkd5r4A/XbYXU5zg5bNN4MDL1lKoLyY4AKuUptNata29V/wezL+joqy+BP8YwJJDGzaPUn4Dl8b4Rcz9CXqOehxpezY9ayfzVYLH2IsZ36kAC5gpTM6dVwJCzJ4TPGdWzAPUOi/obSgsMHRfQfONBlBL1UW2AR8YX4O8OB6RtcuSxxgpayMJCQdaPFiQA+mjuLShqBVmwQSCQcb5vJRCdrm6C3JSbkXXdl7KjpqA9NdIUwrSVQVDRel6FWVD8+uTELgQukU/ywTFPl7esUaAfmZYAMbj8P5EOKf8RkymMylPYYMGNn/gX+NE6leAUhIVs/57Nnv581/0QvRfvEeHECyOZci2cL5m83h8tyd3qL53nteGjbo3CsvpyMbEZBDSEOkJASwQkn6f3cPGt0DJCaSGZRf0V+JMtBlcbi8tWMLBuwpwaeBdHDdhsvHP/HsymM7xKxy2l5y/obH3x3XLatli00hmVaWm64jWhRCgSMh0la20vm+R0VV+KMo51Sbgrz8RujynG+Osbvxt1KHPaVOs0bZ8M7EFeyF+h1IXOFv9Lhar03z9UBekuBvXMzZgg4564BQuI/tPdgNSAnOlyiZYJISnKJRPwQkEOtNKUlFvD5qSQd+Bn2WDQYgJUgOIA2cwuBxC5jxgMEqKLg2Kz6RW0fPDoyUwRqo16CNhR6H1K7rmT+WAnHCcpl+BlqroLM4k8m5888N/z7wz/bbIN6Ni7nEl3U8vKi5Avoshk7dLphvrpN+QI/2Q+G9gpGOYL+LlGqDREhGOCnBz2pygu2iVzUgwIk2P6JkwxXGN5tnzbJSayhWNr99+sWTS2bNe9VQYk/hdJzFV1L2bVxSIptqwbOabAYdkgce6vJ/ff5XDc1P+CKJlESpi1NA+fWKe+4a2aP/beDHxOxUFLfZmOe2B/KOFZVf5UXAdeRE+8/enjDzxK699UWqldq6WUG/Zx69N6N1s3+45YbvPlG+IZpOpEK1PA13kGXLL8o6eeRYW3SlhJCgvoW80MO6DNMnmOXuT0pLwUVP9peh9AFOful1sgozG9bfh0cseOQBSVBxlQ0VUJB17Vq17j5nUUkD1F+Bl09+Dffq4N7DafXrHmJKqvJAYzeixAV8pBTWb9VsPXiKlfPjmaJiisHgBCXXTlbQu2CCaj4mAowNNFdu0KH1pjrNGm+FCVo+bZfnb5B067zuUnv6zt//7rt/Q/bNSSZzkbKoM58tkAZObcCfCfhVaXVWx+VAULQaMdEYxVwi4i8twb/xkp3N0KvaEJDnT/nF3i3gh2TIALSyETb7hWi/z638eO4Y0CNigjt+qKgObumztoHfrfXqnLj54QdeAB2Sn6qt4QleMJGSKHZwSlam94r7Br7Sa1DfURBrAc+oZYscdDCBDwDO5PxkHIUncJZz4M+/r/z45dE/nNizl7nsDvZqBzomj7z9eq/05o2z2dLHF7lge0X+NAdLF6wC9HsFBBx2u7Q3e3t3o06PCxf6P5PRVqhJSt3MoxATpYi5RMMuU/oA/6rfosl2a3rqKUUwzfxvYKeC9Ya7uLi4LihqXpYDDs58TteYCEbnQbIBPkCKMxs32IbSFuZmntcMzWHTknOASGRDMDsT0/uQ68PqZYTTHzBlPsvEvISVKWCqVSB4VtiSc/tcNkufYi0EXRY0/2WBB+F3sHgG66Ock60Obt/V8ODWnV1AMwPVatxQP5QqKK7dwDQZTJI7nt/121Kw4Clz8abpQNJiVDM5puriwk7+XdhiHk1bWssyU0iw7ExGmUcRAjgqR9fxKCF5QxSSxROmvrB05qejPTYbM/hQpk95EoWX7KlVeR5wvk5POdHv2ccH9RjYb6poGZQudASIlISOWUh3JGdmeq/774Ov9h4yYJTeYrYxzXxFx0Ttm4I9Bkz875VOb9t9wWdvfTA7d//hTJHCMtq0On3XC88MTG3dfDP6rhLaNmoxbYtULpHSKMD64+vvawPJxaFtuy6G3RfoVYCVKTPnRWtTeY6zJifnNW3XagPzjKp8idIM0NGQwB076oUUcqKCiz7q2lkMRvvJQ0fb5x7LSd/1z9Y+CuFhu3ZZHU+SSiCmC0QVXlVkL2XSESQQ+D26ta/buOFOj8ngQILERhn8wCgIpLPqDM5jBw93MmIoOuXFdqEqB2r8c0q9rKOdLjz3KwjEh7oscjIsC45qLGZz8eHsnT0lu0sqPHk6fff6zbeCwqENwxDz9sjpvbomoDeT3LTBLqfi3TaMYaIewf6jmROHMLL13RIof3W+9ARFgm6Y97IxzUm8Mo+ChKS415D+o0ORkPwwcdqwpbMXjpQcThO4NWTkWJa8lNFkNHTnf9dp3WLnfSNf7HfmlXRkE2bXCd9GpEQYqsgSXvvwv8eA99dXUMSIC4F6duMifBZDB0gFaurvXbv+mvFPDVt2Yvf+uiIlt7n4/A1PvDO2e2arZhuZB0NcjAJtdUUyozSBEahkGVKLevFGAyiLntx9oKu9sLguc4OOJABpgCxRgOAoRluzNq3XOdDZmTIWsM/0SeZScJq2FKPXKp42FNIBxy8QjWXXhn+uBFf20oEt27s7S+2poGnCJRBMidTldpmymjXaJhkxUo5iMcBJSaMGu8HJGZiCYA0UVUEkKAYYdfkldXOPn2gFn8utyEhm2ESNecGYRMueBh3arE6vX3cfSmYUawRmroxDzgIOxfb9veXqNDMYBkGU479/WzMIPLuBXzZ09spIEvMeq4eYMub0lNNdely8SCWXCWXUBePd0SAMgYhPKHWmtJogoBI6Yo+ABPryQf1fD0VC8sPE6cOWz1rwKii1otdh5jyQPRb4rMBglrXTZYrCxIkgubxl6IMPdu592TJNmkCZVIkAkZIYDpCrHvrXuB533fGGzmJ2cB0Tn1UOeyBw+VIYBbzb9h7o+sX4D2ac2n8gS6SaoGNS2P/px+9LbwPKr+g3Q/F7IXIvpQkPgUCrI+p7uE8X1s07eaqF7L9D8aqOMgIkHCA9Aedca8DtvIsrKeN7UmbG0fotmm4Gs1w8FsE5kSlXQn7u0ryCRoe27uqB/i5O7z3UqvR0fgNUIlUkMFgNZoWbXq/uwfSszFxsDRc/g9M2qWGzJlvRZ4oiombGX6h8ajAZnSd27rvEXlyS4TMVUpZfkPIwULhfD6fNLrU776zvS0pK0tm4xfg+ssmvzmg0OHOP5rQ7ffBoF6yIETDYuTn7ooLjp1rJFshsh+vbkIJjOON5PS6dhwEC2W+4K63EtX0IPaMlGQmUF/9OC0lMCM2ipBwBlCRzfSg8EgfX8SHpkKCEBALsvepxOhipxlDeKLn2WdlwiQmTMnqkzNbN9twz6sXbO/XpsZR6ITYIECmJDc6+Ui4fPODVbgNufUNnNtpQW5zNcqopDj8yN/L4SACDB2dpN8wc8frXBQePpopUtd2lF6x/8J3XL09r3nSrHLWyTJFS5H5KExyBQHJ9/7vAvbh0/NCRTkhKkIgwiYj8rgPHeqa6oChqSk/Owai1bOkH/yCgT7IVlUCZRYs8TWLQPLfRaLQf2b3vopPb955nMJslg82lB7PjjiDZcEA67kmU8RhrSlJe0zat1iMR4S/U3ajTqMEukMyguSN38gFVA8IEdTq2c9+lLrvD6vOXopBZPix5NNSMOlmlTc5o8ydITEAvhYXe4/OHF/VHNv/+1x3FuflprD1ASoBIpR/dtfdisEIC2Qg7vsI1BYY9SnXcxnpNGu2o17bFn8y6Aa0aQDITxktLIhJK8dVVbih1TLi0fH6EjV1JzxAJyeIJ015YNmvBaI8DCAkbjMrkqwx02YEe+4c9Jd6M1BO3PvbIvZ16dV+ecEDGcYOIlMS4c1D59ZbHHxnRc2D/V91Wc6m8OeSiQvkjE4srZqIwU0tHN2/rMf+t8XPyDh9OF6ku+jG58/knB6a2bLYZz0v59ljkXkoTOgKBdvig8yGdOHiki0VvhKi+ivGvch7OnKiBZ9XUOpmHsX9RywNJRGPwX2L3upgnSRwGOApQEgIKsYa92Tt6eAtLQVCik+CYRDq870BX0AEBu2Lm2Z1NrzjJgoVOcavOZ6x0wB+4FcSFPqlORm5avToH5SjCTMSBZIeld9js6Xuyt11lBn0SX6AxpC3yhpS98N0Owf66dL9oPgQJPM6OYeQyWUoPuG9zF9vSt67+sx87NsSzfmhTpjVZ2gPHOckWaxGSEqYfg/kxMoQeXm0pbS8EhdfSUrmcyCQlIlwx9M4tr+yqrGIsGyIl4aAZ6T0wgNxJ5oI+Q+4cdX0IVjYoIVk2Z8EI8NSKTvx88aiYJ2YcxPg8KOMPO9ZUN/PEfa883x8IyW+RVpnuDw0BIiWh4aVZ6uv/++BrV97V7zWD0QS7XebDSp6YOVGHz0bcOeJ2Gc7y96xYc/O4Z4f/7+T+/ZkilWgD0YWffef1yxq0aCZHF1ZNoZH5rBIpvXal8dcpwVXcAq7ajx881BkUVNGBmNy3ioIp9zAKkX23olMzXNpL3U6pWeuW60DxU9H78BETyVZamrZl46beVj34S0PiATkdOXCwExAem8IfMHtQRYHdHRCPVu3b/W5KttpQLAEKqVKDls2yLanJuUwizSxvZNqLN5UUFtUFiU4bg+IRsxwxUIgJlgn5FZ7fC9zKo9QDJSSoScKcyetcGDLw1OFjHUHi0h49m6LJDR4FgVWPdHzn3u75J061hiiDTErOYMC7QNICbTU379R+bXp6emkFDKseQoFOzbQedIFIB/9OYXdaF0n5BUMAnf9dO+jON655+F9jg6Xlv389CY5sZs5/TbI5TDg2jRhMm/khQUky6Eox+zZ0SCM/i+DNt+TmewYPpyMbUYS1TUekRFs8Q8rtqkcfeO3Sgf1ehTgisOOVtb45YWA7TjnqCVuEcP73bN198dfjp3x0OHtHS5GCMFbOrc8+PiS9TcuNoF4orwiQcZnkBOdWsfldLJVIrWpBGoAVIx8VnsxtasstaIQ6Iai/waxk5IXeC0qn5joN6u9Ds2BUbNZlpuRnNqq/BxkDC3gri0oYiSg+ldek6MTpJhaUZmCPGQ1S7uFjZ7jzi+uC7gZTdsUNJJYBBFYPeikbTZlphxkRhQsiA2/QW0ylUAv0MosdIGcPn4tyTjctySuwoO0x+4F7sFSNRRx8QG6zrW2b/OV1oKs1mMqBVEBmzPcIeIF17N6UfVWGAfmUrGCL8XEwR1teYWb22nV9rRK4SgNpCR7hY8wdZeDpUupkHut8yfmLHCCJEbQbEx1AWkgyqpK+aJG/aFtqTTrGWNUXzldciQQCWV52z12vXPHIv8aIAAJBUnU/Tpg2bM1M1CFxMlbM5lLlcJR5gUW3hKwnZe9RdZo3O3zD4w891vnGq6eJlEFptEeASIn2mIaU402PPTj6wltueB80BTE0PXupIwszSQmuIHDhlnvbb6tvm/jMi0uPbNvRXKQg1DEZ+uZrfTKaN/kH/YKy1UAph214/TLBv7mCpPyoyi+agUXQLkuDuy9bQVGD43sPnm2EwGBIGJhATNat8IIvEYzsu9UOLtsdDofUsE2LzUnpaTmy+qkiTYBFHyZRb+6R421LC4uSUU8D+wHj5dhyC5se273vYlBUdaDeCfwAFozgMBWOhkBfqaR+00bbwfIFYq+YpdZntFsD5aHyLFr18Oi4ILzQu/KO5rRBq5qqTk5sIMVpe3bnnwt1Lthk+nRJ9MzBG7QlQ2cu3bd56xUY9A5Verlkjo0ZqMPmFWsHSaXOFKwnkphyHmVBL+bcK3tOl6ymfJTsqIl5aIhHLTWXivi/R63AWpmxMsepQeZSY5Qs6s2W4ssH3/nqdWAsIIJPIcSyWfvJguE/z134EuhLKeEQ5Dg2fDJj86qahKcln+z33GP9et7Zd3pqRjpNeSJARyENkZIogBpqljf+577nug+8YzRITJioH0LQ+3YLPrt8eESMwOzRfM15NKf191M+ej//8DEh5df0ti1y7xz2xN365KQC1PBi+cM7i8XOWQffnuAqA5+JjITai+XTg/2MpLe7zId37rnU6wZCALoh8hyI6hTg2RXIQ91GDfY4LAY3hrVv3aXjbzqQZjDVVvRrgmnhnySrtShn94ELkiEaLcsTnZZgxzld0p4t23tj3ugjBEpHSxg8F3eDvxN9/WZNtjvQT73Vkt+oBegWKQwTu52RTJDZQN7Fx3fvv9gE8XL8X7K0Q56/HUadq93ZnRe74LiFp0PJCv6Pgc9ACfeCE0ePtXFBRB7cheKFjXVgLGOLSTq2e3/HE4eOdAG6hMIf5DJMSoN/uZ1OU1q75n83atViE1N0VQaejyz7s+byFY3VwhGonFiVHdlArCF3s5GhIMqnIh4zTG+xFP7fvwa/cO3DYoQEm7xi9qJn//fpgpf1dnuyIhyUNaCUV/nxBc4F62Scvmno/U+37X7J6hoCWcJWk0hJHHRtcmaG96bHHhrV487bX/eawMGaYpXDHiH2IMlWCSjXYCHU4budK/+4ZdLzL/+Yf/goxGsI/mp7yYXrew647XWv2eRiQUpw1VPOUPndbJfCvi8vGSEdlOD4+qfA3Z0Jzqz3bttxmdPhSGa/+yZdHdrmepNBMpLREjzxwnFM27M6LwFlV+69jElV8NwbSIj3+J79FyUbzRD+TplKof/R++q2TZuvBjNd7H95kCiuSZzg2KxJ6xbrSz0ujAx8MCUj/ThKUNiBjezynr2Dc7eUvMPHumBUWz5d+8goElP4EqU4Tc9svyajaaMdJrChQT8jXBEbbYngQMa4dcUfg3X5pamY3ghDFS2KTEA9cBzj31lug7R/Y/b1in4NHlBh81lRSE+KdC4zBPj7FR2p8XXDpwMVfOn3H66hd1bgOyo8BgrO6s28VmVRPioEOMCMqIAjwesfvPe5K+8f8r4oSN9PmPb88pkLXkPX8fI9eDQjSxnZY4gHpPwzvBtMBtvV9w955rJ+t80ULYPSRQ8BIiXRwzbknC+/+65RPfrd+pbeZJJddMJL9jUoH7Og3J9rioPygJS7ZWf3Lz+YMiX/2DEhYnL9Iw+M7TVkwHCI7AbGGXIB3I8h82wVaHpXSU1CblAtvwHPr48dOtKupKConAM85lUVsDYnWYvqtWi6PTUr41SDJo12+RRQUUIh62x4C0/lNis8cbolPqjsjIad08BiD0c5BcdPtsLfFR7pQxu9rdZt1HCXy6SXUrIyDltTkk+X5S13PIhuPEW5oKtyKq8VKseqBRL8+A6/A0mIdOEVPae7zHqnARy04YDhvBXfi/ML62cDOTIlWSUwZ7a5k0zFIPErdVuNJV6rqViyAAlOTZL27NzV3QwCIubbhMc6k4eczuNwmUES84vdrGfxgPBL7jMlDoZQZSQkOF2Kg8rXtCqwPZciKgGz36L/u2/w8J733jVZtB1oZfPbrPmjveCHRH2PKugCDGBlVoUetNbJOn3r0Iee7jHgjo9Fy6B00UVAYZLRLYRyF0MAzYVLcvNeKbGVpP799Y9DdcD0mfka9zXC1A1w0kbJCbqk8kpbfl0+qKS4KKPoWE7/1EYNZNvKKl7g+XAs7CR0v81eMEJnd1jczO+94stcFv+Xv5um3mCQBvwdd2N6mPyKT+fVBeLQlDsJUxKjjw88x3C3OKPtn4fySponpaWetJUUZSjzMXYEnvm4D4IDveK8gvpmLmWBd0VlWSrJLzTnHclpl9G4wXaPDsQROKGzIHk6CRyoHc1oVP8Q6K3sdrpdZnaUrgwfTIYu5o8ePNwZdFVS2ULg1wo2DuD/TAge2P7sM/9XAj5OWB04f8FTJBiGGG/njqcfug2imbFfWTBAlIXIzIXlgrosTjjUsaPEiGnMyHq8TKEXdFxAquJKadJgd4uzO/52ZF32VRDIT7aICG3s+acO7e6Kvai+nz12KpgizTusMZXIN+GAwPGE/Y7+m0BCUnzNQ/c92fvuO4UVTsEPyfNLZy0Y6XU68bi0nMiXdSAefbKew0EI9B7c019998DhFw/uJ0x6ErkP4qVtJCmJl55Q6pGclem58eH7n+o+4NYxsON0smhn2EucKyjv+OZBQuH2SPvWrLtx/pjxcwqPHBeTmAy9f0yvwf1HekCHBY9yuDdNTkgi9BcRZ4hWT3XAeFf21wHShbxDxzqCAzQnhK9DQYfvCAU9rIITte3Nu3RYYnc6rVwoJc+bOi8c0Xh2Q5wblwMMbFRckSkAor8ScKQGOiEXJoESIDtKURRk8X4gCyX12jTfnNmk4W6nnDe+mNt6lFYYdQYX+Cfp7YS81TQU72WehYGoljrh6KZz+2UmkLSAEgy2h0UCVpyUgIGN1wBHP3ZLwzr7DI2y9hnhsjSQ300Ns/abG7J3/G1vcoM6e114ogORj5E4Mbf78kund3v0TpPedelVl38IcX/QmqjshWtL6NI6rUiDWnbI8/R/r54BlmClyvOZIglOshRcdf/dz4VESNAPyewFI2GjBWJmmdD6HzuXKbV6JGtWRt7Njz74VA8iJHE3kkhSEnddIoHIPdNTnJf3MiwYlrVffPe4BMqAsogELvawyVySxcrBhc/lkXauWHPbtMKCLHBJf1vdli3ygjXruqH3v/HjxOne3xZ++YK7sDCNS1+wDJ8TLeXhDpYX/R4AARRAAXEAx2HS0V37Lj7/2sun2EtdZhRn8EUZQvvq07IyD6Wfm3rSbrcn+VxMygux11liy4TAfpehciuyCd+xCvY7KJUmgfIrKJFehBY6qERqQKNgtszDvaBD0vni8xdm1alz0AXO1xQHJSgiYY7TPDZH6tEdey9hkhlGcspHr0ZfDqUuh9Tq/C7fFttL09GcWJZesDI4TWZeXXV2lxH1WzkKyh4VPcYxuZsi9ODRzXhIJpaTbAINuiset6HtWZ2Wgln09qIjJ8BVvaLzpGSqFcsIc6z6S0rCzIZuqxQBlAAiykBIbhz6wKOXDew7UxQt1CEBT62jJLvDiEr8sh8SHgq7fC5MRmIxF17773ue6XbX7dNFy6B0sUOAJCWxwzqkklIguvA1/7n3uYvvuPEdPShCoqmMb2up7N8YIYFcmWkb6Jgc27C5z9xXx31xdMv2liKFXfPIv8fcPerFa0316h5FoiNL7FXliGRCaQIiwPgj/GMC3yL5x0+c4bU7k8BfSZkfdT3z9eFNy0g/nNqg7m74yIL1yYqojGRIJafzG53Ye7AjBvhjTp8451CO2HASh2i8rYry8psoecscA5Z7N3CPlh3bL4Pjlx3IOZjEWlGGxSCBJfkFDU/sO9QZJDhlys0qkYkL/IY0bNVsX/2Wzf4BW3X0ciPzArVYBf+Wd6RQX8mLdVQu2dRIuZDMcM9paN3Jc/GZprOjICRaBmeLszstAU+v2AgfCZdVcysdaJX9EimP8b9f/XekedNT448AWmOBUutV998zTJSQoB8SOLJhOiQQy4YF12OhO9A6zV+6pvwNOiT5Nw994Nmu1/3fR9QJ8YkAkZL47BdWK0ZM/nX38E7XXD7NayrzY8LXBsZNlOmRzdtATA6u39Rn8tMv/HZ8+84mIk3r0Kvbqt4DbnvNa7HI3kFVmukVFA1EMqQ0DAGmqoMrMLyD47PWxUAC0NmYCh7kJEhC0M8IxrBxsluYHAPmVXC4duro8fYGBxgCM6qh6myFXWBepQWFDXL2H+pqlI9u2POsODfzgPfLIgNcIIxAHWl+dAN+3XSevJyTrZ1FJWZmYoz3MOYiX6gGaINbuna/ZIGiC4MVx7x9EhKmsCqTKKwxEhJ2rqNcaKGDF7P/xd/KjH0rDhD4Hd3LGQrtJeltLjhrMZg0u1jMJqXZeEclLKByqqLdOOSwaJcj5VQBAThKzr/hvw/894r7Bgrrd/w2e+GwpXMWjZQcTtkPiTJIfGZofqW4LOaC/7tn4PM9BvWbkgIWj9QN8YkAkZL47BdfrVLqZrn6PvHfhy65DSQmJp+FG/tdvYNEPRA3uDbHVcB+LKfFvDFvz8/ZJkZMrr5v8MQrBvYdrTND9GJcvXBX4RPLKOuhb2WsHDC+dsY5pLGtHkx9tsLijGMHDp3JF3KFIIDHMiQi3mLox0IA3A74yd5Z0f8HaFoc3r33wmQI7OeTKKhqzrF2lNp12Rs2XQs6Ir6I68rxGxIRB6zmmCdeLlRzQRUlkN44oT5d0cyYURlVXzPm4fZKlqz0PIh1Mwc9xOLRDQrQGMtA/V38F9zGg5M2h2Q0uPSgL2MwGJ3w7mCf4R0u/NuF7+wCB3I6cPQmwT0QSNClWOFwN3HgaVPe4dZp1nhnyzPaboKAP+xvpgCpCE3UDESlL+AT7amEMxU2ysE6neVXkeKUX7iUeD/+SfnfKhiDFVcrf2f4yKrPCtTYvzrJZDaW9hnYf4yohASzYUqtsxeOlGw2M5cYy/mrjjmVUlBwkpSZnnfHfx98pifpkMT92COdkrjvIpCY1Ml0g6vxF3QOh3X1t4v/Y3S4zSiqZOYNuL3G55x5w0RbfNlx6JFN2T3efvy5VUezt/Vq3LnjgWDNvBaCWy2eMNW7dM7Cl402h9UXqITnj/mycirPibYeftgoW3233Snt2rK1Z8uunX62y5bdMmGA0DOdz+uGn6Wtf61mCzQQCiMazloN4JRs/8Gz1K5WmRQLGQuTmiiSBPh8aPvubq4SW4YHTWrhUAi+QmdqUBRezFsb6jObcLjgZ7PRZDt++Ggn9HWCVUQ393g0xI5cMGvw8NqoTcv1aU3qby8oLqqjKA2C1grTcZX1T0oc6d4SezrWjxvbKNwBM2E27Gw8YKsUowdZfwS+gKCBhmRLvguUgOW2QPwRlLpARaypKbkX9O4x54ddc88zwSBn9VO1lyOM0Y35jso37mQ1Am7ZHtJwFBjW8oMl10WxTZJr439vSAUHezAT6HfZMktxpgOfwcRc8iRbc6+//97nu99z54eiTf1h4vTnf0XrQYcdh7DvWWCcRHku5OdD5rxus7HwGqZDcgfpkIiCXI3piJRUI/ihFJ1SN9NddOrkUxAhxPvXNz88JoF7cvZCB1s+V8myDiHbMaBwPedUqwVvvT/rcPa2u5t27rg/WHnXDn3gDdiBeJfNmj9KB8q1PC+2TWbkJMh0q2wVUXMijvxMBGt2VH5HpHyLJuACyq7ne0rBJNaks8EiDFZVkq3T+TIhwVenC7q5stevdoADERO4fze4IK7N6aPH2+rB26tsAM6OZVhamYTK7yaIGHxq76HOpaB/om9SZx9IFdygn+EE4lAKhId3mAfyxs+gHivpTOAYOOfg4XY8phJzisNTwmd0K9/h3LN+yHfZUtEtPjNJZ577vEBudB5rUtL/t3cd8FEVW397KgkldAhNqj7Agn6gdCv67PReRKUFkCYgIE1AQEFRARsgCMH+UKxPRB/2gkpHmkIaLSGQZLPlO+fMzObuksAENv0sv5DNvXOn/GfuzH/OnHLuk1dXPfv3978/CGIXkKvAbSA7aOKMv7GOKJGRizfVGf9GQgQO0swVGtT+sdvoh3t6QyyZ4vAHmgPbWRzHruxsW/0bWn4QtmlznDc5tQ7q1mA70RMxkibjEDyPDMjxJyHNFzdQj17wISRXCJWQmJwvWJHkSbY3vybNBTIOi02m2HcKNEAPh5M3zJH676GDJ9zYv7s2WUAJyRdvrJ8OXv1kNG0ixbk2E4dgaMWKp28Z2HcSE5JiMxIuWhE+vrkoRMUnQWSlGNftDw+YcEXHm96wQJwR4QY8R8tcEQEKcYKLF0zyx37b0R5i5XyRqKljAhKTee369ZiORznIbDDePCohCu+veWNBmvPyp6wTEkUcyO8CLqigTJp88O+rnOnnKoBZLM2iAKtRv4SAxWuU3m7LTj5w+Gpnano1WgRplRPYI4HAhdkXbh2fgyB5x48mNMFjERI7QLEGQiIfFL+A5HjOJJ2on3kytZYXbWZEuT6iA27rITS8Patus8b/dbvcdjzwIdf4wpOrB3RdXOb0zHJHdu5tAxY8JpCWWD3nsmzwY8bf8Df+xh8rfLfAb/rxnhVpQEfGdPjXHa1OH0tqiEELSe1EjmNsI1oKWaLDT8Q2bfQteKHN8ZsTMPbgT5KKyBGpFHkJLp9Sru6rKzMLGN+BHnv8ckOeZqySMRI3Ech8USLdipbMdErCqt4HGodhoaldJ8QNbKtJSM6eJqXWKXBkM9Oc6Qzx4UvqUjkfmoJoVMBL5nCcBR2SyW37dNWWwpRMhEtXrZmUlLD+LFclxtlzfNzga++5Ywmc59PkR0c5OBHSf7jjFGqFYjHzmpyJxxu8v2zlsnPHT9p1mnsnmAt36Nd9uikkNJNcoZCVj5z/acY9PxfDGb9OEaU/De4M5VELSD5MrjPnyp1KSqkPizpexx7z8zhJgKC+BhyweF0eB0bdNWW5LGjMi3CTVENOtoHghYHeybFDR64OMVuzMRh7buASt4SbVtABgUB+rbLOnIshqy1cIEjUgeMGlE/ANf0VN1y9OTym/N/gIh5vgxSDBCXk38QOeiF//bD9brAMqu4BUoOSDOx7GoPytwogSSGE4TqqIRp/R1jspv3bd9waAsdI8JTy8KqMddA/ShhIaj48CybJam2nhc3QMKRmSD4kMxEBhRS5oEr7BFWXNNZyGeLi2EaePlBvyU9gWiYkfh3lY48UpRc60hYRdvrOR4fEXXffXe/qds7WN0ipdRpISOCkUSBOAivpHiGwL8IqVEi9a/SwuHZ9u2srzurWhdMVLAJMSgoW3wLJPbJyJWeXRwaNb9yp7Rsgv/c7R0USosT7KPJWjrD2f/vTvevmLV6VmqAXK+eO4Q/N69Sn20wIMwvbXFidaKbFZSD3fShvDP27msQVPvGG14TEAZRLm9tAUoHzMtz2I4h//LoN2QdetzozMqJ3//bHLWhOrPIQ+iSiDN9vuVdHUfjRA4dbhlhAkVSs3ZYdv0B+/h88jrN6XO7Qf/YfbAXxhH1HbOLUQZy/28B5GbiVXwlB+GAgiYjCJJEQ/knMTvCd8uuW/w2AODgoPSHSSx44UXqDJjr4I8mB8qui/sZ0+B2x2PfrH7dGmiDCsVjdKScZtRXsoT3mWuDpNrxapaMQBDBAT8DXqBx6bBh8RIQERrmSs1xfyNwYiNRPkXj6HjOQb78hrwhegbzwJTlTiZKI2QU/YSGnekwY0/emPvnyQzIZjpRnmVGplQakyJTEYwETD01TDkdalyH9xrfv+SCb/ZbAscOkpAR2GlY5MqZS9v1jhg9tefvNy1HvgN55+I80DOUkqzwkYnpchPZt+abn6ifm/CdR048J6piQxMQOXjZJx5GsSksoYoVfbdUn2B8YqyYFlEsdZivOzxYQidhAz4OIya6ft5GBAE6nsGjb0k+lVk87cbK6iNBx/kddQ3Ne/GD/n0xMrp+ddjYGJTHwkB3uhOz8aZtt1y/fmnf+vA3DANvRlWx2RmbUPlC6dQDhUR+hgCgUJSrVqLY3tkG979GxG40bkr35PubUpOP1/t73VwsrPK+kF0ayhN9JoiN/G6UXYiGB+yD9OZWQ3CBpz4Eb7BBlGC+ja3pcY/BRK0jkLeXCTjdv33o9Eh8wdyYujCTbWBeqlSJq8vAQ3efLYmi5MnonztNTsVzYAqV9Muuc9qM/Fchf+vLxWw6VhZCvTrl1XOEPwaItUVnZyCnJEhqSfufDg8a3uPv2TboV27zs5UkQEuNJjyvbitI4fFGMH9GnOd6VQmIqnLp3xMMTmne5RVtPRbcunK5wEGBSUjg4F0gp5atXzbjzkUGP1b3x+ndMsDDhTpR0QFCyIVcAkm/gpI5zNXh+PfrzHx2fnzR1c1pKyvnx6nOpJcbKAR2TaWD+mUWzvZwURIhA/uSFgFqMhb4ELKiwiCcdOdrMgbIEj9cG+j4OuBEOVjcRsO5GwlUgJWYIoWe2QDyb+hDoLozc/wfsBP30dgyLaebptOrJ+w9dbwN/Ni4LKLR6TehaPgy2khHQZ5iXBZVQz6SmVU9NORGLYnTjMQvqDaEH1zrNm35uBhf1qIAqTZjFlhQOLiA4nzNh1/7WWRmZQHBEyxUDOO97wEKvmkGkBFYWd0ZW6G9btvUHqQhAIvRKpGCJjHlQE/jqdm3WhUZFgp8VKf0wgC35iVQ59d0gmZ6xT5R3Yqpf4LY6r87LSQdm0D7fcggCupbBSMnnWd8Y9ahIUsOvhvA4jYQXJWQQ/bxd725zISCotvQCdEgmfwlK9+4s0FXCeYwObPyRFX0qdd4ctvSb+/eeDFKY5Rh5nbugZCLApKRk9puv1tE1qp3tPXlc75Z33LICHKzRmS0dp6upWeo14J+wWNHrm5WQ0vSTl1fPSTl4pIJO80HHZB5MJtOt5MdEaGoqX+H0PPOTXGFUkgRacAGjMxSV91Rt8DfjgqUN3z0H/A6DbyFw2wEh9axhoWFnkw4cvgbi2ZCehyIlJAWTKzEdi/j6V+hrWJxu26Edezp6aJGn/STGAAmRP/gdtVPMacknap9LO4NWNZQF/qjjPggd7andsumnZ7IyopF+ouMzcWhDOide8P7qPrR9162RYeEkP6EqGKZ+o7TAOLGoqqr7OHbCLDbTzh9+uTf9+KlaOGAVQVImz6DkaomuWvlg1Ub1trmAaqDJss8rLBaLkhiU5Is6ClNlg2ApdxlTHqNd6SgoSQz+DVZH+CdigD9IyoifAIGSRzXnLXpGOsSvhOgjmo/ABLx9v+5Poq6aznyDaTDa75dg9mvKhlg2MHKFIr1/NGs19eC90IrRJ+8ZNWws+CF5SbcMTlc8EWBSUjz7JV+1iqpaOfPO4UPi6rdp9Q6Kxj1S+Ytcxyu/AJAjeRnF2RIsLH56e9NjC4eN+enYjj2xOoW17dt1wc29us3yhISchQ2QlOuLqZe3JLkjSLhISQnYlJgy09JjEvYdvC7EakcjHFiWwV7Ga3bAxG2HRRePdEyhINJK3H/4Ogy2J45VxOROeRHw4mOUPOB3cLZm2rP9z1tBAhGF3l2BhaBKLeZvc8CAQAkMOGJznjpyrKkV0hJhknUTWXtMNRvU/b1q7Zo7cdQgi4GyzWjjBXmY4diJvMAmHTx8Ne5YXeftWcXYorUDCYNalQ1lUL3ldVzngaRFpuw9dDXozqAOLi5gUB6QH/yBOD4uV7a9ybUtPjibmUEO3QzjDGyTsW5WkRZ/kHXBD0YrBhe4aC8mbeZ1RrfIWTAbmR5EWahGTvnCdcICMQFzaiwPUvrMPgKlWYFkTacGpTENSrsgqOi5jn26zwGJ6zzdNkIsm8lfrVo/2+t02im8AiAttkJiABljc+E4c4fa0u4Y3A/c0z+oHVFYty6crvARYD8lhY95gZQYXa1KZuqxY/0+eG5l2s7PvhoAppXCCsf4wYWIFjT4Bw6yPMnH68cvXPIGOFjrczEHa+WiyuOcMHvz8y9nww5mpjc7y4GTg5jIDcsFFSBKKcsfIoDSsZPcxePkat330+93e0JsWU632wbWLWaKvIsLIn63md2JWe7QMyknGlGUnABxA1nzIIGQ/WhY9+H0zmpKSzlRZ+8Pv/47NLpcChzlUfwZPHrBIwiQwngjHKHnjvy59+YICBKIbmOVwiAWgySjZmztXaAEex34ErHh86pumAf4Q3Hu2bGzs+tsZpSIKi1619fT8gu1RRKpwP5XRIjWFpDURISGmXb978eeIZWik52ZmWGAgbRRlusPZAXRk8NDy0W6IcIgKMEI+QdIbMx/7z1wnfXUiZqkPIv2uUJSYrKDZ9nUQ0f/BW0WfiwQM41jG0GWxFkNkjYgTNUP7tjd3gWBApGgYfwf9JeMWQEB9DrPZlRCPSEFgvLNY2xjWR7/2HaH3Z7Rvm+32aA0ryUhOZOWav56zcaJX63a8KQ3G0LrYV/4xpKQkohQ2GLw4fgNh1g2tw3sA35IujIhKSUDTs1rpaQ53Azw/xCxfN7iN05u+/5e9POgLB/IZTfOqHIzKHycwBkCrAQhVSsdGvHM022qNLkiQQfB919YOWHb6+tnQcwJBx4JweLqW4BxQIFdKly7MDFRlhllxacJ9QMskBAN2JSZkZEnzCjTKFeuHN0PxOZCCx4pvYJ84Gx6uskNhFNM2oI1EDWVCzN4TDWF2kEKg0dwRG4EqcQV4Ny5cyYn1E8pS/tJYyBNaGioyREWqjNE8m6fgSQgHk6n05SZflYsMwGeQWiXDAQhIqqcj1yQYiOM5bRTp5EiiOMnJMdS/4YUYx12U3i5SCG10SAkqrKKwCCWzswsUwb0U+AESUQPPpGRYDsE/mfguMxPmfaywCkJDwe81upPP8IJfWa3W50tB/ea0n3o4IU6zUpPTTP/8Nr6Jz5dF/+EG4Lr4Rg874gYOhRpoHAmiH5I7Ge7jHh4fEc2+9WBuMSkYVJSYrpKv6JATMI+WPrC8j8+/6qvGY5qcMIgz1c4TatZxLCzxXP8mi2u3Npz4tieVZtccUynJDzz/WrNhukQLjyUHH5JMT3mRbtGwXry/hjL1ymwFKTxKeoF4GJ8CYlHkEQkLz+VuQNBag95LMB+xUlyKnadMi85LOgvOfGrYxh1xEOLjrgd1A+RDEkujHkb9TOoQEwnyQfdg2cUsZXV9hEI8ayosC4pCbTMoXbngqfv+EkSKN38gwpaEWemxoJ4z8WgoC6R8wCY5GaADslM3SObtDOp5m2rNk78dG38VFtmVgQZYsn+Pm+8YbfCRQfokNw+CI9sWEJSxMMh6MUzKQk6pMUjw7SjxyJXz14Yf+jHX+5AYpLnBwkLHRXA2XmVmEMjF81tV/3Kxn/rtEIExdowzQzERO3qhd6K2s9cJBdZdlmRluhgWpzT6B6FFEgbCoIRXaCidDQZILkpkHaV1EyR8CH1U6xBvcugQ9Kpb4/Z4Bla68gGm//+iysmfvv6xjluZ9Z5DgV9R4Gy/+EU0uSCiML3jxo+tk2vB14tqfBxvfNGgBVdS+noiKpZI73nxDF9mnW4ab2Z7C7kzhhfbsMPvvS428FJ2J18vG78oqWrj+3aW1sHFpx4QHT6pCnEkSWcq4ld/sX8VvkGHREYnZJKb5oCWfhU/wbAdiGfHTr1wKOKYH20/IcYCzNsmfNoXrCq5hvHQc2wFGZm7Ad6jUMcGR379ZiVH0ICEteJ217bMNsDhERNBb6xIecsKgfEM+gI2VGp4sl7RzwykQlJKRxQskllfEkovR2rWnbi0JGY156c+1bK73vag7KBMB+VYle/nY56AEiFrVrl/WMWz2unq2PyEeiYoHIaHMSDxAT0VDB/w4QSdJl/6e+2S2qh2t0H6p74rK4uIVclHSlSKYmh3kR6pf+LCzWnkAUrl4BsyXxEHdMoXTV1fGNxODI79O0GhGToXN2WQVTySVve2DDDk+UOQU1vnI9QcVk53zMeD5HOVMWohPtHPjrqhnu6vKVbBqcreQgwKSl5fZbvGp86/HeFd5csX777q2+6gmYe6BIo/QO0NsBJXhzZK6sOFKXUaA46JpPGgI5JQ10dk4lbQMfEnJUV5ka9EjTdo5oGWwsh380vXQ+oN/YisAoTSim9ykcv4KJP4X1l1xUHMuKrQwDTUPodpKsToP/BpKSAhr0Eln5J/Q5viOMsSExn6+qQZJw8bf7yzbfGbVkD0cjh6Bcsm4RyNUlExI/ySSNM4s2m6i2afdd7wpheVZo2OlhALeNsiwkCTEqKSUcUdDWOHzxSedWTc95O+mNPW/Ci6WcqqSYXfzNW0DGpGvNX3KK5Has309MxAf8Ck7a+AcqvmTk6JgXdLs4/+AiwWWvwMS01OQawPbMjJKMjSUj0dEj+2bOn9scr1zy1Z+u3PU3Z2RiAEkiIGzxRywABAUDhfUe1mCPDFz3VoToTklIzjC7UECYlZaKbRSNTDh6s8t6Sl17a9/X390H4M5+iGh3jGHc+uAOia2CV0/KqLV3HjeoPxOSIDlR4RgyOj2ZBrAoRcI6sOQLM+3Qy4jSMACNQ7BAwzhNmOrLpjoRE68jmn127Y996eumridt3dCbde/Q5IvXKlLGe2hip+adGyyu/7zZudO/qzRr9VezA4AoVCAJMSgoE1uKbafJfh6q9PG32O6l79rW2gDsLFJ0GnrAYdRBwgDiqV903cvFTHXTNhdGPyf9Wxc/0OrPAfbqKPysw4V148R0bXDNGQAcBMsUOgVg2fbvP1HUdn7hnf/WlYyd+5j6WfCUqrYJLY5++vfJcbCQoFAahaswRsAbsVLNZYyYkOh1TStKw9U0p6UjdZlRpUDdx6Jzpd9Vvc/37btJ3x9CsYoYghmpQUBX+CMCRVGJywzfnLXozYe++Gjrl3DPsoQWd+naf7gkNTUdX95SPNK9kFqyDIKdhBIopAvAeu8NC0iB6uHYsm6Sde2uun7d4tSsh5UqcUdDholp4hA8lsS9SCq5uCMlQDXRIRj87rz0TkmI6DgqwWrxGFCC4xTnr4wcPV149ddbmlF37r3WRPqS/uSdpwsM1tKah76BI6KxZdedjT8/uUqtpk8MXa1t6aqr5u9c3TP58XfyTbqcTppnzj3CE1ETTp8nFCiwj91nSpNfRrOiqh1N+U9nsdhPEspl266ihs3SePbJ7b+yyMY9/ZEo6fiURD5hNyMJGOl1DQuKG7+igBP0QUxTJqjH/DHt23k1VmjS86DyjUwdOU7IQYElJyeqvoNU2pl6dlHviRgyxVK6YRISEAstS3FUh2aC/KKwwnfu6zFZT2D9Jzb57e1OcTiUio6O91/Z5cEGta5t/iOHW3OhJFDJFz69kGULfsSyMm3ZhbszMOQfxwOBvOn1RFtOwzdfl9zpKOfHji+5ss7ir3dDyvTY979d2jPbLW++PNCcCIcF3HcMZwIuPJEQdGaN0BMNUECGB/7Kjw5P/PX7kYCYkl99/JTUHJiUlteeCUO8G17f8rdvY4QMcVSomi3gnuF+x0E6GTlsMbADlJehv8cdNH8dtmLtovk7xFSpVzH4gbtjwpne0f91us0K0WSQ3dGAkIxajxv3F97S8wOigzWkYgctEwPi+k4K62KCgVMMWFX7q9kF9J/edMLZvZOUYrQjM785asPCbDz8Z5kHKITc7ZG4uNevVFEPxszAMRnTE8a4jH427tnOHTy+zJfx4CUaAN6EluPOCVfUjP/3a4pUn5nyckZRSDfP0CzJm4Ay4wwmF6cgVZncNmDejc7MObbfq1CHj5Cnz2wufW7H9ky+GYMwS9UHXEhQrR9OXycXpi05tOA0jwAjkhUDO8SC4DYB/6G8Idc9uHtR7ym3D9R2j/fHFV502TJq52elyOjxkZZOzy/Fz8gcVwU2QCQjJoBlTHmzU8aavuHfKNgIsKSnb/U+tj73u6u33xD06OLxaTBKe4lggUq1f2A9JXVHMmo0B5DOzbe8/+9KKHVu+bqcDX1jFCt7bHx40vmWXW14yhYWcU+QCpcNWqWSrFG2NQdYC82aJiQ7anIYRyD8CPsogXzJyn4cvaKjD3eD66/7T4rabX9HN9ddPv7jtP8++uNzpcjlwIhF6YxSPWoSh8CnW41mu2WQvF3Hq7tHDRjAh0UW4dKdjSUnp7t98te6v739s9dq0OR+4kk5W8wIx8YAvE9ItkTomfgINvBYZkTpg5uS7dSUmWJlNy1ZO+Hr1hpkQXTgEJS90nixUV3xeRPNVaU7MCDACQUVAbRrCqlRKaP3A3U+3u+eu5yKqVtY6svn2zXf6vrtsxVLz2XPlSXUeTXvx5QaxqDL9Jd6DOmXgxNETFZky6ImJfZrc0pGPbILaiyU3MyYlJbfvCqTm2z/5721vLXp+TfbxU5VhyhBeRuTuSYUmpzlGzlwV6tTed+/oR4bkh5h8tuL10V+8vm6WNyMzEnVMUEQsPiIya1kMB18gncmZMgKaCJBZLmwO3EgW4H2Mqlntr64TRvVp3PbG73SyOH0sMfyTl1fP/WXz5w97MjNDhYREBTowqKfJ95ti2USGpdwfN2zUDQ/cvV6nDE5TNhBgUlI2+jlfrTzy4/YWr0yb+UlWUnJVtMAhkmBQ6BDxKIQEhc6Dy0Wk95815U6ISKylY4KV+eXtTV03LFzyqikjK7KsRwrOV+dwYkYg6AiIl1sdnXrDQ9IGPDnlnma3dNiiW9S6mfOW/vzB5pFWcNXqAYV5sLeDLY2UkgRkguVYoiNOQBkPNO7AOiS6GJeVdKxTUlZ6Oh/tjG3VAnRMHhkcWq0K6JjIs2VDcDdFIpSPAU/62cj3n33xlZ2aOiZYlWseuGvjzQN6TTeHhGaqqvnpscBFnCovpGOSjyZxUkaAEcgDAQqdCS+bFxRa7ZERaR17dZurS0hOHT0WuX72wmd+3/z5CKsbrXXAeg+OfXHXoqxsqFgZaQ/nE0t05PG74x4dwYSEh2RuCLCkhMdFngj89d3P1706ffaH7qQTVdAsMCcQKwWuoGMXuo7kAS9FRaQNfHLKv5t21JeYbN3wdp/Nzy5f7srMDEclW2Wco3ylaBrmcC8yAoxAPhBQFjDEF2QoiHK1a+59aMbjd1e/pvke3aw2zn76mR/e3TQaCQkF1aPjXvwuNhU5OmnoNA1IS1Tk8b5PTOx9FeuQ6EJc5tKxpKTMdbl+gxv837U/dR07sp+1SoVkMMkxSC1w8hFOkFSocTyPNqedjXp36Usrd3/5dXvdUtp1f+CNW4f0m+gNC0sXarVSQx+PiHQz4XSMACOQLwRU2Ad8yAPvdmTtant7ThrTQ5eQpB1LDFs/a/7SnzZ9PMpCRzY4I+DOBAgJ7C7I75H80De4D0qtx+8fPXw4E5J8dVWZS8ySkjLX5flvMPoxWTN11menk45XDnw60O05im/DwkKy7583rfPVbW/8Wre0H1fHD33nhZXPurKywvJ+xqDYopsxp2MEGIE8EUByElYpOnHCC8/+K6Jh/eM6UJ1JTbO899xLi39/98M4C0pIgNSIIxthSWfG76BXYoO/s9HkFyQntsjw0/1nTr7vio5tt+iUwWnKLgIsKSm7fa/dcvRjcvvokf3LV610nEz8DE+SpMTvb48p81yG/ZNFL7yq68cEH2/Vr9uKzkMHjDOHhpxTGQrvBtK7rOF3XhVX4mJm2tpdywlLMQJE4dVLId8lai5KMkhhC6xs6sX++e+4YUN0CcmpowmRHy596Zmdmz6JwyMbkpAACUEZCZn8Cn/NWDIQEiAjaIETFZ5yx9hhjzAhKcWDLYhN4/k7iGCW9qwOfftjq5dnzPkP+DGp6gGlOA9MOEhKVKRPY+hx2j1FhJ2RVjnaEpOtq9YP3fziK0tBYhKC+aIfE5zs/HwcXIiV+BsKlfYu4fYxAhdAQHj/EfJFpA3oFDEnMGbF2Jp7Ri56qk25BnVP6sIYP/fpxd++u2mMDYPVkJKZT3PELwu8Y0fhSfnIEwOmTerWpHO7/+qWwenKNgIsKSnb/Z+v1tdt3erHB8eO6m+tGpOIDyrtep8pIe2UFIEAHyfpZ8u9B1Y5u778pq1uQe3691jReXDfCeZQxznMn8TB0rTQ584kl8xoavR5YNMtjdMxAqUZAbHnJEV0UvpCHuGlSLxWkEjeNqjfOF1CcjohMXz9zHnP//TBJ3EOF2h/4RGN7yN2AgahDHhqNpmc5SNS7hv1yAgmJKV5jAW/bSwpCT6mpT7Hwz/81mLF+KlbXGmny3tAhwQtb5Aw+Cmmyr+lH5MzA2ZOuROscrQlJlteW/fo5hWvLjJlOMN0/ZiwxkmpH3rcwMtAQHlStZcrd7ptt/vmdhk+5Gnd7N4EpdZf3vtoJOqQuID94zENbkbQ+s744gvrGyA9UZGne86Zes+/2rbR9l2kWxdOV7oRYElJ6e7fAmldnetbbu/Ur8c0b3j4GZyckDTkJsVQk5Y3/Vy595a+uHLHFn2JSYeBvV68eWCfKRB7I0NtwWT0jBwlk4DWsbVOgXQ3Z1pCEThP98tqMZWvF/vHwDnTbtElJAk79tUBPyRLfvvo0+FmcAtPATRlCHGf2T5KKREjed1Wodzx+0aPGMqEpIQOnCKuNktKirgDSnLxX766dsTHK1c9BZqtkW48uEEdk0APaKqBKN6NjDjTsdt9c9r37b4gPDpai0N89vLqkZ+/vHqBKdMZqqQx7Iq+JI8arnthIRAoOYyuU3P3iEVzbyzfoJ6WDknC7n21l42d/Dl4dm5kBh8jFAMr4K2ljYc8t0GJKThGO9lf6JB8UVjt5HJKFwIsKSld/Vmorek4qPfztwzuOwV8jKRZUe9DRf+U58uB58zgx6Tcl2vi53y1Jn7CudRULUJ8y5B+z3Xs3+sJb6hDeH6lYyExM/rbARVq07kwRqDYI6Ckl2ZQOo+uU2tXr0lje+gSksSd+2I3zF+81pmQ1IiOYKU0JPClxeMbivwrXcc/MGb4w0xIiv3QKNYV1FoYinULuHJFjsBXq9c/vHn5awu8ZzOiAvU/lB8THGhqp2VxONzt+naf2rFvt/m6EpOPX3x13H9XvTnbC1Y5hpjCRd52rgAjUFwREFIMi6lSvdo7Riye0yaybmyaTl0Tdu6ts+Sxxz/3JqVcgUY7aEln8bp9nl9BHuqXDcWygSObQU9Oub9huzbaemM6deE0ZQ8BlpSUvT4Peovb9+ux/LbB/aaYI8LSxHlzzrZKTV/KbBhveZ1O69Y1G1BiMvGspsTk9kcHLQQ9lidAKgN+TKR2ncqcqXXQ+5QzLPkIeEGHpELdWju7jh/VR5+Q7K4Xv/DZNZ7klCvQUkeY4gtdEiQ4gbpjFvRFElM++b4xwx9hQlLyx0xxaAFP58WhF0pJHb5Zu3Hwey+sWGg+l1EeiYMwRZTK+Ti5SZ8juNFCkbA71OG6pVe3Ge36dZsbWr68lo7JpmUrJ375xsYZFgqPLo5wKIoxfxgBRsAPgXJ1a/8Zt+ipttH1Y0/rQJO0c0+d58ZN/sKZeLyBigxuBmsb8m3iWymk7xO4hmksFaOTB04HHZJ2N36lUwanYQQuhgBLSi6GEN/XRuCm3l1feWDUsJHWihWTlc8CQReEkzUyH5STGwbsMjmzbV++ET/7v2s3go7JaS2CfNfwh+Z37tN1htkR4jTDTEkO3FQNpS6LENZcODtVP+3GcUJGoBggkPuoFld97xwct8TUrrm/16QxfbQJye79td5csOSNbCAkyikaKbWC11c6dqUiBEGhqMLwsVWIPt4VdUiYkBSDkVF6qqC1EJSe5nJLCgOB/d/+ct1rj0/91JmaXgEHmFGOoY5xhM8E1FqFKS7U7u7Yp+vUjr27zw8vr2eVs/n5lZNAYjLNnJkZpgIDKksAo/5KYbSXy2AEihoBivqLvuPhxSpfv84fY5+e0zasfmyqTr2O7dobu3jshM9NyacaCtfxQsKppCMkEUHJCHknQcdpIOmMqZDy0Mwpd9drc/13OmVwGkZAFwGWlOgixem0Ebii9TU/3TKw3+PWyIhTPqGFpL/+aiBITWCSywIdk9XxT21ZGz9Rt5B2fbrNByIz0+SwO4n4CH7ji056UbYtt5XKG61uuZyOESh6BM4f3aTLBaSkQv3YP3uMG9lfl5CkH0sO/fDFV5eYk041NEsdEkXqqZ0+KYmQkKCkxF6lYhJE+32ICUnRj4TSWIOLzt2lsdHcpsJB4IeN7/d6+9kXlpnOZpT38/woxSdGyQadVDvs3o59e0xp37fbPF2rnA+fXzkRlGZnepxOB5aBMTnO8y4b0FzjLrBwkOBSGIGCRwDNfkcunntjdP26p3RKS/nrcJWNi59befD7n+82uTGYDbyD4I/EqENigU0DWgRj9G+UkNgrRKU8NHsaS0h0AOY0l4QAS0ouCTZ+SAeB67ves+6OoQMneSPCQGFEKHwoE2F8nogKTXhiRwY6JmbwYzIbrHIm6foxuXPEQ/M79Ov+hNnhyEJFWpcV8zKIZXKh3ReKoaPTLk7DCBQLBOT7hBISJCQ9J43tqUtIUv9JKLdx0TOvHfzuh7vNbmFdQ+8o6pDI91JITPAPMAmG/60Vyyd1HT96IEtIikXvl9pKsKSk1HZt8WnYT+9u6vrW4mXLvWfOVsg1jg3OheQPQVjlgKM0T/s+3Z8APyZP6UpMQMdk4pdrNjwJ5sYhSldFIGAMHFZ8MOGaMALBQqAC6JCMWjTnJl2z39SjiZEvTJz20aldu9ui63gy9UUJidRJUfUiZ4hAWMwgWrRXjkkeMmt6l7o3XP1zsOrN+TACuSHAkhIeFwWOwHX33bWxy8MDx5vLRaTi2bcMkeGzj1GWOepYBYiFBY5k8iUxuUNITKZb7KBjQkFLkYwwISnwzuUCChkBsY+k/1GHpF7sjm6gQ6JLSE4fTSj39jPPrzy9a19bcoxGxzLSG7NUIPHpfaGpvc1sCq1WOfH+scMHMyEp5K4uo8WxpKSMdnxRNPvHd/7TdeMLLz9nOnGqKuqQiKMcJA453FgRE/JvEuLwgLTkCXDO9lR4VJSWMxLSMVkdP9OTneVQR0XCZkDr8aKAhctkBPKHgNTJyq8OyZljSeEvT5v5fsKvO27GIxuP3CD4+/nBoxwLSSxNViAk9WJ3DZo0rled61r8lr9KcmpG4NIQYFJyabjxU5eIwJFffr8KlF9XJvy56/+Utr/iC4Eu6ckyxmH3dOjXY0qH3uCSXtNc+KNlL0/Yunr9LHd2tgNJj59bbDmhX2L1+TFGoEgRINIO0ouo2jV3gB+S3g1uaLVdp0KoQxK/6LlX923d9qA6shEbAhQronKKivSNPoXwPNViqtf62k97jB/bs0KdmloB/HTqwWkYgYshwKTkYgjx/aAj8M/vOxu9OHHap9lJKXUUZcjV+6v0Jm91OExt+3Wb3LEPWuXoeX79fMmKKZvXvzXZnJERjmflyvOrUdE26A3jDBmBAkYApRgV6tbcEbf4Ke1YNicPHo5Z9viMTen7Dt3g8YCVjdThyrGIk9JKwU1Ah8RiqtK08Y+D50y5s2JsbEoBN4mzZwT8ELAxHoxAYSNQq3mzvUd/33lr/MIlryf9saM1nWsbKkHCDMMFT3a2CTy/zsTZNOP06XlhGi7p/29A97nZVoublF/xKIc8v+KsazjG8RXERzuFPQa4vPwjYAGyUD621q5u4+P66uqQJOzdX+vdJS8uTd934AYSjEiPrBTd1zfsLaRkboGXDk5sTA1vav3hvXHDB1aMrcWEJP/dxE9cJgIsKblMAPnxS0fgyO+7Gy6ZOH2TPfFoI5ckJrnFsiGLYfQi6bCbOvbpPq1N/+5zIqKjtbRY339h5YRtr8fPMTmzbOja3iY9VYoIHmBCDGY/Vg/aEedNTJSDtVwthy69+fwkI0AI5H2iKO7g+MNIvRVq19g78Ln5bWrE1j6hA13a38eiXn5syhcp+w9e5yJGIj70PqH/ETT3ak87cwAAFw5JREFUlcc2VrhvtlhNdnC+NmLh3Jur1qmdpFMGp2EEgo0AW98EG1HOTxuB2OZN9sUtePKuas2v2oayEjovN2qASMpMfl/he7Yr2/TJm/FTt74RP/Hc6TQtQn3PsIcWtO/ffaopNCQLB3s28g+1EMCxjs1/y5hr3TEJxf/QbhknZAT0Ecihw4EjjMzITB4QX5SPrbGr5+Nju+sSkqS//6n45oJn1hw9eOA6t0+ZXLxjQsncKiQlkD9RcovNVO/G/9s8YfH8m5iQ6Pcdpww+AjzPBh9TzjGfCPzz+47GKybP/DDzWBJEJ72AAAQnUPRjEuIwtevbfQpITZ4KL69nlUOxcuAoB1zaO1SsHBz8RDYudnojt7J572jz2WBOzghoIKDGG7qOH7Vo7o26RzbH9x+qsuTxaZucBw63Ih0SdH5GBERYoYl88Zs4NkUdkhotrvpm0KypXaJqVjujUTVOwggUGAIsKSkwaDljXQRqNb9yz9C5M7pUa9FsK06cxkEpRM3ig+QBCYXJ6TSBH5M5W9Zu0I6VA35M5qEfE1OIwykmaMpRTNZ5fDAJ3ZdpLsZddNvL6RiBCyKgJIToh6Ru7V3dxsX10yUkcFRTdeMzz73qPPB3K1KfMuhrIRERL5Ic+/Dba7WYGne48f0hMyczIeFhWSwQYElJsegGrgQi8DdY5bwwaepmT+Lx+jh/4rEJenpFaUZuVjPgWh5i5XSbClKTebo6JmAuPPErMBc2ZTntSHBs5EBK5o+VYObBg7GIEVBjHfyQ7B65eF7r6Pqxp3WqdPLA4ZiXn5j5wfHd+1p7wVMrEhI/qzZxcOOLY2NB9/RNGv48bO6M28rXqaWlp6JTD07DCFwOAiwpuRz0+NmgIlAbrHKGz5vVpdq/mm3zkhmvkIyQtESSBbnJo4tmp9MMVjmztq7dOF63Il2GD5nfvl/3aXAERBITkT/8u1gUP90COB0jkG8E/PeG6N49um7tnRDLpocuIUnef6Dam/MXrz2+Z39robyKSqzocwRpiMhfxJ+SRzkgIWnY/qb3hy+Y3YkJSb47jB8oQARYUlKA4HLWl4YA+jF5YcKUz1zJJ2ON3ibVGbsiKShBQWJhDgkxdRjQc2K7ng8+nQ8dk8e3vBE/w5SZ5WCrmkvrJ34qeAjgOMcQDMi90XX8qMVztf2QJO7dX3PpY5M+dR1LboYqWcivUffKozRZDdXEKMBeh81U5/prPuk3deIDUdWrnA1eKzgnRuDyEWBJyeVjyDkEGQH0YzJswZxbqv+r6TacqAN1TLA4MpqRv93ZTtOXq9bN27oufkJ6aqoW0QYdk6fa9wUdE0eIS9pIUiv8PaYEuWGcHSOQCwJC2RQICfxUrAc6JPnwQ5K0Z3/Nt8BTa/bRlGYk7cMxjFZsUgJotBmju3aL6arO7eL7TB7flQkJD8fiiIDWBF4cK851Kv0IoMRk+dQZ72cdTWpidoOanmG0+umYIHHxusEqJ9TTqX+vSTf1emBhZHS0lnYI+DGZ+L9V8bO8ziw77lPZJX3pH1fFrYVKAhhVt9YutLKJrl/3lE4dQam12osTp25OO/R3S7PUYfUFtVRSRHlEaYMXBk2LK13V6LtH5s64PbpGjVSdMjgNI1DYCLCkpLAR5/K0EUCJyaiFc2+pfW3zzz1Sx4Q2g1I8rcxyMIYOeYXNclr++/q6ed9ueHe0biHgx2R+J5CYeEJDM/AcnsgOhTHmDyNQOAh4wCQ3CnRIek8c00uXkCTt2hu7du7T69MP/dOS9EZw3EJ1ibhLQkJqUvK6y2YxNevcfuOwp2bdzISkcPqVS7k0BHj2vTTc+KlCRACU92otnzj1s7TDx5rQhlBuLY27QpyY1aTssNtNrUYNHn5f714v6FYTYuU88fm6+Klup9NxXlRhnNyxWGJEWgIY3WI5HSNgqlKn9t4Ri59qFVY/Nk0HjqN79sYufezxT0zHjjfxACHHEWmVRzbK2sZFlmV4JAQnNnD/itbXf/zglPEP8pGNDsKcpigRYElJUaLPZWshENP4in8emjP7jhotm28lqxwiIHCcg6NX7gpVRnjP5XSbvn/+1ec/XblqtFYBkOiGgd1nt+vXfYbF4cjygiwc6YfSL0EyInQG9QmJke0HMv9c7+X1QG7bhktJe6FKKKLnA9GAWnEsX7dTNdulBGNSyEBBc8lQRfJfn0RODgFfOnnfL53hpoAODgRh3OCP0o/C/NGNmRmOU6Lr1/n93omje+oSkqQdu+u9s2DJatM/KU1UgCgrvguyn5QPHiQk+I5YwHNr49s7rX3giXFMSPIzbjhtkSHAkpIig54Lzi8Cibv31VkybtLH7oTjTbxgRUCO1uC3inZqlGO4wcGJ3RHmvnPowLh2A3st0y3rw2UrHv96NQT/y3JSrBy0VlBWEfmxGlZSHGPcHDwWwvxyorPm7n9Ft66cTgMBGhTIXtFvB3EEohJeJAoXk3xJCZmxFJ9Bi+SnOX5RJUNRjvZoZgVaC+YwxuCSdBWHLvygDsnIRfNaRzWITdVoiSlxz77Yl+ImbTmTklLPjkeWRsVWRaRA98oEx0EeGGs2aGyVG67+/KHpk+8uV61Khk4ZnIYRKGoEmJQUdQ9w+flCIHHXvrrxi5a+8s+vv3cySWKC/hiUDIPWHeOuMTTEdduQfmM7De77nG5BHy1bOem/8e+MM7lcoeTDRC5OcvNM2bhdbpSKe4FogDVnwLLjrzF73jsGT1AEHnIhITkPbqRhcwvauuhJgr6TB3xcO43foSRaT/O6r65TJXGDDpkoP3To4RP1HeWm3c8/HSyUGCSWklzse5GWr9uJioCQ2IPC4/ozQJ+mNF73D21AHab0NAKEY+c78SMRGtXK2NFKz4PGpqwLAUxiPrOpXM3qf/Sa9FjfBv937XadJiXt3ld73fxn1ib9tqMtDhohy5Mu441sHOtBZN1jqnrNv/436MnJd0XXrnVapwxOwwgUBwSYlBSHXuA65AuBxD/31l85dfpHZ44cbYxWB+f5GYFRjZ5g3XDUY0XiEhbi7vLo4OHt+/VYrlvQkV9+u8ru8mI2xEnwRywn4uN0OsMulBfelwuT2JsTQTB7ITiaxZWVHSqXKqg8HEhZoBW4vpBM3+x1ZmZF0PoliQVu7OXpkZDJi7S+a7mmVc/i0mXIS5Eaui2v+/JW1wLy96WV1wu4fBUoLqfNxnrlAjqSQvixGMmhcPkBgALeTmdWGGCPIgs8h6Pr9AXuIY5ZgDf8Rf2Dahg2IjAkSPFmnsuIpvzJYpceVkIWcJrqsWZlZEZarVYX3Re+yuiD37NdLoczKyvcbDc78S7ofYh6Wq1Zd/TsNjO8Tg0t6UUCHNk899jjn3mSTzZwEyo5HyQgRl8+5BDQZjaFV654dNiSBW2rNWp4UHfMczpGoDggwKSkOPQC1yHfCByFIH7r5z+7JnnXvla4PAsxupDOqx/6W67slpBQ921D+o/pNLiPtsQk35XiBxiBICNwdOeeOm8tXLIq4dc/25PoTDpHy5HPyDGOpzY43m1WU4vbOq/u1LvHjOpNr2BCEuT+4OwKHgEmJQWPMZdQQAgk7Nhbf9n4KZ9mJ6Y0MIG4Wnl4RZ0Nufv3lUy6HWEhrgdGDx90ffd71xRQlThbRiBoCCTu+avm0rGTPncnJDURZ21ChwqJts+bMYxrn06VzWSq3abVpkFTH38wonJMVtAqwhkxAoWIAFvfFCLYXFRwEah+ZaMDIxbMubV686bf4DaRTHlh4saPUkjEv8R18EGSmWV7e8myV758bd2w4NaEc2MEgotA0u79td6ct2htdkJyE+TTFKMJJYJKNQaPJeV1UpyF8d385s5vDpz6eFcmJMHtC86tcBFgUlK4eHNpQUag2lWNDjwwdsRDITWq/iUUCnN8siIxoUkcj3ZAkoLKAJ6MDPvHK157/pu18UOCXBXOjhEICgIJcGTzzJjxXyRu/7O9UuLGWDbiKBK/KNYtlFg8EFwvom7tPzsP6DM5snJMZlAqwZkwAkWEAJOSIgKeiw0eArWbX7l76NyZd9ZofiXFylGmOMpSgnRMaEIXchNvVpb5g2UrX9q6ev3Q4NWCc2IELh+BY0BINi5c+po38UQjowWQv/UyHuGg6ATUda1W07V33bEybunTN1Zv3ODQ5deAc2AEihYB1ikpWvy59CAiALFyGj83YfIn7pRTdSgaKioGSmMFP1NO6d/EHRGSOWDcmL5X3dflrSBWg7NiBC4JgeTd+2otHTsZdKSSm6K5u9GfDVFqshvK0SHx2mymejde/0H/KeO7RVauxDokl4Q6P1TcEGBJSXHrEa7PJSMAsXL2jFww9/aaVzb7DvVI0C+EzzOnwVyBRN7oGTYjK3T9gmfXf7lq7cOXXCg/yAgEAQEgJDXXzVu8xgmEBE180Zzdt2MUw5hYCUX/hXGNpsANW1/30cApE7ozIQlCB3AWxQYBlpQUm67gigQLgaPbdzdZOX7ylvQTJ6ta3cIqh+b0AJ8OysOntVxY2oNxI4ZecXWLL+AM34JR5FHOYiY3JUhglPdP8nxB8hflskO4rUD6I0qBwIDgjwIDBIKPFPJ6Ae4zaFHxPYdpyRgIRPDwBXyZQUnoJwO9WwjuRP7N0PUFpQLvnOQog65rpiXHKLJk6XKD8sqzruRfDMtFDx6UTGBG9cdyoSWwIopjMJPXarOB7w2p5UBrJMimADvVh+i7A79DNogCPYXf6WGLGTb5Nhf48bDZ4Td4zjWDDw+v20N+Q0w2i9VN6QgLaeINNQBEMC+qmtAVAv1OmT/pf+IDkDf9Uhlg/+Uyyzkqlqe6OE+eNqvvqu6F/Tvxz131Fo6f8pEp8UQTHDvojRVbjobuRKoN0j7ULYE2muzVYo6MWjyvfZUmDQ8Vdn25PEagIBFgUlKQ6HLeRYbAsd92NH1z0ZLXk3bsuV6ougq/WUY9k5ytKMzzNrvbFmI/K/eksAzQ2oargnR7Ir1nyoXS5zlVrPjCS6pYAJFxkEdW8oyKi6q8Lx2eoZMtjJ+GS7oHaI8NlnI3+J+wwm+X1GH0sRy4jvfxOlIk+m64hrXLPa0sA9c09BRLvEikdcMzEHWF6urGuoDHNqQbWFckWwQRqCxA25EGCBaEHal4ATbIHmLNBEeoaPOEpEWQDdrBixUU2EYWeZRViyuko3Yjr7DbMy0WdGuH1M3idUNRVtT1QSdlUK7DCm7r0M0Yrr9YPmGIXsfgu9XissOz6JfGSFpoGYf2WR22rMDrck0X9bLaXNBT4PfMY/V548UmAkG0WqDbbFbAV5Ar4mnSWR2SMpvPSVpOnfBJaiK66bVA3gQTNUQETJIDDh3kmc0ANThso3IFayQClnz47xYJfx36l2iV+OTUWRAUvAII0fcaV1+1rfu4Uf2qNWv8V5G9YFwwI1BACDApKSBgOduiR+DIz783f2HClC88p9JiaIlT225ZNbXjxlVFyCj8d+e5vRwUrI9kGGoLS3QBl365mpCTUEGC0ImoEh7QfdrPB6TNcTQq3L9hMrSwIDl9To2EpMTnlPTiaZGAKRmJRl1pCcaPEnbQllxey/Fra1zgL6WHjV2gxBxK+nGh/BSZzE3qcSn1MD5zngTtAhnmqackn5EnhkZW4cuNZGFydBhxRLJBhFnSDv/ic/oBYxO4alQ++BiawV/ZZP/ltpufZwSKIwJMSopjr3CdgobA4Z9/a/HWM8+/krhz37WCLIi1Xmz91Zqv7qhiZQA3wRBkosDvQatiqcwoEDVspFqIL0QCfF2iFnn523g9kBj5TWKGow51XUlOfNYsFBDoculVcLqNsDBIfYwWN8RhoRgUq+GRTs0WTbc9OHl8r1oNGxwOTumcCyNQ/BBgUlL8+oRrFGQEDv+yvfmKyTM+yk4+WVNJTFBbxBfunXw/SMmEVJoQkg8l2RBieD8LniDXsdhnp44iglRRxFLRAhVJWXBA2ReB5Riu+/pNZkDaOvhoAM8wSlVyi9asilCSGlUnUmyRjsroTEvW1ViGsczA+8ZyjQRMSeawXOP3vOquokrjwaC1esyBuEXzOldlHZIgjUDOprgiwKSkuPYM1yuoCBz+6beWGxctXZW8Z19zIhi4iMHuE7QzfYcUfgUql7DFY0MdVCzOz6xopEE+EkBEMDeg9erl45GBUpIclQ6/JgeSy7yOZLSOamQZxKcCmuDTX1KnZ9hKOeMaOZ7Q4sGbORngNzo8gzFao+VVX3cdN2pAjWaNDxTwQODsGYEiR4BJSZF3AVegsBA48P3P1740adpH5tPpVUhR8gKjX0fPobDqXfDl5HVcFfySLy5t0iEoF6/Xxcu5eB4qRTDzyr1U2Wal9iRJDDoCNFeN+StuEeiQNGvChES/yzhlCUaASUkJ7jyuev4RAGJyDeiYvHp87/4WaIpCphO+bWuOi3ph8is+QrnV36WPVGVVKXBLK9IKFVffb981ozIs3RfmMD6dFXk/p1y17UczXCg/pzY+xdoLp/VpUvjVJUeVN++6Yp1y0+EgBV+lPCuPt3LSochAKfwanxblKHxUj4kU/liJFhvzwb99vUB9QFbaPhGEvH/eUZuCVYklxDOir8WxnGoLFieEFOcrFvuO8CiFPM4LHHJ5MZbcxCTyWaqVxFK1kBDySV3QH4nZVL15s696ThrXp1rjBv8EFst/MwKlFQEmJaW1Z7ldeSJw4Iefr1m3aMmLrtT0GmCM6jZZ0JmJFWxWhfYjGMjidzCdBcNYMpmA+2j6icsG/EaLTrABRucddB/SSpNgsv0FU2CwL8XfHguYwMIBEV6G72hiIU1b0b0GXbd6LDZIC6a56LTE46Z1CZ/D8qEumIe6nktaVVdSYzCkFaa059cVXa+gSTC55sqpqxvMba3YOCQdUFcIpqLqinWhNdvjxvKhomAyC25F4G+JlairworMh33nEUQAKE9xH8PcAtZkPS3rItyPBGDlK99nhiz6BTFEfKEqbsAK7gqs0CEMZG2l69RHaJwsiAH8wqrCU6JfMS0ibzH0qyAtgIDHLLEQbmrAVNsCpsN0HdoAGEH5UIgVQEJGhb5bsP7CdgZc3MB1ZJB4HdLIsQBlEunAqJDwHLl1gfyxXxUvI/thMLEGhVaIveexhFaIShg0fXKfqo0bHuFXmREoSwgwKSlLvc1t9SGQnnYG1xpwtSWco6kNuN8GV+xeaW1TO1m1s5WKjrTZN8oBiKNgnshlcHkWm2KfvoHSFSADXEwDX8LLR3nPnU4z4+/0tDRygoHpIqMN11PT0ILWL21e3ZkOafHZy+3u9NRUyCfal8+506lQx5y/Lzf/svb8WeiXCOgX/C3Gnb8eCt7DvsNJGb+XNXy4vYwAI8AIMAKMACPACDACjAAjwAgwAowAI8AIMAKMACPACDACjAAjwAgwAowAI8AIMAKMACPACDACjAAjwAgwAowAI8AIMAKMACPACDACjAAjwAgwAowAI8AIMAKMACPACDACjAAjwAgwAowAI8AIMAKMACPACDACjAAjwAgwAowAI8AIMAKMACPACDACjAAjwAgwAowAI8AIMAKMACPACDACjAAjwAgwAowAI8AIMAKMACPACDACjAAjwAgwAowAI8AIMAKMACPACDACjAAjwAgwAowAI8AIMAKMACPACDACjAAjwAgwAowAI8AIMAKMACPACDACjAAjwAgwAowAI8AIMAKMACPACDACjAAjwAgwAowAI8AIMAKMACPACDACjAAjwAgwAowAI8AIMAKMACPACDACjAAjwAgwAowAI8AIMAKMACPACDACjAAjwAgwAowAI8AIMAKMACPACDACjAAjwAgwAowAI8AIMAKMACPACDACjAAjwAgwAowAI8AIMAKMACPACDACjAAjwAgwAowAI1DmEPh/K+n75EeOdBEAAAAASUVORK5CYII=;" vertex="1" parent="1">
          <mxGeometry x="598.5" y="181.1" width="59" height="48.9" as="geometry" />
        </mxCell>
        <mxCell id="Fq7706VyEmhTDiXR55tR-27" value="Intensity == 0&lt;br&gt;No More Fire" style="ellipse;whiteSpace=wrap;html=1;" vertex="1" parent="1">
          <mxGeometry x="400" y="470" width="140" height="70" as="geometry" />
        </mxCell>
        <mxCell id="Fq7706VyEmhTDiXR55tR-28" value="" style="edgeStyle=none;html=1;endArrow=none;verticalAlign=bottom;exitX=0;exitY=0.5;exitDx=0;exitDy=0;entryX=1;entryY=0.5;entryDx=0;entryDy=0;" edge="1" parent="1" source="Fq7706VyEmhTDiXR55tR-27" target="Fq7706VyEmhTDiXR55tR-3">
          <mxGeometry width="160" relative="1" as="geometry">
            <mxPoint x="410.0000000000123" y="425" as="sourcePoint" />
            <mxPoint x="390" y="320" as="targetPoint" />
          </mxGeometry>
        </mxCell>
        <mxCell id="Fq7706VyEmhTDiXR55tR-29" value="" style="shape=image;verticalLabelPosition=bottom;labelBackgroundColor=#ffffff;verticalAlign=top;aspect=fixed;imageAspect=0;image=data:image/png,iVBORw0KGgoAAAANSUhEUgAAAcQAAAHECAYAAACnX1ofAAAKfHpUWHRSYXcgcHJvZmlsZSB0eXBlIGV4aWYAAHja5ZhbduwsDoXfGUUPARAgGA4gWKtn0MPvD7tyqZwk5/Kfp+44ZbuwC2RtaWvLbv3n39v9iz/JJbqUtZZWiucvtdRi56T6+69d++DTtb/+Znqchedx93ohchSOcl/Qfh9DZzy//eBljTCex119XIn1MdHjAhNff3JWPuf23kjG4z0e0mOitu6T0qq+N3XE10d5M+XxSa9m3Yfz3T0NKF6yzEIS45Ig/trX2wK5P52ReO0r93lpnCcJjoMXfUyGQ54e7+Xo/XsHPTn55cx99P7r2Qfnx/4Ylw++LA8fcfLphZA/jMvrMvH9wvJqUXy+MJKfPzzO47O31b3X/XQ9FTxaHhF1OTu8TMONA5fL9bPCpnwy53ptja367ieQG8sNthlaiKCyXUjBQg87rOs4w8TEFFdUjjHOKNdYFY0tToAJYMQWdlQQM6lgOONyIgzHV1vCtW671puhsrIFbo2ByQ7sX27uu4u/s7m9j29D8PXVV9gVT1xjxkHu7LkLQMJ+4JYvB79sD/j9u/g5oZq47bi58oDdj3uKkcNbbMmFs3Bf5ninUHBqjwlwEWtnjAkCAr4EyaEErzFqCPixAlDH8igpDhAIOUfDyJhE4CONpAxr8xsN170xxxLPMNwEEFmKKNiQU4CVUiZ+NFViqGfJKedcsubqcsu9SEkll1K0HJLrKpo0a1HVqk17lZpqrqVqrbXV3mITODC30rTV1lrv0XUW6szVub8zMuKQkUYeZeioo40+CZ+ZZp5l6qyzzW7RxKAJK6ZWrVlfwS2YYqWVV1m66mqrb2Jty04777J11912f0XtgeoP22+gFh6oxQupc5++osaoU32ZIhw6yQczEIspgLgeBAjoeDDzNaQUD3IHM98iSZEjRuaDjbNwEAPCtELMO7xi94bcL+Hmcv0l3OLPkHMHur+BnAO6H3H7BDU7dW5eiN1ZeHzqhezj+qrdxdpPUev/9Ph/OdHoeNJWG3hc/GwqMom3GHaJHR6uAde3qUtys9xd7y0pCWyj6fKFiOqj95DM2lgLfkf3JF0xmRRb1kNdq/g6CcqxZskZYtca1UndMw4CI7Z8YlTmrIIF3hIf1USUjZGt3taaX9H369w/Hd3HgT89Pk9EoIrm2STZEAyWmrO1NkctmOqpsattxlLVNMdq1lLSMmIzc+Zbjl5X0dpJiRUmz1TnPtlqdVSyo89OVmic1veYO0P/SSWQsbsM8i8xnJ2lsnfHy7mv1DpZ2BMkEvktvDdZbfl9lNOeLN1HzmMK90ERO+a0h9dTBYozyizzwECZlaVsGCm1sFtdPHDGrpDn8Ni6/dQc5ix97pOhPcSxgCMMUjS7fDloqHD333P2J0ebdlwStM8CPwTdsLD6PrZBESsQjalDhE7DKi1YrnGyJ8IKBNiiZW5ahZhKg9gpBjytT1s5hTbLhnzzWFV2NyX6tLvMlLVumzMJ4d60rIyaqspimi4FpydldiiD3OBXuxCe22REm3X7UUPtpTmVtHeDm9pL8JIX1l4ejxDB4sO5EwYzX23X6TWvUE+WgSy0ChzZ1SOFIeuqxAiFfuwctpUxSqciIe12JH8jGBbE8ybv4NUG+9c8NR02bkXN1K1hc4tcwOVtYeYmHppWvhAw84gwGgp/9jWXYDpyWgjIfpwWiWSphntdZsdapZMfGLvKW3bm38HffXdDVKpJLmOOycxMjamzaDCvmE8U0mA0f4pmKm4cDVVCwmKoawUZPDEAKDVTJ8wU0i7SVtqLtN1zDQoW8iCQc1QujUpgrLrdjK2SM4T1DvDPMNmTogdC+xJ6d+DXtHv/yvAAWyTX0LY7pDpGC7MAKpa1ReCRn0CfRoEnY/ZLpC44LvSdyO+soOJ9pn5qO5zrlLxU1DJEM48Nqa81fSYpepvNTo43fgMExD2MkqKtA6F2XVqQKuzr5exdzpOnf1pI3MvJMpkiYU1D4RQJ42L/YWP3XCb6AjVxLF7oonL774qwE+ylEZAwHpID3bBJvUUIIhWS0mEifU7WwTuLL/wTzd3fp/7HI7LG6DuSbYJ1TdCPCQpNy06elDKoZvQdGzNHu6L7ivFVkch5nvrCYr0tUqRYyBH3lpO8kIcna6lFZyE0OFy/fb7W9d8e3c9u4BjIxuOgV/ecHuh2zcN1XHEfL+lxGp6Zw3LbI6zzbcGRG61PrN6zZ7hwPvnJvXdYbo06enzQLjPody6kKPgZSvvuqjl/VlejPJA6cBJmcTWNDf88uWp97wH3cxd9dNXnseTePPZ1sP2K29wnfvvMbQ+3HD3Kms9Ou66554v2ucv8z532K3H0S/HlnqMoJ6NTpxNPlJEjI4w+xKc6C3tsgnB1Lthdkf4QPyqgnRdJmtz2tBR+Iw8ogjO8xBsQ/J7f3IvjEPoFFWgWy2p0TOBCpwDlndqZkSVaKPEYUeHuGf1SdNHwtBAU713FyTwNwKnJPcoO/U8liXsbGPTH5eiD3Y/kUbiOlmiNuo75vZQ+DL2FJhiR7m8otuGN2rbpRo2sASXhuzXR1C3Q1mRB7lYUFfy7ESNwVbzCdMLs52XOfNSWRahavdnWfUvHiBdf5bwfOV5WUF02Ah2YNYQTzVQqdKdRel1u6kYvohPKRgtSkuaB1oQcgGdJg8vZc9KV0cJiuEUUZIDvFkoUy4Uu7hRIJL4e/fqo+HVL/aNCch6tFSPQ1upHWZz4o+J7Oo25xKgjyG8uR7Z+Lu/RUc2hrb12nvSmrSN0iqPmlES5RRlh//SxH100NtcBYxMsnadfyuMpshH9hL5a6PcoGWmDOpJgkICjWErLWFBjR/dY6bXRl+4aKSRihy9OKaWufz7pIZOIinSyt5BTCNRTQ4hITin7haImhPhGf0UCib62mgE5xtLXE3SMQUzhkmGzkyLVri90EkeETtap5/s49DXJmses5AyCdTCNoiVejKTOPcx0n9op55b3hp6XpsKD57FbkhczWf3VUPdmKcO3rcfSs9Zl6m0oUX2b+qWh7snSb935gzefTHS/5sqfe9J95soSUQRQJS1sqpFWqsMBEIERgkvpGaAIKGpSQFL1tZBx4lqgy6NDIdvaexSeI7DJiTB0U+e3LdIhE8UGRYxYp0Cwy6Hxhd6tD6LwDK/TPdKN0WxXP4sd76D6UHiUsIzYazRJchPyovUIDwp2/mvt9FvHeyJVEvIkJpVE/XnnREMP/mum2+F2XNopuM0oe+O8+OHJCx3bpu03uh0HSIcgMw+H8u04QDfPTMRovXsUmtVekW6KoBWaPPqjCxjkvobZiIcJAVMgExJ05cgzB7slMm05OOB2oT04zl+05gF5OAVxCnjQyU22FmTJRUjuL71j+X4iyBrJmZum2Wrz9CboTEod/FC30vPBNHmaoHvVxbhCoT2YdPxCBFCH+GRUPs86SYHzOpJuYOORQce3dJNOPtFlnuCom7aP8rDcWqejZFa4myIbSmLSenSP0VQMOtMsORs9s6VViGRrIaod/9J6rCFXeV3BndcFW+iqaynIqBXJM88ycaTCqjSSj/5v9LT9/NJN7i/4+X90oo1Ga+6/wWAr0eHpXukAAAGFaUNDUElDQyBwcm9maWxlAAB4nH2RPUjDQBzFX1ulRSqCdhARzFDFwYKoiKNWoQgVQq3QqoPJpV/QpCFJcXEUXAsOfixWHVycdXVwFQTBDxAnRydFFynxf0mhRYwHx/14d+9x9w7w18tMNTvGAVWzjFQiLmSyq0LwFWH0IoRRDEnM1OdEMQnP8XUPH1/vYjzL+9yfo1vJmQzwCcSzTDcs4g3i6U1L57xPHGFFSSE+Jx4z6ILEj1yXXX7jXHDYzzMjRjo1TxwhFgptLLcxKxoq8RRxVFE1yvdnXFY4b3FWy1XWvCd/YTinrSxzneYgEljEEkQIkFFFCWVYiNGqkWIiRftxD/+A4xfJJZOrBEaOBVSgQnL84H/wu1szPznhJoXjQOeLbX8MA8FdoFGz7e9j226cAIFn4Epr+St1YOaT9FpLix4BPdvAxXVLk/eAyx2g/0mXDMmRAjT9+TzwfkbflAX6boGuNbe35j5OH4A0dZW8AQ4OgZECZa97vDvU3tu/Z5r9/QB6lHKqzqq85AAAAAZiS0dEAP8A/wD/oL2nkwAAAAlwSFlzAAALEwAACxMBAJqcGAAAAAd0SU1FB+QMEggpCDpvx0AAACAASURBVHja7d13nF5VnfjxzwxJIJUAAUIxhN5CC72KYAPFsiIgAu6iKy6KWFbdn4VFd0UX+yo2FFiUJhYwdoooCEoLQoAEaaEHAgmkQOrz++PcYAyTmWdmvrc99/N+ve7L1YUz957nnPO959xTQJIkSZIkSZIkSZIkSZIkSZIkSZIkSZIkSZIkSZIkSZIkSZIkSZIkSZIkSZIkSZIkSZIkSZIkSZIkSZIkSZIkSZIkSZIkSZIkSZIkSZIkSZIkSZIkSZIkSZIkSZIkSZIkSZIkSZIkSZIkSZIkSZIkSZIkSZIkSZIkSZIkSZIkSZIkSZIkSZIkSZIkSZIkSaq6LrNAKkw3MAnYEdgBmAiMBEZn//95wALgAeBu4E5gGrDcrJMk1d1I4Hjgx8BsoNXP6yngUuA4YITZKUmqm22As4HnBhAEV3c9B3wX2NrslSRV3RbARcCywEC46rUUuJA05CpJUqUMAz4JLMwxEK56LQA+nv1tSZJKNwG4ocBAuOp1M7ClP4MkqUyHA3NLDIYrrjnAa/05JElleDuwuALBcMW1BDjRn0WSVKR3kdYHtip2LTcoSpKK8oasN9aq6LUUeIs/kyQpT7sBz1c4GK64FgK7+HNJkvIwCpheg2C44vobMMafTZIU7ZwaBcMV19n+bJKkSAdQzUk07Uyy2c+fT5IUoRu4vYbBcMU1FU+2kSQFOLLGwXDF9SZ/RknSYN3aAQHxJn9GSdJg7NMBwXDFtac/p7R6Q8wCqVfvyCndF4CrgGuBx7P/bSPgIOAQYK0c/uYJ9hQlSQOxBgM75b63axHwhcVwXgtaPV2L4Tzgi9k/G/m3Z5EmCEmS1C+75xCQDlhdIFz1Ag4Engy+h139WSVJ/fWRwEA0H9i13WC4UlCcTDoIOOo+PuTPKvXM4RNp9SYHpvWBVloP2C8tuAX4YHCvV5Kkfpka1Cub1t+eYQ89xbuC7uUWf1bJHqLUX9sEpfN/FUkj8pkkSQ2xJnHf7SYF9BB3DryfYf680ku5v6HUs3HAUxEJtapXWccBT/sTS//IIVOpZyOC0nkh8J6i0hrpzysZEKWiO2TLA+9pecWeTTIgSpJkQJQkyYAYbjN/AklSFWJCmQFxA+A2YAow0XIgSY21CXApcDvp1JfGOZe/r4taCJxOWvslVeVNNWLN34LBrkFcaS1i1J6mjsyoKoYCpwLzViqf329aJuwBLOuhot4DvMoyIgOiAVEd70BgWg/lcxmwd1MyoRv4Sx8V9kekIVXJgGhAVGdZF/gOaRnR6srozTRk0ue/tllpnwFOwpmw6tCACEzKhou+AnwJeB+9bPNmQFQHdIZOytr2dsrpO5vwZvBUPyvvDXioqeobEJcCv87K8d3A48Dzffw7y0gHA98NXAdcDpwDLDEgqqZ2zepAfw/UHtvJmfLlAVbgZVkXe4zlSjULiFW8DIgqykjg84N4mTuzUzNmImkvxsFU5MeAEyxjMiAaEFV5RwAPDbKsPt+p5fWCwAr9G2Ary5tyeJs9PBvJmNbBAfFLwH7AGv7kysFWWRsdVV7P77QMmkzPyywGc11sudMgdZGmd38K+AOwqIOD4Oomrl0K/DPp+74U4eLgcrqMDptHcmVwBi1w2EeDCIL7ZL3Ah2hWAOztWgz8jjQLcJzFRIOwGWmzlcjy+dtOyZzX5lB5T7PMqZ/2BL4APGjways4Xgb8EzDMoqMBOC2Hcln7TVu6gKnBmXIfsJblTW0YDZxM2h/RQDew62nSN8etLU7qh+HA/cFl8WZqfpbnm3OooG+wrKkPOwPfAp4zoIV+x/kNaeagm2WoHW+y/c+3d/hry5h6KW9vJC1kN4Dle91FmojjcKr68lt7ifn0DpcCO1q+1EMgfHMOL19efV8PAe/HU2q0ejtlbXeje4ldpLMOIzPhbMuWViljR2RvjAan8gPju4EhFkv14Jzg8nZr3XqJ/0T8MotNLFfKHIoTZap43ZPVfWllmxK/DKM2vcQ8eoeftUwJ2Bz4qYGn8tfVpIlN0gqfI/5bYi0cFvzgT+Km3k03Evgv+j4lwqs611LgLGBti6+ycjA7uIzVYl3i1cEPfaplqdHeBDxsgKnt9ajDqMp8MLhs/a7qD7x78AM/govwm/xGeZ4BpWOunwEbWqwbbXj2ghRZrkL3OI2eqXMxcHRgeqcA37AcNc4hwLnAhJo/x3LSIaezgTnA3OyaD8xb6Z+bm/3nyoehjgZGZf/bOtl/jgPGU9/dOp4izUa9zCLeWO8HvhaY3oXA26sYEDcnzTKLmnr9COkYkUUl/XDrZI2Yin2D/Hz2IlSXRn8+MCO77s7qwCPAw620HCFcV3pReBlp9t7WwPbAdsA2WSCtunOzhnG+Rb5xbdtapO03Nw5Kb2kWJ2ZWLZP/N7gr/N4Sn6Ub+DNpjNo9HIuxJdVfSrEAuIa0t+fbgG1a0KrSlTUOx5A2Mv99FnSqmJd3A5Ms9oXaOmvTbqDc7ffeH1yWvlq1jB4bXPEeptzdL97JP57YfBruxpGn15A2ka5ao70oCyqnAQdWLfj1I0juD3wSuAp4oWIvGO+w+OduzawMrzxL+8QS72ctYr8lzqNis5k/0EG9w3VISz1WvafppG9bCh3942PEb+002ENzLwCOqmsAbCNAvgX4P+KnwQ/0Ogt3ucnLIVnbtWqez8raurKcGlyG3l+lRm0GsesOh5f4PGf1cm/LgR8AG1jPBm0k8KOKNMgLgYuA13VqEOwlOL4aOD97yy7zN7gSWNdqEWaDrK1a3kuef73k+h/5QnY3FZl38OrgivGfJT7L5DZ7K8+QZst5DM7ArAfcWIFAeCNwYtOCYC/B8TjKPS3kHtLEIA1cd9Y2PdNGfi8FdinxXj8TXH4OrcIPcDmx3xTGlfgsv+/n/V6PW1T118bAtBIb3edJ6xv3MgiuNjDuStpMf0EJv89TwF5WkwHZOWuT+tszL7MXG7nH6U/K/gEmEPv9p8w1h28c4D0vIa2rGW197NPmwN9KCoTzs99pY4Nee9ecNPHi9DZ7G9G/1WFWl7aNyH6nRQPM79eVeO/fCiw3S0hLkUoTuWHrUtLU+zIMycagB3P/M7Ogqp7tBDxWQiB8DvjMQvi0QW5QvcZPFhwYFwNHWW3aepGfOci8ngasUdL9bx3cqfpMWT/EUOCJwAe5tMRC9W+Bz3EZ9d9hJdouFL+sYjFw1pQKrhWs67U4DTV/ieKWbiwBjrX6rHZ07rLAvH53ic/yk8DneLSs4P6G4ML/8pJ+jNGkKciNPJqkANsEvzi1c03BQJhnb3EicElBv+VS4Hir0UtEH4z9OGmrwDK8IvhZShlujzyX7k7KmzJ7Wg6V2O8fyabAAwUGwkeBEwxahQXGV9DzGrfoaxlp9x393StzyOePl/g8dwQ+xyVF3/z6DPwDbk/Xv5X0I6zY0y+yUP3YugqkGWQzCgqEy4GvGaRKC4yfy4Y389416LVWq9yGGlcsJytrx5f3BT7HCxS8pjVyl4FnKW+G5n8HF6j5fj8E0tZMfyooGD4EHGJgKj0o7gvcm/NvvYC0DZ2SzYhfGnN6Sc8yhtjNIU4u8uanBt54WbsljCPNQOyUIYeq6AJ+WFAwvMBgVLnAeHbOv/nTuHh/ZZ8Kzt9nKW/HoG8GPseNRd30LsFDXduXlPlnBhekB/EwY0jT8/MOhC8A7zEAVTYoHk/sgutVr7+RdjtS2ubyoeD8PaOkZ9kp+Dl2rFsg+VOJvcPoY3GcHg5vove9EyOumbjLTF12u7kvx3JwLZ5As8LxwXn7XIm9xL/UKbB3ETtr8F9LyvTTgwvQjdT3FPMoWxA/QWnV68/AhgacWq1b/EOO5eG7xkIg7V96S3DefqqkZ4lcE35v3je7T+DNLiSdo1i0kaT9EiMLz4ENr5BrEr8uatXrpwaZ2vYW8/ym/E7jIZDWcUfm6+ysrSza2sHD7bvnebNfDrzRH5RUcD4YXHAuty72emRWxOWSivoHxTNzKhvPA3tYBQH4RXDenlLSc1wU+Axn5jlcGvnxtoyjOoYFP8Myyj0+pQrekHMwPMOA0jFB8bScysh9pGn7TTeZ2G/4D5K26CzaawKf4YG8PmftH5zRZZwleEJwRfxRwyvgeqQtn/IKhp80kHRcUPyPnMrKD4yHQPxi/beX8AxrAI8EPsPeedzk1wJv8HMlFZbI71xLKW/JSFVcnGMw/JQBxKBYg8a7aiZlI1eRE9nK8IXAZ/hSHjc4M/AGdyshg/fHN9JIb80xGH7BwNHxQfGLOZSbucDLjIlcGJyve5fwDHsGD6mH2jnw5maUVEgid+dfBmzb4Ao3lvxOsPiOAaMxQfG8HMrPr4yH7Bj8LfGHJTxDF7HrWEMX6X8i8Mb+q4TM3ZTYzYebvoH313MKhr8yUDQuKF6RQzk6wZgYelbiImB8Cc8QeQD9xyJv7IbAG9uphIz9bHCFa/I078nEnnC94rrDANHYxfv3BJelp4ENGx4Q9w7O0/8s4Rl2C7z/66JuaoPAj7R3lZCpQ0jn5EVl7BUNrmTdwS9HK64ngYkGiMb2ErfPvv9Flqnz7CRydWB+zqSclQFRL0tLSVt29tnA9eXwwIwoY6jxMGDjwPT+p8EV7FjSbkWRlgPHtdJ6ITVQK70o/0vWcEU5Adiv4Vn7+cC0JgCvLuEZomLGGlksC7mhOg81Ro6l397gyjUMuD+H3uHp9pK8Wn8/Ci6ybN2aNYRN1QVMC8zPS0t4hsjtQge9bnxI4FDGYxS/AfZ4YifTvKvBlev9OQTDqwwEXqsExanBZazpe52eROzkmvVL+EwTNaN9zmBfkCKj89klFIaPBd7/bNLZY000mvSdL3zNmEHAq4fvic8HlrNHGlxvIW3Q/Uxgfn64hGc4J/D+9+or+vYmcr/RKSVk5PGBaX0vq6hNdGoOb4YfaKV9ZaUXZd8TPx2Y5CZZ+W2qBcD3K9qmlhE7DhnMvxw1S2khMKLgTIzcTGAp6aNyU98wo4/LmmJvyKuPnuJNgeVtDrBOg4Pi5sRu57ZDwfc/KnDU4IqB9hCHEzdL6+osKBbpbYFpXUFzezPvoo3pyv18Y32vfSG1Ue6WBqU1tuG9xAeAqwLTO6bg+58PXBOU1v7AWgMJiAeQDn6N8NuCM7Ar+Ef7XkMr0lDgQ8FpfqaV1jRJq9WC24DvBCb5Aco5kLwqIodNj6X4CZJRMWQ4sO9AAmLk98OrCs68fYGJQWk9STnfP6vgOGKHiu9qNXsdp/phcRoqmx2U3NrAyQ3OzssC83JLil9CFxlDDh1IQDw46I8/BtxdcOYdHZjWD1LdbKTooc0PI7VpKLwD+FRgkqfSy3BZh1tE7Ak9Rxd8/9OAWUFp9Tu2Dc8ysK7HJD1I3AfkSQ2tQHsRO5HmaieLeA1wgs3fAsvhiQ1+x4icaHhvCfcfdazV86zmc+Dqeoh7knYmiXBlwZm2G7BZUFq3Z28mTRQ5vNQCPm6fRwMUuQzjgxT//asqItuzLUvoLEQNm65FOqSg7YC4TwUfol1vCEzr4oZWnHWBowLTu6yVNgWXBvI29QPgzqDkJjHItWg1F9mmvbGmARFWM7FmdQExarnFPaSdIuoYEFvARQ2tNMcSu7vHGTbrGqT/DkzrPQ0PiFGbqBcdEB8k7accoe0Y10X6eBkxVntOwRk2gbiTov/U4EoTecTT7/wO5hX0LfEB6rsnZ5X8OSgfl5MOXy/S+UH3/li7PcStSGcgRjWsRXotcd8HftzQyrIV6XDRKJ+zc6MgXwlKZxjpeKimimrburI2t0jXB6WzEWkHnz4D4j4VvPl2RZ7XdXlDK8vbA18q/tpKuxRJg9aCr5G2YYvQ5FMwItu2V9U0IPYY63oKiJOD/thcil1/uAZxH8vvIG6sum6ODUzrWzbjCnZ+UDrbk2akN9HfiJukdChxB8i3407guaC0JrcTEKMKyQ2kMeai7EncBr5N7R1OArYJSmteC75t+61g3yFuUsgxDc7HqDZuvYJfLJaRvoFG2LWvgNgF7BIYEIsU2XX/eUMryRGBaf0AKVh2PFTUsNkxNHdNYuRL/6sLvveo2NJnQJxI3Aa4NxacSa8MSudJ4GYD4qCdj5SPqM32J9DLRs8d7mbSsW4RDi343v8SlM444GW9BcTJgTc9tcAMWpM+TkLuhyuIG5Kpkw2Im116bytuWENatZd4LnGHdR/R0GxcTtxC932J29msHbcGprVbbwExarj00aynVZTdidu098qGVpDDifs4foHNtnIWdRzQEQ3OwyuC0hlBD8OPOZoFPBGU1q69BcSoj6NTC/5hD6hgIambyO2smrrDj4pzSVA6O9LDejQDYqltcJExptce4o5Bf+S2gjNn/6B07sx6t010cFA6M1ow3fZaeWqll64XgpI7vKHZ+DBxdXX/gu89KsbsuLqAuBZxh8HeWmDGdBH3YfyahlaMrVjl4/IgNHWGror3h6B0DjUPB+1Aip2xG9VD3JyVjoJaOSBuTVrcXrce4tbE7Ut4fUMrxcGBaf3CdloF+VVg+e9uaB5G7dm8PrBFDXuIQ0hHWb0kIG4X9AcWkHYlL8rkChaOujkoKJ1nW3FvnFJffh2Uzjo0d9ea6yraFvflPuJmGm/XU0DcNijxGRS7bCHqR3gYmNnQSrFHUDrX2karKK10vNx9gb3EJnqA1Zz8MABFvlQsJ21BF2HbvANikaICYlN7h6MDf/trbKZVsD8GpbNvg/Mwqpc4ueD7jpoQ1GMPcbuK3WQ7ugLfSm5saGWYTNz3EwOi6tqY793gPLwpKJ3daxoQe+whbl3DHuJEYN2gtKY2tDJEvdXNazV3yzuVJ2qYflNg44bmYdSqgJdshZazqFizzaoBcSywdg0D4k5B6bQaHBDruhmDtOI74ix7iYOuu1HzPnYq8L6jeojrAGNWDoibBSW8nFRAixI1zHsf8GxDK8P2QencYvOsmvdwdmlo/s0hbmXA9gXed+QEzs3yCIizgIU1bMxvbWhF6CLu/EMDosrs4USYZB5WppPSjgXEndgxIY+AWPSyhajMn9bQSrDJiqGCClUoqayyt1OD8/D2GvYQCezZ5tJDfKimAbGpe29GLbdY2kr7wEp1DohbAsMbmofhSxgKEhVz/qGHGLWHaZE9xPHEHWZsQByc+22TVZYW3AssCkhqDdK+vgbEgVuPdLZqUaJiTi49xCIDYtS+ecuI2/Ggbl5WscokDVTUjjVbNDT/7iFNiqxbHkbFnH/oIW5Use5rOyYGpfMgccfI1M0mQenMQCpX1Evtlg3Nv+cJ/h5XkKiYs9HKATGqi1tkD3GzilWkOtq0hr+7lGc93sI8rExnpci2Z4MVAXEMK50HNUhP1DAgPtjgChAVEB9FKlcdezfmYXVizkhgZHdg73A58HSBGRH1FtLk3k3UkOkjtscqWdSJDRs1OA+jhh+LDIizifv2uUFkQHyaNEGlbj3EpgbE4cAIe4jqEFFlcHyD8zB0xmZBlpJ22gkLiFGnzT9Z8I83vmKFoG7WiRoZaMW9nUtl9xA3JO70l6YGxKJfKqJiT2gPsciAOIy4zcgfamjhjwqI82yLVbZWOuA7Yl/LIaS1dE0U1RauCwyta0AcV8OAuAFpH86AelR4z7bTAuJcm2NVxPyK1Y26iTo1pCswrhQZe8atmGUa4akCMyCqVzsXWNzQwj82MA+lKogqi2Mamn+LiDv1Z8MC7zsq9ozpBkYHJVbk8UkbVCwj62ikAVEdJqoNWrvBeRjVJq5fw999dGRALPJbUl0nAlVJ1Bj/C0j2EDtF2Pe4Au85KvaMjhwyLTIgjq3Yj19Hw4LSWYxUDVFnsY5scB5GtYljC7znqNgTOmT6XIEZEBXE5zS44Ef1EJfYDqsiosriEHvZg+9t1TAgjqrrkGkd79mAKNUjIA5tcB6GDT/W8Z6bHhDnN7jgR70FL7UdVkVEDd8Pa3Aehg0/FnjPUaOTY7qJ277LHmK9dAWl00Kyh2hArH8PcUR3YE+hyMkVBkRJeb2cdTU4D+sYEBcFpTMkMiAWOXQWdVzVAtsQSXpR1GekNQu856jYM7Sbek6uGFLDe5akqosKLkPqeM917SE6IUSSDIiRHZvQgFhkb2toxX58STIgxrfRhd5z5JCpPURJqrc6bm4QNru4G1gjKLFlBkRJMiDWtIc4pK4nQzu9WpLiRcWEItcnh62p7qbZH1GHWv4lKbxNrOOckiXd1HPMuI4ffiXJgBgv7BNaZA+xyODirvaSZEAM7yE6ZCpJgriNzWvbQ6xjcIm65zUt/5JkQCR4yLTIHuLzQemMsfxLUnib+HyB91zJSTVrFZgBzxoQJamyAfHZAu85KvYs6SbuxIcij/uIOhBybcu/JL1obA0DYlQQn99NPc+/eq5iGSlJ9hDj2+giY8+87poGl6i3D3uIkmRAfDEgRh0IOaqGAXF9y78kvWjDoHTm2kMszjNB6Wxk+Zek8IA4p64BsY7fEJ8ISme85V+SwjsJjxd4z2HDvJEBcZ0aBsTRwEjrgCQxBhhRsTa6HVEzY+d3E/c9boMCM2AWcceL2EuUpLi2cDnwZIH3HRV7nu0OvPEiA+Ii4saoN7EeSBKbBqXzNMVu3RYVe57sBp4KSqzoGZtRXfLNrQeSxBZB6TxW8H1HBcRZde0hAjxasUIgSXUW1TkoOiBGdcaeigyIYyn29IgHDIiSVLmAeH+B9zycuFmmoUOmkZHagChJxYpqCx8o8J6jRiZbK3qIzxO39GLjAjPivqB0trQeSFItA2LUuslngcXd2X+J6iVuVmBGRHXLNwTWsy5IarD1iRvhKzIgRsWcJwFWBMSoCSoTCsyIyEzf0fogqcF2qmjbXFRAfGTlgDizhj3EZ0jrXQyIkjQ4OwSl8xTFbuwd1Ql7KI+AOKHgH/EuA6IkDdqkoHSmFXzfUZ2wmXXvIUZm/iTrgyQD4qDdWfB959JDfKjhPcRdV8oLSWqSbmDnmgbESvcQ182uuvUQ1wa2tl5IaqAdiDu+r8gh0/WztjuXgBh1esS2NQyIAHtaLyQ1UGTbd1eB971dUDotVpll+jzpSKUq3WQ7ZhO3b54BUVIT7R6UzkOk2f9Fiep8PQG8sHJABLinhj1EgJuD0tnDeiGpgfYKSuemgu87KtZMX/F/rBwQZzQ8IO4OrGXdkNQgw4FdKtYWtytqNDLXgLhdwZkS9VayJg6bSmqWfYFhNe0hRsWaGT0FxOlBiW8JDK1hDxHg5dYPSQ1yUFA6LeDWAu97TeKOq5qeZ0AcCmxfYMbMJm7vvIOsH5IMiP12LzCnwPveAVgjzx7ig2QzbQLsWvCPekPg8MFQ64ikBhgG7B2U1vUF3/vkoHSeZ6WNaVYOiMuyKB9ht4Iz5w9B6YwibsaVJFXZPsCIoLT+WPC9R00EmgEs7ykgAtxR04B4bWBar7aeSGqA1wamVXRAjOoh3r7yf1k1IN4WGBC7Csyc6WQHPFaskEhSVb0mKJ3HiRtdbEcXcec33tZbQJwa9EfGEDcDqB2twF7iHsSdHC1JVbQ+cXM9/lDwvW+VxZgIU4voIUZ2aYv+UbqBV1pfJHV47zDqhJ+ih0ujPsm1gL/2FhCfItvkNMA+BWfSFYFpvc76IqmDHV7RtrfI2DKTVZaK9PSGENVL3LfgTJpO3HrE1xG3e4MkVcmagS/9D1Ds90OA/YPSecknwu52/qEBKmNv0N8FpTMWd62R1JkOJe4b3K8LvvfhxH37bCsg3hL4FlL0d8TfBqb1ZuuNpA70pgp2Qtq1B3Gjd7e2ExBvCLz5/QrOrKuAJYEBsdu6I6mDdANHBKW1BPh9wfcfNVza6inW9dTgP0ncmHDR3xGfA/4UlNb4Eu5fkvJ0UNa2Rbgua3OLFNUmz6CHw4xX1wOK2pduf4pdoA9wWWBax1p/JHWQyDbtsoLvvZu4UcfrV/cHehI1bLohsGMJAbEVlNZRuNm3pM4wDHhLUFot4GcF3/8uwLgyAmLkzuVFL3KfSdzSkXHAq6xHkjrA4cC6QWndDDxc8P0fGphWvwLiNODZCj5EuyLfXBw2ldQJItuyn5Vw/1GxZA4rnYHYTkBcDvw56I+/nOKHHSPHtt8MrG1dklRj6xA3uzS6jW3HMODAwN7h8v4ERIibTjsa2LPgzLsDuDMorRHAMdYnSTV2PHEbpdwO3F3w/e8NjAxKa7WxrbeAeFXgw5SxWfbFgWm9y/okqcZODEzrohLuP/LT21UDCYhT6WGdxgAdVkIGXkjcbNM9iNsuSJKKtCdxJ8y3gjsb7Yrae/VpVjkUuN2AuAy4Jugm9iItwSjS/cBfKvqGJUlFeWdgWn8CHiz4/jci7Y0d4WpW8/2wr4C44l+O0E3scSNldO3/mbgNcSWpCKOBtwWmd2EJz/B64jZ4uaqvQNWbKwMf6ogSMvJi4vY2HQ0cZ/2SVCMnBr7ILwJ+VFJAjHL1YALiDOIODH4V6QSMIj0JTAlM730UvxWdJA1EN/DewPQuJ32DK9Jw4iZlPgT8bTABEeBXQTczCnhFCYXinMC0tqecjQYkqb8OA7YOTO97JTzDK0lL3yL8sp03iL78IvDh3lhChv4msJcL8H7rmaQaeF9gWg8SuxSvXW8ITCskIF4JLAy6obcAQwrO0GXAuYHpvZ7iNyzPQ9TuQUuQVDU7A68JTO8cepmdmWMbFXVQ+0LamCTaTkB8nrhda9YnbeVWtHMDf8wu4MMdUGGGB6WzyLZHFRFVxzvhYPCPEjffYRlwXgnPcAiwXlBaV2axLOSHj5yYclQJGfsAcd9CIc02nWBABOAF22FVRNTL2Vo1z4fNgaMD07uc4k+2IPgZfh75JvRL4nZ9+SeKHzYF+HpwV77u3xIjp2JLVRD1cja85vnwoeA29qwSnmEY8KagtFrtdojaDYiPEHvG4CElZPAVwPTA9N4d2J0vw/igdObZDqvDeoijal6vI3fVmkbceLcaCwAAEftJREFUJ7P+eCXphI4INwOPRwZEgJ9UtCvcn7eEbwSmNzp7E2t6QHzKdlgVETX5b8Ma58FHiFumQNZmtkp4jsgY0Xbs6k9AjNyh4MjgH61d5xN38DHAKTXuJW4SlM6TtsOqiKiXs/E1ff7xwHsC05sL/LCE5xhF+rQW1RFqO3b1JyD+jXQCRoQxgQ/cH/OAs4N7iXWccToc2NQeojpM1MvZxjV9/o8GdzS+Aywo4TmOJG7Y+mbSpMrwgAhwSeBD/3NJhearwOLgXuK4mlWcrYibWv6E7bA6LCBOpJyJf4OxUXDv8AXgayU9S2Rs6FfM6m+jeClx48mvADYrIbMfDR4GGAWcVrPKs01QOktbcK/tsCpiVlA6w7KgWCenETs79nzanIgSbAvgoKC0WlnMyi0g3p91QSN0AyeUVHi+QOyuC+8JDDJFiDrs+GGkimjBXYEv7HWqz9sQe+bhMuCLJT3LO4jbUODPpA29cwuIEDu5JvLh+2M6bS7UbNNQ4MwaVaDJQencZzOsinksKJ1davTMZxC3FSPAz+jjVIicdGcxIcqPBnID/XVh9gYRYUvKOz3ijOD03ggcbECUShVVJnevyfPuQ+wExRbwuZKe5dXEfUZbygAOiB9IQHwM+F1gJpxcUubfRBu7n/fTl6j+PoibEzet/A7bX3VoQNyjBs/aRfr8EznK9nPg1pKeJzIW/JoBfFMeaON9XuCNHwG8rKQf4NPELjqdTNrntMoie+R/tf1VxUS9pG1G3FrdvBwNHBDcO/xMSc+yGXB4YHoDilEDDYiXEXdy8hDgpBJ7ib8KTvMMYGQDAmKrBdfa/qpipgam9coKP+dw4PPBaV5eYu/wPcAaQWk9zQBH/wYaEBcTuybxXaSpzmU4PbiXuAnV3dKti7TcJcL9tr2qmuXpqLeo+vyqCj/qx4hdtlZm73BNYmfJXsAA97UdzPeu8wIfYEPS7gRluDl7M4p0bODbTqRJxO3TeKPNryr4xjeRdLp7hEMpZxZ8X4YCxwen+dPg3nV/vJV0Vm6UAcemwQTEm4A7Ax+izOOU/h9pVtJgLSF95N6TuJm4kSJPGfmTza8q6i9B6YzPXiKrZgmwG2nXrah26+MlPk9k23/bYAL7YGdEfjvwQfYGDizpB5lOGmoZjKtJa5c+CsyvaEMROaHmOttdVVRk2azqsOlzwAdJE/n+OMi0vg/cU9JzHJx1IKJ8u8wfZUz2w7SCrp+X+Cwbkzay7e89PwIcU4NGYmQWqCN+p7mtNKnGy6tyF7BzYJv06xrU7S7g7aQlcf19vvmUe7rHLwN/q7lU4CzLbwY+0HJg+xKf5bP9uNfFpOHR0TV5a35r4O80xYbXq+JBcU5QWV9E3EG1RXRQvpwNgbb7fJ8p8X4nZW1+VLv0v1X4ESYFPlAr676XWaCeaOMerwZ2qNkw0qWBv9EpNrpeFQ+IPwss7++sWV2fBPyhjed6rOQX+vM6qDP1D64JfLAXKPc8shP7KEAnUM2ZZ70ZEThc2gK2tdH1qnhAPCmwvF9Z02+pR5A2t17dc72jxHvbJOt9d+RvdFRwL/ELJT5LN2kG7arDo1+q0fDoqo4O/G0etMH1qkFA3CywzC8t+TtbHsOoN1LuNpNfCY4Zb6lSpg8lHQUU9XDzgQ1KfJ79VhrbvoZqTr3uj58E/jbfssH1qklQvDPyM0HN24BJK43kLQf2LfFexgMLA3+bhwg60DnqDWFJ8AfNkcBHSvzBrs/eYI4j7ewyrcYVYRRwWGB6lyHVwy8C03pbzfNiWtaWHZe1bTeUeC8fJfYw46j1mKHfwtYGZmb/GWEB6XioWdbrQXkn8L2gtJ5txf2+Uq660trmqEX6LWBrPPIsond4f2BAnAtMAOZVqYcI8Czw3eBe4r9bfgYtcuP0X5idqotWCoYz4+Ir7zZXK9c7/FZUMIzuIQJsmr1BRW3UvRDYwl7igO1G7O71R7bgx2aratRL/CrwgaDkZpOOqnvBnK1E73AR6XzXx6NuMHqW0SMM4JTiXoyg3D327B2uNAJgMFQNRZ7KM460wYUG5hPBvcMLIoNhHj1ESLOZbg9MewlpEfy9lqd+GQU8Spp2HeHcFvyL2aoa9hJnANsGJfdnyp2hWVdbAHcTN3rYymLNXZE3mcc6lGnAlMD0hgL/ZXnqt2MDgyHAhWapaiqy7O4D7G6W9tvniT3z9qfRwTCvHiKkHdhvDky/RZoxdpPlqm23ZL9DhEdbaWcJqY49xC1Icxui2qPvAf9qzrZtr6xnHRkPdgP+Gn2jee1UcGtwL7ELONNy1baDAoPhigZAqqVWmshxVWCSxxJ7oG2nOzO48/WzPIJhngER4NNZJI9yMPA6y1ZbIjc1WGpAVAc4KzCtEcCpZmlbjgBeHvt+U+oJHYNyObH71d0DrGkZ69X2wLLAPP+p24B5dchWbg8E1ou5wFibm14NIx2+HhkDcp3pnvfmrqcH9xK3Bt5nOevVx4J/1++YpeoQZwemtTaxy5o60QeIm927ondY+wmWkeeStUg74mxkWetR9JEq99mz8OqUawpsQ1pUH1U/niB2XV0n2Rh4rk69wyJ6iAD/QdDGq5kxwP9Y3lb7RhY5tdneoTrG69N6xEsDk9yQdH6qXupMYo/LWwp8qlMy5zvBbwrLgf0tc/9gbNZ7DjuoeSa80p6FV4d9R9wnuC16kLRWWn+3P38/Pi/q+mYRN17UAZGnk06viNKFs7xW9WFiF+JfMgGuMFvVSVrp2KObA5PcDHiXOfsPTiV2mcV80qqFjvLpoDeFhVmAdbbp340jdrx+OTDJHoVXh/YSjwzuvTxGWoqhZGgWFOcF5e9pnZhJo0gbsQ4mY64idtZSp/hicAW/zIbTq8OD4h3BdeZjNkMvsQXwy0Hm6yxiv0VWyskDzJSHgbdYvnq0UdZrjqzc+9poenV4QDwuuM48jesSV+ctWRs+kHzt6KUtQ0hb7rSbGUuAr3XyG0KAbwRX7N/bYHo1JCjeE1x3PmtztFojsk9d/VkWNi2LGR3tQNqbgXQTsIflqFcTiF1X1QJeY2Pp1ZCA+O7gujOfdAiuVm9n4Lo28/PgpmTKxb1kwmzSrK0uy06fzg+u0LfaUHo1LCg+FFyHvm2z1KeurI2f3Us+XtSkDHlZ9ja16szGc0gzJtW3vYhf63OUjaRXwwLiKcF1aCmwi81TW8Zlbf6q7dg8YNOmZcbHV8qA6cChlo9+vWFdG1yRb7eB9GpoUJwZXJeudYSrXw4Abl8p//5fEzNhGDA1+9A6zDLRL8cGV+AW8HobR6+GBsQTc6hPzorvnyGktYtTgbXK7GmUqTvrLqt9w7Me9YTANK9vwX5mrRo85HIXsENgkg9k6b1g7tYnJnSX/PAGw/77SHAwBPik2aqG+3hwepuTtlNUjWKC49z1sgVprH1kYJq/acFrzVrZS+R6YkdKFpCWGdxv7tane6r6/FbnBAfDFvAJs1YC4rdfG0laGmU7a0BUsJOBlweneWkLbjFrJWil2aG/CE52/6zuqh6jBKqBzUlDpaMC01xMOtHiHrNXerFB3IG0vWTkGYcLSWsT7zWH7SFq8L/RucHBEODLBkPpJb3Eu4CzgpMdAZxne2sPUYN3CvC/wWnOasGGZq202obxCeL3JT2FtBm/7CFqADYHzsgh3f8wa6Ve/WcOaf4PsJVZaw9RA3tZuZr4iTRTW7Cb2Sv12TjeTPyJO38CDsI12PYQ1S95zCptkbZHktS3U7M6E2l/4N/MWnuIat8WpJlu0RNpLmjB281eqe0G8kLS3sGR5pNmnbpg3x6i2nhJ+XYOwfCpKfAZs1dq38K0VGJWcLKjgO/bIbGHqL69D/h6Duke2YIfm71SvxvJNwKX51TXzzKHDYjq2UTgjhx6hxe14G1mrzTghvJi4Jj4DqgL9qvEIdNqvZx8N4dgOHtKOnNS0sAj1z3ED52OAM62Y2IPUS+V11DpW1twqdkrDbqxfBNwWU5136FTA6IyE0l7lY4OTveSFhxt9kphDeaPgKOCk10A7IpDp6VzyLQaLyXfzSEYzp4Cp5m9Upw58Fvih05H4tCpPUQB8F7y2d/wqFZ6m5UU22geDVySU1vwTXPYgNhUE8lnqPTyVpoqLimfhvPHwJHByS4gzTq9zxwuh0Om5b6M5DJUCpxk9kr5mQO/Bp4MTtahU3uIjXUy+cwsuwH4o9kr5e4gYN8c0nXo1IDYKBPJZ6hUUv05dFoSh0zLeQnJY6hUUmdw6LQka5gFhXsv6eRsSVqdzUnfKG8yK4rtrag4E4A7id+eTVLnmQ/sADxsVthD7ETfIP4EbkmdaRiwLvlsFyd7iKVaH3gkK+SS1I7FwCak5VTKmZNqivMqg6GkAfQSDzUbDIidZkezQNIA7GAWGBA7zdpmgaQBGGsWGBA7zXyzQNIAzDMLDIid5i6zQNIATDcLiuEs0+JsRFpP5FIXSe1aRpplOsussIfYSR4Hfmo2SOqHnxgM7SF2qi1Im3qPNCsk9WE+sDPwgFlhD7ET3Q+8gzQMIkmrsww4wWBYLL9nFe9u4A7gMGBNs0PSKp4F3oZbthkQG2I6cCGwHrAdMMQskRpvEfBD4GjgRrOjeH5DLN86wCtIO9n4bXHwNgD+JSCdeXTuqeUnE3Me57mkI4o0OPNJy7KuBuaaHQZEKcq2xKzberqVevCdWOmfIZ2iEJHX91jk1CmcVKNOE7WrRyefWTk6KJ3nLG4yIEqdHxA7ecLT0KB03I5QBkSpwhYAyyMS6oLJnZY5XbBnUFLLs7yWDIhSRS0n7jDVbTswf7YJSudJoGVxkwFRqrYZQens3oF5s0fF8lgyIEo1CIiHdGDeRJ2+7gkMMiBKNRDVWO86F97ZKZnSBeOBnYKSc7mFDIhSDdwdVT/WgbU6KF+OIm7t8d0WM0mqvrWBpaRJH4O9bmhBqxMu4KagPFkKjLWYSVI93BjU+LeAyR0QDPcMzI8/W7zUiRwyVae6OjCtj3dAfnwiMK2rLF6SVB+vDuwRLQN2rnHvcDfS+syo/DjU4iVJ9TEMeCowCFxb44B4fWA+zM7yVuo4DpmqUy0GfhSY3gFdcGLdMqEL3g3sG5jkRVneSpJqZO/AnlGLtHH4djXqGW5NOn09Mg/2tFhJUj1NDw4IU2sUEP8a/Ox3WZzUyRwyVaeLPvV+1y64vOoP3QVTgJ0rnpeSpAINB54I7im1gO9VuGd4Tg7P+3iWl5KkGvtYDgGiBVxQwWB4YU7P+u8WI0mqv9HA0zkFit8uhE+XHQjnpBmwV+b0jLOBURYjSeoMH8gpWLSAmcB+JfYKDwAezvH5TrH4SFLnGALclmPQWAJ8uYRg+JXsb+f1XLcAa1h8JKmz7EfsFmY9XY8A7yogEL4beCznZ1lGWsspSepAZ+ccRFZcDwEfmgLbBAbBDYEPk+/w6MrXty0uktS5RhO/WL+vodQpWY9uqwHuNnMS8AvyHRrtaRG+E2nUKF1mgRpoF+AGyllX92gWbGaQJuM8R9peDdLBxmOAicA2wA7AJiXc40LSUOk0i4okdb6TCuxt1e060eIhSc3yXYPfSy63Z5OkBloDuNQg+OJ1OS6xkKTGGgZcYTDkGmAti4MkNdvawI0NDoZ/yfJAkiRGAr9qYDC8krQURZKkFw0DLmhQMPwhMNSfXZLUk27gDPLf4q3Maxnw37gOWZLUhkPJ52Dhsq+ngMP8eSVJ/bEpcC2dNXlmoj+rJGkgukn7kD5b40A4FzgV1xhKkgKMB86nft8Wp2Q9XUmSQh0M/L4GgfBq4CB/LklS3vbPel9V6zFeBxzizyNJKtquwFeBWSUGwVnAV0jHWkmSVKqhwBHAJcAzBQTBp4GLgNcDQ8x+afBcmCvF6wZ2I61lPATYHRg3yDRnAzeTvg1eBdxGGq6VZECUamU9YLvs2hxYBxiVXWOyf+Y5YH52zQHuB6YDM7IeoSRJkiRJkiRJkiRJkiRJkiRJkiRJkiRJkiRJkiRJkiRJkiRJkiRJkiRJkiRJkiRJkiRJkiRJkiRJkiRJkiRJkiRJkiRJkiRJkiRJkiRJkiRJkiRJkiRJkiRJkiRJkiRJkiRJkiRJkiRJkiRJkiRJkiRJkiRJkiRJkiRJkiRJkiRJkiRJkiRJkiRJkiRJkiSp0f4/17LKAIxgX1UAAAAASUVORK5CYII=;" vertex="1" parent="1">
          <mxGeometry x="610.75" y="285.75" width="38.5" height="38.5" as="geometry" />
        </mxCell>
      </root>
    </mxGraphModel>
  </diagram>
</mxfile>
